<mxfile host="Electron" modified="2023-08-26T23:40:19.158Z" agent="Mozilla/5.0 (Windows NT 10.0; Win64; x64) AppleWebKit/537.36 (KHTML, like Gecko) draw.io/21.6.8 Chrome/114.0.5735.289 Electron/25.5.0 Safari/537.36" etag="uo7HZiY0J-3RnX8shaPE" version="21.6.8" type="device">
  <diagram name="Page-1" id="lVhcReEJrVg11cs7-Vqf">
    <mxGraphModel dx="1418" dy="902" grid="1" gridSize="10" guides="1" tooltips="1" connect="1" arrows="1" fold="1" page="1" pageScale="1" pageWidth="827" pageHeight="1169" math="0" shadow="0">
      <root>
        <mxCell id="0" />
        <mxCell id="1" parent="0" />
        <mxCell id="IRch1kM8VxnB3qviVSgo-2" value="" style="shape=image;verticalLabelPosition=bottom;labelBackgroundColor=default;verticalAlign=top;aspect=fixed;imageAspect=0;image=data:image/png,iVBORw0KGgoAAAANSUhEUgAAAgUAAAIvCAYAAADkq6hdAAAAAXNSR0IArs4c6QAAAARnQU1BAACxjwv8YQUAAAAJcEhZcwAAFiUAABYlAUlSJPAAAP+lSURBVHhe7N0JuH1XWR/+o7TVWltrqx2Vjqi1tVXrgEaxFsQiClhkjsAPgQTIxBAINQTI8BAChDaERBNC5JdIQmKgGqmIltZWWofOk6XWtk6ttbWjVWtb/38/2/uGNytr77PPuefce8697/d5znPvPfecvddea+33+32HtfbH/H+/jkWhUCgUCoVTj489+FkoFAqFQuGUo0RBoVAoFAqFASUKCoVCoVAoDChRUCgUCoVCYUCJgkKhUCgUCgNKFBQKhUKhUBhQoqBQKBQKhcKAEgWFQqFQKBQGlCgoFAqFQqEwoERBoVAoFAqFASUKCoVCoVAoDChRUCgUCoVCYUCJgkKhUCgUCgNKFBQKhUKhUBhQoqBQKBQKhcKAEgWFQqFQKBQGlCgoFAqFQqEwoERBoVAoFAqFASUKCoVCoVAoDChRUCgUCoVCYUCJgkKhUCgUCgNKFBQKhUKhUBhQoqBQKBQKhcKAEgWFQqFQKBQGlCgoFAqFQqEw4GP+v1/Hwe97hf/4H//j4id+4icW//k//+fF//t//2/x23/7b198+qd/+uIzP/MzDz5RKBQKhUJhFeyVKPgv/+W/LN773vcuvu/7vm8QBJ/0SZ+0+NRP/dTFb/pNv2nxP/7H/1j8+3//7xef+ImfuHjUox61eMITnrD4gi/4goNvFgqFQqFQWIa9EQW333774pZbbll8xmd8xuLxj3/84ku/9EsXn/Zpn3bw39/AL//yLy/+3t/7e4vv//7vX7z//e9ffOVXfuXiwgsvXDz84Q8/+EShUCgUCoUx7LwoEAG4/PLLF//6X//rxcUXX7z46q/+6oP/TOMnf/InFzfffPPiB3/wBxeve93rFo95zGMO/lMoFAqFQqGHnRYFBMEFF1yw+J2/83currzyyuHnqjh79uzihhtuGL7/NV/zNQfvFgqFQqFQaLHTouCiiy4afiL1w+Cee+5ZXHfddYtbb7118Xmf93kH7xYKhUKhUMjYWVGghuDee+9dvPvd714rQtDi+uuvH+oNHK9QKBQKhcJDsZP7FFhloKhQDcEmBAFccskli1/8xV8sUVAoFAqFwgh2UhRYdmiVwdyiwjn42I/92MW55547pBIKhUKhUCg8FDspCuxDYNnhpvG1X/u1w14G0giFQqFQKBQejJ0TBbFT4TnnnHPwzubwCZ/wCYtHPvKRi7//9//+wTuFQqFQKBQCOycKCAJ1BH/wD/7Bg3c2C2kJex4UCoVCoVB4MHZOFHiWwad8yqcc/LV5/J7f83uGcxQKhUKhUHgwdk4UeLiRZxlsC47tHIVCoVAoFB6MnRMFnnZoJ8Nt4b//9/8+PDSpUCgUCoXCg7FzosDjj60Q8HCjbeDf/bt/Vw9IKhQKhUKhg50TBZ/5mZ85ePLbWjZo5UGJgkKhUCgUHoqdEwXwqEc9anj88abxIz/yI4uf+7mfG2oK7rzzzsXf+Tt/Z/Ef/sN/OPhvoVAoFAqnGzv57ANRgvPPP39x3333Lf7QH/pDB+8eHi972csWv+23/bbFVVddNWyl/G/+zb9Z/Nt/+28X//t//+/FH/2jf3TxR/7IH1n8/t//+w8+XSgUCoXC6cLOPhDp0ksvXTzsYQ9bXHvttQfvHA4iD5dddtniG77hGxZ/7s/9ucXnf/7nL37Lb/ktw/9KIBQKhUKhsMOi4Kd+6qcWz3zmMxfnnXfe4hu/8RsP3l0PP/mTP7k4c+bM4qu+6quGxzGLRBABf/bP/tnFn/7Tf/rgU7+BEgiFQqFQOK3YWVEA4d2/8pWvXDz1qU89eHc1EASekKi4UITAbolf+ZVfufhP/+k/DUWHlj+KGvzxP/7HD77xUZRAKBQKhcJpwk6LAvhrf+2vLa644oohaoDcPe1wLoiKa665ZvGIRzxi8Xmf93mLr/marxlEAkFAIPzu3/27hyWK/+Af/IPFb/7Nv3nxBV/wBaOEXwKhUCgUCicdOy8K4B/+w3+4eNOb3rT4xV/8xeHxx1/3dV+3+K2/9bce/PehsMrg7rvvXvytv/W3Fl/8xV88kL1nHvyTf/JPBmEgOvBDP/RDQ8QgIgT/4l/8iyFy8Af+wB8YPv9Jn/RJw/s9lEAoFAqFwknEXoiCwLvf/e7FPffcM2xu5GmHiN6zDGxdbKdCXj8B4f+WNX7yJ3/y8GAlKYNf+IVfWHzRF33RsAyRMBAZ+Bt/428MooBwAF1BGHj9mT/zZx5UjDiGEgiFQqFQOCnYK1EQUCiIuD3t0MON7DtgwyN1AwoHv+zLvmzxO37H71jcddddw6OY/U4cEA6iAN/7vd87CIPf+3t/7+Jv/s2/OYgB6YSIPvyv//W/JosRx1ACoVAoFAr7jL0UBXNBNKgr8DyFX/3VXx32PPg//+f/LD7rsz5rqFUgDLwn3fCv/tW/GtIJ+ZHNc4oRx1ACoVAoFAr7hhMtCuA7v/M7Fz//8z8/FBXauOjXfu3XhrQCcs7C4Cd+4ieGqMEXfuEXPiQyMLcYcQwlEAqFQqGwDzjxosBqA9EChC7FgIxFBRD/J3zCJzxIGPy3//bfhjqDWLbYYpVixDGUQCgUCoXCruLEiwJA/AhftAAZP+Yxj1l86EMfWjz+8Y9f/N//+38fJAzAqoW8bDFDd61ajDiGEgiFQqFQ2CWcClHgoUcf/OAHh4LEP/bH/thQI/An/sSfWPzdv/t3F1//9V8/rExohcE//af/9CHLFjPWLUYcQwmEQqFQKBw3ToUogO/7vu9b/NIv/dLwPAUvSxk/5mM+ZvEzP/Mziyc84QlDmqEVBpY2tssWWxymGHEMJRAKhUKhcBw4NaLA0sX7779/WJ74h//wH178o3/0j4b0wY/92I8N4kCqoCcMfuVXfqW7bLHFYYsRx1ACoVAoFApHhVMjCgC5I1Z7Fwj5EwSemmiFgj0ObIXcEwYwtmyxxSaKEcdQAqFQKBQK28TDXvfrOPj9xON3/a7ftfjBH/zBQQBYmmgnRAJBaoBgEEVAslILhIGfViIAIWBJo5UMvmfjox4+9VM/dagvQOBSFgoZHUfK4rAQpSA2/uSf/JOLT/u0TxtSFrZutoujLaC1y54MhUKhUCisg1MVKQDbHNvAyL4Ej33sYwcx8OVf/uUDaX/P93zP4i/+xb84rDgYixgsW7aYselixDFUBKFQKBQKm8CpEwW//Mu/vLjjjjsGglZn8Nmf/dnDKoSnPe1pi4985COLf/7P//kgDHjdY8IAppYttthGMeIYSiAUCoVCYV2cqvQBKASUOiAOrEbg8dtnQKGgByZ5PsK//Jf/ciBu/+ulEoBIsMRRikDdgNTEGKQdHM9PBY62X5aq2Eaov1IMhUKhUFgXp04UwO/7fb9v8PQ/53M+ZwjvP+5xj1v86I/+6OLjPu7jFp/7uZ+7+PEf//Fh7wKkOiUM1BXwwNUpEBk+PwXftT8CMfHhD394iFSIMnz8x3/8wSc2ixIIhUKhUFgFpy59EPjH//gfD0WGCBk58vxtcPTUpz51iCa8733vG1IMSBymUglzly1m+GzeGVHNgfMeBSrFUCgUCoUeTmWkAEQLfviHf3jwokULkL80gmWHn/mZnzlEATxi2eeE+qciBkSF9MB//a//dYga8P59Zwr2RuDFO+9P//RPL37gB35gKHYcW9WwSVQEoVAoFAo9nFpRAEhYqgA5KjC0muCf/bN/Niwj5DmrFfjbf/tvD1sjEwxTwgDmLlvMcFybKSFngsQGSNIYUzUKm0QJhEKhUCgETrUosKeANAIBYEtjIX2e+wc+8IFBCCB5+X+fET2AZcIAmQvHI/ef+7mfG449B0dZjDiGEgiFQqFwunGqRQHwypH+Ix/5yCEq8IVf+IXDex6IRAjIsxMMagp49LBMGKhTiLSA1ISIgcc0z4Fj+e5RFSOOoQRCoVAonD6celHAsxe255UjOk9UJAxsboQIESNvn3CwwiCK8ZYJA1hl2WKL3s6IxMUmdkZcFSUQCoVC4XTg1IsCQHpWATz60Y8ediuUNpAC+NCHPjSQ4Sd+4icO78VWyJ/8yZ88fG+OMEDkqyxbzDjOYsQxlEAoFAqFk4tTuySxBWLn2esOGxl97dd+7bCJkcJDD00Cj1nOWyEHppYrBtZZttjiKHdGXBW1zLFQKBT2HxUpOIBogOciPOYxjxmedBhFh9IJ9jP49E//9CFKILdvKaN6g4/92I8dvjsnYsCDXnXZYotdKEYcQ0UQCoVCYf+xt6IAUQfpIPGf/dmfHR509Cmf8ikHn1gNCMsx/+f//J8D4Ss6RHDEgN8RfZB/3go5MEcYwDrLFls49i4UI46hBEKhUCjsJ/YqfSBE/d73vncovFMIqHhPQR6SQTxWCfD4H/WoRy2e8IQnLL7gC77g4JvzgFzvv//+xbnnnjs8JMlxv/RLv3QIi8dDk7wH0ghqC6xayJiTSoBVnrY4BcN3XDsjropKMRQKhcJuY29Ewe2337645ZZbFp/xGZ+xePzjHz+QdVu0p5DPEkBe+Pvf//6BbC+88MLFwx/+8INPLIe8P09e5f+3f/u3D7UFPH8hfysA1APAr/7qrz5kK+TAXGEAqzxtcQpH9ZjmTaEEQqFQKOwedj59IAJw6aWXDqR82WWXLV7xilcMYelePp6HjISJga/+6q8evOe3vvWtgyhAOnNg2aBIhIcl2VvAToeEiGOoJbCHAfKOVQB5K+TA3FQCaO+6yxYzjntnxFVRKYZCoVDYPey0KEAUF1xwwZArv/HGGxd/6k/9qYP/LAciVjSIXK655pqBeB7xiEcc/HcciFQUQIGh9EMUHUpTSBcI+RMJSFhEod0KObCKMDjMssUWbTGiNAty3WWCLYFQKBQKu4GdFgUiBATBDTfcsHYRnTw7Qr766quHTYnmhKcVK0pBIHqEHUWHjqOYkSceRYY88XYr5MAqwgDpERsKGD2PATkepjbAuaQ1pDx2sRhxDCUQCoVC4fiws6JADQHPWYTgsESGYBDKd3zHdyye/OQnH7w7DmT8a7/2a8OGQdIIVhuIHFiJYPVAPDQJ0QOh0W6FHFhFGCC8wy5bbLFLOyOuihIIhUKhcLTYSVGAwF7+8pcPNQSrpAym8MVf/MWLs2fPDqkARL8M6gQUARIBIgax06GwvEhCPDQJcUFvK+TAKsIANrFsMWMXd0ZcFSUQCoVCYfvYSVGg6l81vaLCTQExIsK777578fSnP/3g3XHYmMh3bBAkLSB6EEWHChD9HQ9NCiDzdivkwKrCQFpCceSqT1ucwr4VI46hBEKhUChsBzspCt74xjcunvjEJw5Gf5NArG9729sWn/d5nzeQyjKIFlhxgDSF9XPRof/lhyYBghVF+OAHPziQb/tkxFWFgbRJePerPm1xCvtYjDiGEgiFQqGwOeycKLCroDqCV77ylYfOp7cI715efe7GRqILiv9ECGKlAQISSUDS+aFJoM3IvN0KObCqMIBNLVts4dz7WIw4hhIIhUKhcDjsnChgxO0eaCniNsArtmHOYx/72IN3piEqoFaAV63QMBcdigzw3Hnxn/3Zn33wjcVA9r2tkAPrCAMCZFPLFlvsczHiGEogFAqFwurYOVHAaCPueDLhpuEJiMjhSU960sE7y4H8CQNetbRBW3SYH5oU8Lulhb/wC7/QJfB1hAES2+SyxYyTUIw4hhIIhUKhMA87Jwrk7T/ykY8MjyfeBhz7x37sxxZf//Vff/DOcgjXK8yLlEEuOgQCIT80KSDs/0M/9EMDufLGW6wjDBDYppctZpyUYsQxlEAoFAqFceycKPC0Q0sBn/GMZxy8s1kgaYTOMxY14OXz5pHDr/zKrwz7EyDxNnSOTGybjEwQeC46DCLx6GVphKgjCE+7txVyYB1hAJtettjiJBUjjqEEQqFQKDwYO/dAJJ78s571rMHzZrQ3jde+9rWDN3z++ecPht/L8sf4Gb8jdsWDSNFPL4RhBcPnfu7nDo9YlkZ45jOfOZAH8Nzl4+OhSQHLGtVJiE5EQWKLVR6ilLGppy0uAxFEFCFRRZoKHk8q6mFNhULhtGInn5KIVK+66qrFl3/5lx+8szl46iEi95oCMgjREILhZ37mZwZh8Fmf9VnDe3YxJBr8HcJBJIJo4H36X+T8heF93yOdx7CuMIBNPW1xCqbKvjymeVMogVAoFE4Tdi59AGGEN+35/siP/MjiPe95z+KLvuiLhqWJiH0sROx9KwsivC9crwjPsw8QNuK234H6BCkDx0Aa0g8iBpb3EQJC74oC/Y8osEWyCEikKkQkIlWxbioBtrVsMeMkFyOOoVIMhULhNGEnIwWW+Anv33fffSt7zFN42cteNnjvohDreoDI/v7771+ce+65g5eM5NUmiEAEiA+FgB7f3EYchPpFFHjzY6mKX/qlXxrExKMf/egHdlDMT2CcguiFc6gHsLXzNiEyIWqAKD//8z+/u/zypKIiCIVC4SRiJ0UBeEIiL/Taa689eOdwUJDnWQqWOgqxI7Eg2lUNvK2MEbinLsJf/at/ddioiAcd8B6SbJ/doBbhve9975AacR5ohQOxIJWAcLVDP/RqHPLvWTiIQmijoXWt26jNyCCKREWcX0rhtBFjCYRCoXBSsLOi4Kd+6qeGvP955523+MZv/MaDd9cDgj1z5sziq77qqxYXXXTREIlgxBGYTXsy5hh4nvFdd901tAsZW8EgbJ+LDkUUPJXxaU972kOegyCN8D3f8z3Dssup/H+uMbB6oRUO8XMs4iBqYP8EAsTDm1aJOKyD01SMOIYSCIVCYZ+xs6IAwru35fFTn/rUg3dXA2K95JJLFg9/+MMHrzmq9OeEvqcMvOWHuu6cc84ZPqvQjyD40i/90uFvsOERcfN1X/d1B+98FJZFehEGISR6WKX4sBdx0H4pDksniYVVIg7rQJ/oV6/TUow4hhIIhUJh37DTogAQ4hVXXDF44cgdqc0FUXHNNdcsHvGIRwxFgYgVyeYq/Qh9Iy7e7ZjBbg28ojN5/+c+97mD0PCepzuqLVAkGNB+hXjIsQVhIZ2g9mAKqwiDHvKyRaKlFQ7xcyzisI5wcKypiMxpQwmEQqGwD9h5UQAqvd/0pjcNhKXAj+c9lSdX6HfPPfcMeXXFdshewZ6qccQqOmDpoIhBRAhWCX2HgbeXgqJAx2HgbYLUFh0617333rt4/OMfP6QAWkgjSC888pGPPHinj8MKA5i7bLEXcYifqwqH01yMOIYSCIVCYVexF6Ig8O53v3sge7lyJIroeeXC7x5AhJAJCP+3H0DsJ8BDRtiWIvLOEavIQFulryty6DsXI/ZgCeCtt946RCIYegbeeXjGX/ZlX3bwqcXwrAIh/N7zHH71V3918b73vW/wpHOhYg+bEAaWYraCaB2sKhwUPxoXYkG/IsFt1zjsA3ZVIKhFsYul2hjz3LJLz/NQUFsoFE4u9koUBISlEbedAsNoIR91A8gVIdtSmJEV0gf7DBAOogC2HUaswvq9Kn2kNjf0rW6AAfXURQbe96zfZzyRbhj4v/7X//pAgl/yJV9y8M2PgjdNGIgmaOcUNiEMjmrZYk84eJ6CfRs8nlk0xs82yrBqquKk4LgFgvNbGaNoliAwPrGNt0iPeWNMHvWoRw2i271UKBROFvZSFKwCHjriZmQ96MfmQyIImVilG5AV7zmT8tzQtwjGV3zFVzzwXWF6nrENhMLA87JsdPS4xz2uS+ZztkIObEIYHPWyxQznjIiMTYFEWrQnhEP87EUcQiycdOFw1ALh9ttvX9xyyy1D9I04VXuibibDI7uJXrU673//+4f75cILLxzEeKFQOBk48aIA7Blg90BE4qccPuOaiZVnhCTtPdBGBpYVI6pHYLwZU2DEc9FhGHjH8NPnCIz2OP6/bCvkwCaEAYwJoqPA3IiM/oxow2kUDtsUCATv5ZdfPojSiy++eGnRa8D8u/nmm4fdO22K+pjHPObgP4VCYZ9xKkRB7COAHBhTJIiAEEUm1mUPF5oqRlRMSFCIRkBvp0P4wAc+MLRHW3oG3vltJ8x7X4ZNCYMpQXQU2EQx4mkRDpsUCPr7ggsuGOb7lVdeOfxcFWfPnl3ccMMNw/fNw0KhsN84FaIAhPSFPxlTXs2HPvShwWP3VMOWWKeq9HVXhL5zMSJPSxGf8H+gt9MheP6C7zl2z8Dz3oVkLaNchk0Jg6N62uIUIiKjP0UONuEJZxxWOPjptSvC4bACwUZegNQPA8W/11133VB0O2fOFgqF3cWpEQWMppC+nf14SIg6cvhWDLTEuqxKH4m0oe/v/M7vHI4rLwu9nQ7hZ3/2Zxcf/OAHhw2ZkAxkA2/vAsWLnn1gxcQybEoYwNxli9vEce6MuK/CYZlAEOK3O2j8rYZAdEs9zDoRghbXX3/9cD84XqFQ2F+cGlEAEdJn1K08EKaPHH6PWOdU6efQN4NLCOTdF5Fsu9Mh5IcmtWDg/T/OrRhvmQe4SWGwqWWLh0EbkSG8dmVnxF0XDq1AsNrDHh36kTD4uI/7uCFKRijMrSFYBrU6T3rSkxZPf/rTlz6WvFAo7C5OlSgAIX0rAexGyDBaERA5/B6xzq3Sj9A3A0wAeN4ARISi3ekQxh6aFLANMu/LagnbJfc8wIxNCoOjWra4DEh2TjHirmFXhAOBYIWATbbAigJzyPx/17veNby3KUgjiBSY14VCYT9x6kRBhPQRDEFgQyFh/8jhjxHr3Cp9uxxaruXhSxH6His6nHpoUiBvhbwsRAybFAbHuWyxxSaKEXcNRyUcnvOc5zzw7AtjqR+9t+7zRMZAeJgnN910U+1hUCjsKU6dKIAI6Ss8VHHOU8+PMx4j1rlV+uoFFO5JD0QxouP1ig6nHpoU6G2FPCUQNikM4DiXLbbYdjHirmETwuF5z3veMO+IAP0lQkYIb2MsFS9Kd0lTFAqF/cOpFAUMrZC+XQiFyO3Q9rCHPexBjzMeI9Y5VfoiAPfff/9QxIj0kTfCjsdB56JDcJ6xhybBsq2QewJB3hiZb0oYHPeyxRb1mOaPYko4qA3RV2D3SC9z2+qbbeDGG28cju9ZJYVCYf/wsNepNjplQMqK1jyTABEL0fPCRQ1++Id/ePDo7UaoBgBh+xkV2owqYv7pn/7pIdeNzH0vw9+2VBb2j53hfB6x/vzP//zisz/7sw8++RvwoCTbICM43l0LgsV5bM/ss7ZwzhDW910emnMJsRMISOHDH/7wsG+9/x8G+oPY4KX/3M/93CByjhPC4cQJQSQdZGmpPtJXpw3mszlnjpqrIgDGxzw2XuacFTFWsoiwmB9PecpTDr69WYjkKGpUdFgoFPYPp1IUAOPJg2JIGUrGjNFE5sSCnHUY2VYYAO/bMxcQEi8VaWb42/8IAN9zPEQmGsFIf8qnfMpA1sCrZ9SJjFYwBISBnUfNgmWVY3nkLBB8TiDou7/7u4d9FGzxjEDivKtijiA6SigQda3RJs+cCAFV+A2Yb8ZIGku+X9RJKkhEbBv4yEc+MtTq5P06CoXC/uDUigIIkvU8gh/90R8dyPlzP/dzhxUE9i7gdU8JA+QjR2urV/UJea94x2KAFTbG3vDSEr5DgAixSjN4D9kSCT5rfwKrI3ogNAgRKQle4DIQCJ4r4LNWMhAWohWeJCm8vK5AWCaIjhoEkp0k9T/C4x3r/+Nu13GACBQhEkER0THelpgSwOa6uSNS8KxnPevgG5uFdIV5rW6hUCjsH061KECIIgPIWCharYAwK6+eceN18u6nhIFj+I7oAjGBmGI9PaKXFuCxI37wfbUFn/M5nzMcP4e+iQGG2/HzOTKIEMsFiYrYUnkZHMv3ePe8RYWViEGYd12BMCWIjgtEj7Hz05I7hOia1hE+u4iW8EVH1JLwzJG98ZUK8x5x6bNEoffMP6trCODv+q7vWnzjN37jVvZ9sBzRvM+PDi8UCvuDU1lomBFFh5YL8uBjQyFL4NrHGY8VHwZ6VfoiEIwzMg7EskhFh87PmDPk6hvUFNhp0TJFRD2GvIxyLnrtn1rFMAe7tGyxxT4VIwbh52LB9m8/88qC+L39W1ol48yZM0P6QHqMQHrJS16yuOaaax7YS2OTsBHY+eefP8yxQqGwfzj1ogDyPgJ5Q6He44yXCYO2Sl+Y/Y477hjEhahDoN3pMK/Dt8SMt5WFRAtFjHkZ5VxMtf8wAmGXli1mmN761eu4dkbcJuHPQc7vixgoVFWw+vrXv/7g3c3AHHjxi188rGxoi2ELhcJ+oETBAYgBuXfEnTcUkp9uH2e8TBi0yxaFdoVzLYEM5AiFlEKAOHFOQsXn894ELbQrL6Oci2Xth3UEQiuIdgmIN0dkNtW+4yb8MTinsfOyPFaeX42FWgKi6KUvfenivvvuGx3/dfCKV7xiEANXXHHFwTuFQmHfUKLgADmkrygvbyiE4GMr5MAcYs0PF7Kc8Cu+4ise5EWP7XQIKuntjOi755xzzmjoW1u9CIOpdEOLOe0PrCIQduFpi1MwHsSBSMuynRF3lfDHoC0hBFxnjJPaE88kEH0iCIyn9ogWXHvttQffPhy+//u/f3HZZZcND1lyzkKhsJ8oUZCQQ/oIUzFdbCjUy+HPIdZ4uBDDbDVCW5UdEYrepkT2TBBlMERToe+8FfIqWEUYBOYKhCyIjutpi1PQfuOib6MQdJcJfwxTQiDDtsZSU2C5KkH05je/efGiF71oKDo8DMwjdQu29n71q1998G6hUNhHlChIyCF9JMHrQeI8qrEc/hxijYcL2Z9Afjcb7Byh6Hn6RIPKfiQ1FfrubYU8B+sIg8AygXBcT1s0pVuCHyN8P5EpAWhFiFTOrhD+GLR5jhAAq2tERsxB89eeBa7L2BFDVse88pWvXPs5COaPtIFjeXDWrkaICoXCPJQoaJBD+pYZ+ttDk2Ashz+HWFXpExk/+7M/u7j44osfVKXfFh1m5IcmWboYxYht6HvZVshTOIwwCIwJBNOLINLWTTxtcRXCbz369u8gfMc87mLEZXBNc4UA2KjK9Yg0uR4vxG8OuV71BQpafU76iSi95JJLhvfmQsrgDW94w5DeuvLKK4f3dj1CVCgUplGioIMc0udJ8a6+5Eu+ZPjfWA5/LrG+7W1vG4zyk5/85AfqC3KEIhcdBhj2XOMQxYiIy1K78MwZ43YZ5VxsQhgEWoFg/wXr6hWhIYuxZYv6ZVXCb3+2hL8KHH8bxYjrwrWuIgQC9p8gCHjvrkN/uDZFoO985zsXv/ZrvzZ8zgZP9sqwQiZSC8997nOHeTa1tNQqA49JdjzLG6UOMo4rQlQoFA6PvRUFqvlVu/OkGTXrr5HPnJ3+liGH9B2bAfTQpCDLsRz+HGL1GdEGhJ6r9KeKDsFxc40D9Nbh95ZRzsUmhUEgBIJXbLWsrZESOSrCXwUIeG4x4qaxrhAA/UssEl/mSSyBJSgReNQS5C2O41kRESEQcZJqkIayKReRSvxKQ5ifNrvyf6tx1CJoWw+RMttUhKhQKBwN9koUIBh5UYRNECBBho/R4ukwRIgDgTNayGdd5JA+Qms3FBrL4c8hVv9XCS6VkHOwU0WHCIo4iRqHgOFrQ988tXYZ5VysIwy0oSX4HuEjIESnba6bIEJ6znNUhL8KIiKz7cc065t1hQAQsUQMwYX08/fs7IjIRWi8b2zdN295y1sOPvFRWB0jheBY5hOREaLb+Ci0NWZ2K5yzD8Eub2xVKBT62BtRcPvtty9uueWWwXtBjMi63VrXdrsMmlyn5XzI9sILL3zg2QOroA3p285XPpZxg6kc/jJiZcSlJc4999wH5WAdc6rosK1xyEC8OfTt2Q0INtq7CnL79d0cwg9S7/2M34PwLVs0PvpYhCfXIGyLeA+DbeyMqM8OIwQgFxEa8/wwLSkCnrrzmANIPASB+ex7alwypLTMyU1jVze2KhQKD8XOiwIRgMsvv3zwWhTozV12h9huvvnmgcw93uExj3nMwX/mow3pv+c97xk8MfvJA2M+lsNfJgyQvyiHBzDlHCwDHxGKHtoahxbahMD0W4S/x7ZCNvRjhG9ffbUTSFpkYi7hr4IQRPrA9tIIclcFgr5qIzKrFiNuQghAr4gw9z/vnocu3WS1jLaHIBDON2d9xz0lOuV4YC8D0bBtYJc3tioUCh/FTosCxHbBBRcMoWbVzX6uirNnzy5uuOGG4fsIelXkkL5w/wc/+MGhihsRAsM6lsOfEgYMt53meGbIJXKwPserGis6RJptjUMPiAfpelgOAYF4VvXwETVDPiZsNoG2KG1sFcOuCAT9liMyywhuU0Ig0CsizDB3zCMhfjUEWRD4vPSbpZfSIlJY+lsExDXZfGib2PWNrQqFwo6Lgosuumj4idQPAyR63XXXLW699daVHiAE7T4CQqHx0KQAAzuWw58SBgiXUec9QeRgCQT1CnnP+gxeF8K3DbKUSfbwW8JXkIkoPMtB6JvQ8H6Q/zIPf1nEYxMIQdQWpe2yQEDwiLRXjLhpIQBjRYQZxKnIFsIV3cmCgEiQsjH+yBkUIKoXkI46ysdM55RZLVssFHYLOysK1BDIeb773e9eK0LQ4vrrrx+MuOOtCkYsh/RFD5AAog0gtbEc/hixioTcddddQxW3lAAYDo9P9nlkI0rRI3yGXZuEsoPgw8NvCV8ahLBR6CVUj1RWCX0fhTBYVpS2qwIhihG1m+ctz78pIQBTRYQBc0LfGVOCwE/tyYLAnNJv+otI9BmCkkhQYHjUqGWLhcJu4mGvk3DfMSCAl7/85UM4MxPvYcADlUpgLIVPVwGvC+mrG0C2jP8HPvCBIYQb5IUA5HgZ2paoiBrGl5FG2Lwz6/btcOjF6Mvh+2m5o2NEVIJYcF75YecjAogTuWLRCcVliF4beXuOr1o+RwCc23Wr/ndcz1Xwu2POQW6/n5sQaS20CzmIwqgD4UHmCnf9LMwtJK7AlKASSldZTyT5vqLFo4TzisRoy4//+I8PggUJixh91md91qH6ibj48Ic/PMwp1yxd1Dseb99KGCLEnDCurSDQT+aXTYbMW/0sfeU+E/GyX8FRw9xznxhr870tGi4UCseDnRQFqv55P7ZP3RSQJIN59913DwVVqwDh8KwU3ln9gKj9zduJfREYYkabR/5Lv/RLg1Hn2crpM+zCv4wwQublqw7XJoYRoTD6nneP8BG/pY7Oy+hHPrglfCkGYkWbvD8Fezhoj2M4Nm+Rh4sQ5oSOj0IYQAgvK0hcf0+4HKdAcPyPfOQjw3MpiDb9RwAoNkXKIh7mgJUq2m7OrQIRgR/90R8dCkoJzb/wF/7C0N89WG5IRPL0Y+VBKwhEeXzmcY973CAyzBWrWPQPIUFoHhe0IdrjHjCW7qtCoXB82Mn0gQpoy6PW3Y99DMhaaPqmm25aaQ8DXUSkqNrmkTPS/hb+ZMQQJLJAuMiAx8gry1X7Xn5H8ox2DsUjAcdrUw/CvQSS/LHlir0cbK/GYQztMsp11uEfRSoB1ilK21aKwdg6ptec1ICxFPXRFv06t9p+WRFhoF1uSABAKwjMC6muP//n//zQN1IR+pNgVTQrbXUcUYIeatliobAb2DlRIBzL6/JUwm0YB8WLPMzzzjtv+DsIn4H18nv7t59IXdgfqTNcEdpWb4AgEUV48GNbIQdaYnXcO+64Y7jutoAslkX63FgOtlfjMAak1i6jXHUd/lEJA1i3KO2wAsGYryIEevA9/SqS0RYjZswpIgy0yw0DrSDwt5UGls/67Hd913cN4kB/Gmd9eZjNvbaBWrZYKBw/di59wFtSRW0p4jbA8PBKeFuRw0cexAgBgNh5aAxpzuH7KXfv/4ie4RIJYIS1mdAIiCTwxoRFe0TQhuKlARwXObThXP9H2n6qhejlYHs1DmNwbdqs8MznRQmQECOMSOeEvtv2+3tbCNGkXdo9t0p+nRSD93upAWRKEKx6nfra+Psp1G/uOWecl+eOBP1E0F5j0QHgSetzwiETeisIQPpBe81Ty2h9x/f1ifoCaYkQsbsCY0t8EUhqbvR5oVA4WuxcpIBHY4WA3P82YHkiz9pqhAjpr2IcI6Sf9xEY21Bo2eOMW4/bdcsPtxGSvCwSYfeq9NuHJi0Dw9tbRkkYzQ19H2XEYGzZ4qpoIwhIkvjZ9KqBHiIiY04YPykSfZx3IhxDu9ww0BMEBI0CVnOUwLFskjAiUs0X0ZJd98Rr2WKhcDzYuUgBw8lbyw9t2SQcm8ckn9pW6c8BDzMXHQIS53nzzLI3GSF/pNMLCfts9rgZP4Y7jhvgWSIt4gBhIca2Sh9R8ER5xIhuGRADokXsmQD1ib+RyLJixLb9+do3jU0VpSFF/WUcbQWtWFQ/KBAUiRFuV5S5Degf50HwIlO8feecKkYk0nj6oiVSPsg/0BMExkzKiVAzX4iQr/qqrxoKN/Uf4bjO7p5HjXUjRIVC4XDYOVGgAIqX8IxnPOPgnc0CSSN0YoDnxXAiB2TKYEsrMNJThhoBEi+MMrKPULRUBK8vnjjnGMLw3/u93zuQdl5iF8jEKtStTaIXLcH6fl4WGT9zlb7PiFoQBaIgy0BgjC2jdOyp0HfgKIWB6+wJojnopQYQssgKQnXcba5icFzzAMERvKJKwvhTy0MReLvcMNATBELu3iMetFtKyXlERvQTz1vdiXTTPkCfmJe1bLFQODrsnCiwJOtd73rX4MlvY3mS1AHjYmUDAmP4hZEJA0bYEkKrARAhj3RMOCAkS7wQOREgJOz/Pp89b6TKcOccfotMrAiAEW8fsqSdbYSizcFaHimNIfw/JyQNxIV0BNJwDS20TVukLVyvQjfX/vEf//EHnzhaYQA9QdTDKjUC69QgzIE6Ee2M1SPGxRxYFpHpLTcM9AQB0vSev3nZiNT/XZPIRGzTfRwbFR0G+nwTEaJCoTAPO7kkkfG86qqrHlRdvSnIs8rNe02BUEAG8YpVCH7G78LOyAnRxLJDkQgFicjF/8KAjeXwMyJHj3AtaWzTCEDU9B6vnHOwCKVX4zAG7eKR8mAR/hhMFeFoL4WX8uHZQB9ljQH0li0al8OuGshYdxUDIUmcTe1EmEFMmiP6k4AgQowlYs/oCQKILYwVFhIizm1pr/edm/AwZm0h6z6BsHMdtWyxUNgednLzojDCYeg3BUbFkw5tEiSXjEDGPEDvI9bwghkhZICQhWAZes9REFngyTkG0hBF4KXxqBn5iDj4H/KV7+WVRsRBlCHCwnEukQqeP9JtEVGHiFAEcg5We0QUHC97w2MQJSBEeNSuLx83Q8qF50mQ9ELf0X6kdRQRA23WFv0rVC7Fob8Pu2ogY9UIgtqPOTsRtvAZqShePY8eeTtvjsiMCQLzAYhoe3EQeAQFYaLgUFpJpGuuSNxVzI0QFQqF9bGTkQJezvnnn7+47777NupxvuxlLxuMiijEYdexB9rHKwPxERsKtREHnq2IAo88Ig5IOFZC+MmwKy4TLVAURpzktIOoAKMYz2LIiCp9x3Fs3qLPzoFwtUr1uY+n5on31uEfRcTAteWIgP7xUyQm2rFNtPPn4Q9/+DCeUlDEnNcqRaw8YOOG7Im6NiJjDHuCgEAhikR5nC8K84yH1Szmj/liLm2rgPKosc7GVoVCYR52MlLAQ2LoGMVNVUrzLm677bYhtM/AIitG8rA5ZB5xLjoEHg2xIA/vWnLEgWcrP6rynGfHeCMBbfAZ5/Vi4D/0oQ8NBlBUI9c4EBE8Sl66z+WIQ+RgRSV4ikh+bshYfzgHr1J7loGI6RUj+u42IgbGZaxGAHka06MqSssRBH0c9RbEmNoMaYA58weMpYiTvQOI015EhlB2TVkQEF+xhbH2iA4Zc/eMNFYUYYpK5X0N9h0RIdI3+kXEwD1WKBQOj50UBcDYv/Wtbx2MK4N/GDCenqPAm7ejIWPCe4rQ92GLzHoh/bENhRCZ//HokBhj5vhtqkJqArkhd49QFhXQNp/hFRMCxIj8c1sc6TuIOvY0kNd2nSEcpqBNU8soe9AmRjoXIyI3IuOwwmBKCLSpgRBER1WUFkWESFzFv6V/+m/u/BFZGFtuCMbZ8UQRCA9jHsWIIlHSBPpBeoB4NN9EeRyX0CAWrEYhJIiVkwZ9U8sWC4XNYifTBwEG15MSX/nKV679HASC4JJLLhnCu/KsSETIcSz0nbFKiqEX0p/aUIhX5zW2FTIgVxsl+T9BwwhmtEWHbaoCOWgDkheNYDjbVEX7O3EiL95uhTwXplMOfRMWiG+VVIK259RA9PsqxYLbLEqbW0Q4NX/MC4KNkOzVjoC+zCmDKEYkFswN545NiL77u797EEEiYX7XJu0T9dmHfQkOg01tbFUoFHZcFACjeMUVVwyrBZB7eOJzQFRcc801w4Y0PG/ERCQgGgJBXj9XfQuxjtUULBMI3mt3OgTt56X3DP+cHD7iUGOg3S2xIidekr4ZExbAYCLJeApjKxziZ/yuj0UgFDsqThPZaIVDrnHowbEQpz5DVrzqKWHgvIcVAi2kM/TfpvbSJ5ZcExIynoTWXOT5QxAI6T/2sY8d2tZDKwgy7rjjjqEY0Xhqh+OaC/pXlMSLoDt79uwQZToNHrT+NNb6zb2do3OFQmE+dl4UgDDsm970poE4zj333MHznrrpEeA999wzGAlbDDOcwspCugyn6ADvmRcZEYLYglYagThoQ7kZYwKBV9YWHTrXvffeOxhpYd4Wy7ZC9v277rprMHRqDFpinSo6zBBVIC6En0MQjSEiDlISCIz32RMObZShJxwiIuM4+s2mVNH+bQiBFpsoSuNxuwZRF3PJS8pgVQj/a4sVAaIXdjXsCcwpQWBu+775pE3SVvrxxS9+8fD5KC6UIkOU+7YvwWGxzQhRoXAasBeiIMDgIXueGhJF9LxypMiLQ8gEhP+rQrcBEo+KEUXYPCveOWIVGWhDjrqCofUS+haeXeYRtwLBeZBGNuY8N4WH3/AN33DwzkfRPs64B23WNh43ssjCYCxC0UK4+Tu+4zuG80hbZEE0BX2EAAmJjBAO8QqxMCYcEBRjzaMlMrxH8GjDpoVAD8RTjhDNBSFpPqgNMa7avQ70P5EqapT332jnj74goNRjtIJA/4lU8P5DFFtiK6/uuwrwEKF2iiY861nPml3s2IJgEWnRbsd3HG2Srtp1bDpCVCicJuyVKAgwjAy1kHQYLeSjboARYEzz9rcMJ0+RcBAFsN0sYmWgeyFHpBahbwZ2rmFh4H1PtTjjGYTHAxx7aBIgq6kcvoLDO++8c/GUpzxluIZWGPSWRfYQNQ6uqRVEU/AYa30rBbMKQjgQZcZKCkQBoH4SNdE3iKyNMvQiDpuAVRxthGgM2iutZB7pr7lFlz0gc/1tXqohGANBSfSK6JibOYIglWOOqEHxP1B8Kf0kMkB4iiiZd/rLPFp1XwLj4nHLUlKIVeTBdRPdBByxbUzsvUB07/KKhlq2WCish70UBatCtIAQiOIr1euZWMdCjhH6ZhDHihF74JXyjOVywwPkZVkloCI8h/8DSEjFOC+Q4W0hlE+sEC/ItRUGYzsdtvA9pIKc5uZgEQ+y4OEiqjkgBsZSAwQMT9Y5RXzUfOivORGHEAvrCodlRWlziwjnwpi6XnOrlz4KGAdjEymDHEHQDzx3/R9pIuLO+CnAJayiuNBxRNRcm9dYjUyL22+/fXHLLbcM0Tfi1HlEpjKIU32jVsdOia7pwgsvHATjrmLdCFGhcFpxKkQBIFWGVl5XDp+xzMQ6FXJk1OcUIwaIgBzSDwPvGH4yukipPY7/W07Y2wpZNASR+i7vrRUGc4sOETxv1HGQ1NwcrHYt2wp5Sgi00H6PyVbDQXRNRWQi4hCvwwqHXlHaYYoIe9Au4sM59e3U0shWELRQk2K5p3HVF/qTwLQcUVojiguf9KQnDXUnohuul6CNdIJjv+Y1rxk27srQ95dffvkgSi+++OLZG1cZv5tvvnnYF8Kq5l1e4bBKhKhQOO04NaIAeNMIFAkiIIYzE+uykOMqxYhjIX1ryRE4omLg2yIz5+/l8EH4n8eoah1aYTC36LCtcZibg+0to0TIc4VAi2i/aIHrWjUik7GOcCAAjIXIidC969eWdYoIM8KLn1puGFgmCBQSurYgXQKTmNLX5oxxN5ZPfOIThzEh3NTSuFbHNl+91Mi88Y1vHK7PXh2EkP6+4IILhvl+5ZVXDj9XxdmzZxc33HDD8H3zcFexLEJUKBR+Azu7edE2EJsGMb7y/tIIPC1GmUfPc57aKY2HjjQZZsfhvfleb0Mg77c7HQKjRJTIzzPUDHPe6EYoXTRBqLaNJGifPLK0BG+QEXeeaL/rYfh4h4hvDPoBGSJiaQ3HQ+YiFXLXSL0H5+BREycKJOdsKDSFaL82EzLanXdGXKVIDiEaqzimY2mLlEo8q6LdOVI9Cg9Zf+tPY+HaYudIfUQseF90QbTGWE9tAKX9CkN7TzdssUwQmBfmoqhOCJUonH3hC184jF1EwFyLc5tfMX6+Ezsj3njjjYPoFfFx/dIEl1566ZB6QOp+rgNz2PGuvvrqQVQti6IdF8ylo9zYqlDYV5wqUYA0GAKkYyUCLwxZRFU/MmHgeF8IAPEz2Hmddza07c6ILXy33ekQpC8QIYPKo/Z/bQiBwHgjJ2TbhvSdi2Fj4CBIUPsZZAKENx//H4PjapvveyGFKUFEsNhZkMeFiPytkG1VIdAit1+bHTPvjChVsS5htQjh4Lj6mRB48pOfPOxESOwYVwSchQMvnTDg/bc7R2bh4PuEJqHFY3asKSwTBKIoeQtjyA878j2pIGPy/Oc/f+gj7TO/250UpTDe8Y53DHNQ+kzbiTmfJxYO27/mr/NZ3aI/dxX6g2iyG6S0h7llDhQKhY/iVIkC4G0TBQwEMkK+wolBTCEMkCKSHdtLn6FF6N7n+fOyYwvaAIOMLBAHry7AEClk870IlTP8iISBJUoYbwQgLI+YwsAjfW0WCQgizsTKK0bcbYSiRRwP8fBoQ7RkQeQaeaVtREBKhHfNqE6dYy5y+/0ULWkjMsZjykOfA+MgrO+n9I+XfsyCCOEbV2OvLXMiDkL5BAHSlpYgOHrCISIOrsd1EYc9QdBuYRzQdvNIW4GwNF/MGzlzqQERiiwwCQQPFtMGUbHnPOc5wxxF4HYLdU2bgHvo7Nmzw7z7nM/5nIN3dxPG1LgrmDR+PUFfKJxWnDpRAIyAgiz5XsaTV2btfCYmBn9OyJFxQex+IgLhaKTvu8Co90L6/pYLjhREBoHgmIiJ5+n/iqXCA0Qm2hPkAJlYkZa2tBGKFo7j+hFX1AA4vkgFEkNcBEkbEYjIiBUdrm8T3lYrDPydIzJIdywiswyE2ZzHGU9FiDIQSaQq9BVBKOdvU60x4RARB3NNTYBxJQx7EQfnJ74IkRBCoj8+E7UF5iTB5loIR5GM2KgoC0xtUPTqXESW9AERZN55HsimIIKmrXfffffi6U9/+sG7u4u5KbNC4bThVIoCHi+jLkwuXIwsRAMY4paYGPQ5IUefRWBIJYe+CQFCohfSH3toUkAbeJ+I24qE8AARCy8QiSD2ECDa4Ds8SkYPweQIRQ+Wk0kjIBw1EBERkNpAcoiEJ9wKItcV6RHtj8r+wyDan/t/TkRmDIhQuN8eEYy+pxA67hSIjqkIUUb7dMOMLByckwh0HaJU5oliwJ5w0J/qNZB2pCqMtTE1VkSbuUhoSoGZi1JYalR6fWJeESHOYy4QBOanPS+Ihk1CH7/tbW8b2rIsfbILyBGiXsqsUDiNOJWiAHKxndAno8vAMmwtMcHckKNwehv65j3K/bYhfQYI0YoC8Ap7YMh5kwSAsHp4gNpPzPBUcw6Z8ddu5MnYIascoQj4fDx9UD/wNq2Dt7IhIgLLBBESIoK0Y6z9qyJItO1/15AjMsuKERGpSAbhgrQR8txVBcsiRFYzTD3dsIdeDUErHBQREkEEQ444iD7pX5EMwoFYIByMoTkmlSPdNFYcec899wwRHatNRHzsR+AhY5uI8GTEXDbnd3ljoxZzI0SFwmnAqRUFgOh5Zgwyb5ehz/nklpgYizkhx14xomPyKtuQftQ4MOJj3hWjJWcsPBuigighPJAXz8z3I4eMbFyH84lY8PohC4FcI4A0eZQEEuJtMSWIXJcaBtEL59wExoQB+F2/Ip5eMSIC1U6kqSAPqa4TxRgTRML08v3mAREV4f0pLCsqBFEQ6SRFilmAIFnXouBQX/if+XLmzJkh5aU9ajxcp77R7khV+B9BINKjn4w78Uss2HRoG9A2AjOWze4LVokQFQonGadaFDCgvELFdoq0eG0MJ6+MAOgR0yohxxz69nkGUx6YAc8gDIS4iQKFai0il97m8H1W20U6IoLgXAQCw8x71Ebn5kFOLR+cqnGAKUHk90jBMKybgHb1+j/QRmQQnxSNtuUiwsMiCyKeOKE1Z7lhYI4g0GafEXXI10mkSRMQBCF6cnGh8ULwxj9HHLTZmJjHxsucIx6lG8xJ80P6YBvQR8SpjZT2DcsiRIXCacCpFgWQi+0YTXl4RoGXOEVMq4QcI/SNyHiZjLTwf4S+c43DGNk4hvPkHL7vIw5L04gF4PETDQRP5J+Rh+gEopSCGKszWFbjMCWIEFGkYPTpJjDV/yAio1+MmQiJcbRWflOpjIDzioboR6ThHHMwRxAQUj7j/+ZUhsiVYtjwWnNxIRCJvtcTkgHzzRiJFomciDqIStiAahsQiSKcbNe9jxiLEBUKpwWnXhSAAi4RAuQsJBs5fMZ4iphWDTkyML5DgAi359B3rnEYI23Co83hIxyV+SISQuc5NWBpGI8QeTofUSJakWsQQpgA8oi88BSx9gSR87mGSMGEWDgsxvo/FxESOk972tMGwl61GHEZjBFidW1y/cZoTlHaHEEA+sv8a3eSNI7GTRQARHAINikLY2YMRZDa7zmvmgcRFBEI4208FZESlOYO8eQJituANJc+E/XYZ0ylzAqFk4wSBQfg3QrNIhaeQs7hTwmDVUOOvi/Xi7AdH7Ey+IwOMcBwO34+R0bO4SMqXjuDrxKewOilBoT9fUaI3UY9itgQQ9QgZIEwp8YBeoKIR0XgRApmajnkKmj7X//xkp0vFxFGRMbPOcWIy0BgOCdvPQrn5kSI5goCYw2IPsP12ZpY2sC4gPnoOoyraEE8AMkSQ545sidWpJMUHhKXxAHB5D3jovbEMa1GIHC2ERq3lbh5OXXd+wJjO6eGqFA4SShRcAAEExsKITSkl3P4LTFl0l415IgsfA5Byw8jdt6+lIDjtBsKZSBwIWAeMk+Z4eIt8s4UqUUhYob2CTEjenl3xOb4uQYhC4SInIzVOAR6gsh3cgpmU9Df8uceCkVMITfX0Csi9NmpYsQ5mFpu2BNEgbmCQH8bdx41QRMevrbGEkLevja4BsWqxl2tCMHguvU1AaQ9Uj5SBLaL9tP1e4/QNI8JG/tNIGyCxv/bdMUm8Na3vnW4JmLkJGAqZVYonEScqgcizQFPB5nxpoXj28cZ89AZ/XgIUQveqdz6socLtQ8v4sUz9giaGGC846FIiBoZePkckmKciAJepr8JCUN5zjnnDN/pwbUhK4Tdaz8S4mU6j2gEj/gZz3jGrOJBKQuCKp62KOQu+qKA87CIkD3RRqTxisf6v4U+yQ8FQo5THjJiFjFCusuebkikGGvnMFYIpCcI/N9xjaOXPjZ2RJli0PifOSYKoJ5DGgvhe+lbJCtaYd8Kwkj4f24EJOf3tZFg1Y+vf/3rD97dDLTzxS9+8QNPajxpkIYRsamnLRZOMipS0AAZR7Edcmtz+FMRA5gbcmSUkU/kLr0YGj99jxhBEAikt2pARCC8PuTIuxc90O4xjxhZiQY4hmts24+MeJ/ISgSAOEBe2oC0IsXQQ5uDVbTZLqNcFSIOvGT9r00K7Hi+U/3fghfumsLbm9oZUdh+leWGrlN/Ey2uO+oAzIGxkD5RJ7URBZHZw9d/+vm5z33uMJ7miDmgHx796EcPxzYXiDTfm4LjxPJTKQZiQrscWxrBJkMek7ys/1bBW97yliF6I4pzEjEVISoUTgoqUtABY44g7OgHyJtBDs8dlkUMQDQACfie8HUL1eyKDuPxygx5RASQN3HA89cOhN6DdICXanLf4XXmdraICAUSX9Z+692tc+e1+l27/ESahEkvgmAzJf2FbERb3ve+9w3hZOebCxEBnr1x4Nl76f+MOf3fg/FA1FZs2BwoPD5Erf/0XQi51sP3e/u3nzx80Re/i4wgRgTvfS+/a7/jvfe97x28/jaKhLT1tW2Mg2ykP9797ncP7xE2+tYzC9QDEIktnD/mT0SUXIvaA1sPE5EiHyJC2kN0XHvttQffPhyIIs9SsEGSPtS3vdTOSUAbIeqt1CkU9hUlCkaAcHgGCAm+8zu/c/DeeFmBOcS0LOSICOQohZFbQ87LQ4yGaCr0zRNFcshDaBkJj3nnSN1e+IRILIebaj8PV9RCdT8xkVMMUwIhBJHrUOSYUzBTkGsnCBx32V4D6woD0H7jom+Ru4gQsvazJfyW4PPfxk50gWgjgkIQGe8WiFMUp1drIOIj5B6rDcC4EgaxBDHC8lH0CFNCIMODkKSmQNQFab/5zW9evOhFLxpExmFgHL7pm75pSGk89alPHUSXOWK+TqXQ9h1tyqxQOAkoUTACBvTee+8dCJZHhXR5eZHDD8whJvl5ZEEUMPrZkIsUOJfcfS8krA6A54ikpgxt5PB5LcLUUzvK5QjFnPYLlyKnNgKxTCCEIPI30eP5DWNQvyHlgvRc49yUQ6/9QfT6OQi+/dtPtRvO69qkZqwIkZLIAqCNUGQ4j3O3NQS9CBECkQqIqFCGSA9yybl/n33/+9+/eOYznzlEBfxtjBG4qMIcIQBSD0jaHDR/iRjXZezMNyknWx4j83Wg/z1YSXrmyiuvPHj3wTUyOSJz0jC3hqhQ2BdUTcEIGGIGlEEVDva38Gu7Dp9XuCzHLQ/Pk0AWvEUEgLwRkbwu8Np7+xM4p+/IKTOsvttbh48QEbAwM6L2v7FiL+3kvSM1x1zWfhESpCYcnNMguQaBcEEAeRWDa+Z9C637n1dLXPLx8vxIiwe8LDoQhI/UpFeINd69in1CB8HmHL7PInbHFPmJHL5+9XlC5dxzzx2OLYWgz3zGta0jCMBYaFMsW7SigBAjXNpIj5SA+g7zIF83Ealf9S8gb2NulUevxqQdt97DoDxCmXjTJz4vDG48CU/jRbBOXXML8/LSSy8dSD8LAnAt5paf+pX40rdziyP3BXNriAqFfUFFCpaAUSUALOeCnMMXTg/0PFaGtvXoGGREkEOOOaSPmFu0NQ7IjBFCMEg0PHPnkMNXwObcohxjQMZIiyfqOpZFDDyshyDiUU6RNrQRBGKHwdRu3jPyyR6syADhFYSv7V5+b//2M7z4/JPgQJbajyynyE06RFuMgShQwPHnhL6nBEGGa7v//vuHaz///PO7xY32GyCo1G0EiCgv6SB9iFRFXRTwjUUEMiIFQ9y4Dn3k2giN22+/fYjaAGGhmJKA0X8iJ89+9rOHeTaVJ9fP0l485Je85CXDcxiWgQjVJiLHnNV3Jw3LaogKhX3A3ooCpMZg8sIYNR4I44oQNgmkxgDK6wZZRg4/vPwAYlV7gOCEeMdCu72QY1t02AIJ5RoH6BnaWEaJFBHWFIFE0WEsi1wmDJCBvRja655CCAQvRKcSXp8gplhJkMm/R/jxM34fI/xl7Q9iXLbc0LgRB20xIswVBCD6Y+5or3RIW5QmomIea2+AYLztttuGsY6UDEFISC2b22MpGN8336KWIG9xHCss9InrIfyIGQWTVqAYH3OEiDM/tdn/RVikMlbxjPWd+eolWqMtJ60YsZYtFvYdeyUKEIy8KMOFZOTQhYEZLZ4Ob5ZXz/jydubuUb8MzpWL7SCvw0dmERFA+NrJqwuy7SFX6TMgIIzLy5efbYGgEEzUOARaQ4sMGCbepfZN7UHfi1AsI9a8j0NAG4LUw6Nv//bTNesf1yJKYnyQnvMsI/y5GGt/JsYsrKYQERnE5Tv6fa4gADUB+tV1ElS5KE1qQ8pD5AUxx/zh5ZvTsVOj9wiUqQcYERY+I2WAaLMQzKsqvB/tt3wwQ5ve9KY3DaLFscwnIiNEt/GRRiJiXftYamoOzIc5EZl9BdGUa4gKhX3C3ogCYc9v+ZZvGQiTwWeYIt8aQHKMr1wng8wAX3DBBV1yWxVtsR2P+c4773wg95wjAsuINSOHHO1Yl0P6LXjaIgqWfbVoDa1nNyADhM/jG0MvQpHbjwgywSMgKRXh7nbjnTEP3/WJaiAjbdNGYXN9473wiPVfb5njqmj7PxPjKp5tICIyrkMxop0ol8EWxq5LCiCQI0SOKbqFcCOipC+kiqK4EIhgYq9XhNpLwQSMDWIyNq4biYcgIFR8TyFtwHevuuqqjW1NPQeuW78S9G1EZt9RyxYL+4qdFwUM32te85rBoHoGPA9qDniGN91000C6iqCycV4XZ8+eHQwq8mbQhGd5f1YORH1AYBVhkEOODHwO6bdoaxxaZEPrWATLxRdffPDfB8PQI3V1CLxg1xYkb6MftRNI2v8y0fNyjYtoSLzX8/AJCG3RX60HKwWDqB2bwCCyeMWbEgj6nzDkdSNYfbuud6ufHEsESEpganko8PYVBArT537Rr8Ya0btOUZwQkhDPM4gojLllE6QnPvGJw9+BZfs48O4RkhSE1TLaH4IA8Rpv3xEJUOQocmOzqVe/+tUHRzhaRESmrZE5CWgjRIXCrmOnVx8gHkLA2u63v/3tDwpZLwMDSAgwNNdcc81Qb7DOfuwMeewMF3UMDK0lf0L9iDQ/zjggLeB/jLGfvar+AOPNEIpGCPk7HwOCbFt4f+qhSb7D8BMOlrFFDpjQ4KH3dtrjrYYA4L1qj77mPfqufiRCXKPIgWiNvuCNIrFWEBi3difCtq3qCUQzkKwIiGPq194qBm1ftWpdVAcxexFmrmkdBKFqv5SUdk7tjEiM6FeCiXeY5w+CIJB8z7USQuaQsdIHxiv2JABRI+FnczmgXzzLwHv5YVABBKS9SB/BZkHgPb9733HMNeP6qle9amjPcUHf6lfzcN1nVewq4j4WvTSP152HhcJRYacjBRdddNHw84Ybbhh+rgu5+Ouuu25xyy23DB7rMjDkkeON0G54dL1iO16OArreOvxVIgYRckTEU/UAoiYiIIQJUuXd5xB/DunzwggBtQ/IgEDxfuvht0WHgbH292oc5uxEmIEgea3SQCI7bQ62XcUwN4KAGIXOpZhc59z+b5EJta0hMC8Iq1yMaF6oudDXREk7fwghfcYrJ7AiQkQIEA3EV6TEpHX0iXbDWBFhRruqom1/1Dio7QBzNqcqdgHabA55naRixF4NUaGwi9hZUaCGwJautnnNntK6uP766wcj7ng9TAmBFr1iOzc8Aoyag4xVhIHhEAnweQaRJ9kjfEYGiTOcQfBePcJ/17veNQgJhCNUj1Ta0DfSHVsWOdb+XOPA82TI9Rvx4fxzoK8JA4SIzF1/Lwc7VyD0lhuu0v8B7ciEOoYIffu8toloGJfe/CG8jEn2yglAu1Ai+ec973kH7y6G99QuOK552ysiDJgT5h/ydN3Gtm1/1DjoL/3sM461SvTtKOGaXLcxN19PSjFiriGqZYuFXcROpg8QwEtf+tIhrLkpoyVMqiaAsVQsBsg1h3aXbQgTkKeOhyYFefk8D5nn3hKV40QqAWELk1q7LgzdC+k7BmLRJqFlIUhhR+cjAnjziIWnJ8SP6BGgjVQcHzlkD11IXrEdokIGvdC38/mfNEJbmJjb72f0i37QbqtB9ANDpz2reHbEA+Jy3aIvyEAahcHMNQCOT9SMbZQk6uAY+lb0IgvJsfaPYa4gcF71Fdqizf4mFkWMzKN8Hp6+uUaY5LEx1iIC5gzh5toILddD+E2lYMB324c4te3XT+aa52iYt9qozTlVsWswh4gW/UHEEF7uz7xh1z6CKDVHY2Orfb+ewsnDTooCHitjafvUTYLBdGyiYFUhkIGoEajwL08eGGLfdbPbo0BePRM+UiB2EDJjLx+PHJBiS/h+CkEjakaf8eAttYQvxcBDROJTRKy9zserZWQdu2doEaaqeNfShqddWyZW4+NaHFfaA+G0q0HmwvkZSv1kHPTJVA62FQjI1P4QBIV+dE1tDULb/rFxXiYIekKSF2/uWOmiL8wB6QNtN+fMB8RNNDluhvEzH51L+kH6iLghCtTAqBvQ3h4IPZ/9iq/4igdWHrTtFyXxGTUO8vXmiggPAbFqncZxwFwgYvx0ve4jYnEf2j4G84IIJCTdR+ZwobAr2Mn0gbXbQtLr7sc+BuFT3tHzn//8ITTbC8X2oIsibO/ldy/5YOIAwXgfaUcuGUny3hkz73v5Hckz2nNC2RHSR9BIohdy7NU49MAztIQyctIKuyL0TVB4j6FSQDi1LFIk4a677ho+K1SNjIifdh+HdZBTMHNzsHm5ISJclmKYSiWMCQJj65hebWqJuBLhUf8RUSNzI4e+RRP0e7tmHTl7PelJTxr+5tG/5z3vGb6v/9Ue9NAuNwyh0bY/ahwILYLU2OpPc3SXowRT6G3Yta+oZYuFXcTORQoYLksJpQ427Q0gLN49ko0likH4jOZUSN977V76yAHJMLpEBg/fUxR5do7DgxNizx7+XI8VtJfoEHXgAfdCjlILws0M/ZhHCeHRWoeuDwiWWEngu1H1jSgRqnHIz2LwXXvpe0npEBk8de0XsfA3kTFXaPWQUzB+j0p/Y8C7EvEIIEZPDUTSCN71LEsx6E/v9/q/JVSfX5ZaMl98R7oij2MOfYum6G/RmTxu+lwon8duXomMOKe+f8ELXjCIBcd3rgxjJOqgnQpNo0K/bX/8bay0jYiwPwIRKGpwGPF2nHDvqi9wv0ZExjiKyOwbjEEUqPZSZoXCcWDnREFUZNtTfRtA7ow8Upki/F5IH0l5D1kiIS9GGPEgogAjhcgZdjd9C0a6R0w9+D/vyE9h5l7IsVfj0IPP+T4PFNn5PAJrDa1rJ4qcQ1+4PsvgGCzhbNfatn/soUmrgsjhPTkXsdHLwbbEiLBbTAkExthxnUf7Hce1OI62z0ktGQPfQcBjER9Cynz2fQJDmoPQ9TLHzUHiy4vX6/P6UZt7gkhUwjlFH3w+0AoCsJ+F9hICaj58x/cde900z67APeoaoo8U77U1MvuEWrZY2CXsXPrA1q/C017bgCVhQqpWI0RIn5E5DMY2FMpbIfcwtyoeaURIn2fUCznysKUm4qFJY+DpEz9It7eM0v8QEVJ0Dh6vzyKVts6gbf8qD02agnbpO5v/hMBQpc/bdVwCDvllITYXhA8RGKkAx9WHkeLJqYEp5C2Mx9A+7ChC31HQSZQRaFIw0iVW23ieQBY5IZL1gyhCXlUBPUFg7OIxzQSOZZPakVMVJwnGUb8SfrE8dB8xN2VWKGwTR7en6UzwCrcZ2nRsXgXDigQOKwiAMVYAhSQzPO7Ye7zuHhApQmXU2+9myIkjKcZeuJi3jiQ8ChcRg0iG62Icp8BoCvOLdvBYCYwMpKsYzf8dG4Eysq0ggLb9PB5ELRpxGCAw0RliiwgCnqE2IUlGE3mvA5EG3r+X34kEY4dweZ7eXyYILO9D3FOCQERCqiYEASgc1JdRSKhINTbUEtb32Tbq4ToJToJCfy8TBKIBrsfcIxJFKIhSc2esRmHfYW66J1yfaJAnUxLS+wbzWm2K+9i9bXOvQuGosXPpA0TE6No6eBvgdQVJI0fGw83Hy1D4I6TrpvSaC0IDwTL2vL7YP94xhAKF3hnzXr6QIWhD8T34Pi8iQo29kKPPIFIESvD0oG2EEOJQVxE5fMIj70SoNkKdhM+JHhAHEfrOaNtPFMypcVgG340UjLaJQCBBnrRxWjUH29YISHPwzBTc2UbYzof6U4g/1yC014t0hKzVEYwJSpEMYyV3Hzn/SMHoS+SubsBx1ByYewgcseVjek/ExJzi4Wu/dhJN2tYKglzjoN1SSqJXxk4/7eqeBJuCuUjYcSz2eWdE86OWLRaOCzsnCnhQNtt5znOeMxi+TUPqgFH11DlGxDl4iYQBI0wwCLGrameA5wqHsWI7ROPGJnQih99ijjDQznYfAcaCJ8nLRAixZa7wfyxR64F4QI7hNSvYc+0Ek9B5LINDLPpG+xHzmKFt288bnlPjsAwiA9rJOIqExDr8uTnYsWJBoVnjrB8Qqva7Pv0mJROFlFGDEAJBVCGW901dV+TwzTOiSjvNa+3nyTuHPjRPfIZY8H81H0EA7XJD59evUZRGeLnuEARtjYPPGDcC0cqQfS4uXBW9YkR9tYrQP25orzlpHNsaokJhm9jJJYm8N88rYEQ3DTl3UQj5+SkgQ2QQLx5e/Izfed1RlxA5acQqDMxj9j4iB8Q9thVyoM3R90DUIH8eUUbeKQ2h9GocMoSj5dURL2+VAbWjnr8z9EPsdMjYSk94IWnEF9cHuf28cEJjWY3DFFwHombUkWN7zb0crHEZWz4IvZB7oNf/UYOgvwgyaQ1haga7h8jhG39tVzwYOxEieddifgdExvS/45oj+pNAQODGUjsztP/s2bND34pwxE5/ucaBEHFuS0S979wnPUowBveqvjCG5uu+7YxYyxYLR42d3LwojPqmi21EAO6+++7BcMpNIxDGtw0Rg/cRa3jBvFPkgpAZWIaeB0fB+4zPI1BRBOqeR83IR8TB/4gCHp4bOyIOhEV4MK3H7e8WEXVAOpGmgBxy1C4E5vu9Y4DQvNC07yAX39de15eP67oiQuF/ueobmWl7eOq5/VZK6AMet++sAv0Syw3j0c+9FIxohbboX5EJoX/9PbZqYEoQQG5/9L+xIgAcG6mICLURhJg/iBrxa6P5ZYwIAMdR+Nfz2PWh+RR1Gz5DKIiy6LcckYn2aw+xFREi8wqI6LxRkghX+5Cl04a8PFSURp+ZH/sSkjdXcoRolZRZobAOdjJSgLxf9KIXDY+YtURrU7B1Mm/ec+PDAyQ+EHZ4lGMe4CoQqo4NhdqIA89WG9zcYxEHhh25KRZDiMRJTjuMPbwIokrfcRy73VAIUfD0eaNICHHHg5cQGi+3txFSL0IxVvUdHjfvHsnlhyYtg/bwjAiNHCni/TqWtsa15YiA/vFTJCbakbFMEGS0EQPhf+Scv9fOH6TDaCMcYpaAyPUB7WORwXd5sVJZCMu4OQdR10ZkjGGv/TakIlgs4ZV+iDy08fCcj/yQpcJ+P6bZOLs3ODX7FvEo7A92MlLAK+f9MYqxydBhoQDvtttuG0L7DCxjL1TOm2PQeznkXgRhDrQ/iu0Y5BxxQKqK5xgkpNeLOHjxwHnLvEZeZ0QcGDUiAkH6DOLJEQdtJiR4jwQAkud15iLC8GD1ATLyXSJFfziH+gntyehFKIgYBOyn9jFazu+7rhWZaovrdY3LoC2IDwnmdfjAszMu0Se5RkBEAHm6nl4OdhVBADliwNM2ju08FEEwtvpDH1tKK1WgD0UTkE7MH9ff89iJAAWd6h7UOKjlIE6NqWPniAzx4Jpy+4kXfS6dQSgaN0JTW6WxTkNx4aowtvp1H4sR2xoiTkyhsGnspCgAXqm9BBhXBv8wENb1HAUh1wsvvPAhG55kA8/wbkIgjG0ohMj8TzEaz5FgcPw2VaEtlqshSmQhKqBtPsMrJgTkuXn8bXEkQYCokRni8Z7/OR/v1zkC2kZ8OR8gVoSib0QSAq6fsCA02rqDMLTOF4aW8fI54sU59Gn7vQyfy8QY0P9RLGgcES8Dfu655z4oNQAhiJCwa9Zf+nYVQRBwXOLCGNogyZi1iCJCEQrEcumllw59nOePPiNgRH3yHDKu+lJdBIJqH+IExjmEG+FhzCP0LRIlTUAQSdUY73vvvXcQX86jP09TceGq2NdixEiZsWGEojazHYXCprCzooBRZhAVHPo9SGtVIJKLLrpo8Ch5oLwp+VaEwdi2OcZNCQQ3KkHDyydwMnhwbm5E1+bwM1x3eKzCnF7xHuNv6RsSFK7uRRyQM6/adSIt7RcpiIgDUmIMGRjX6Xva7Pp7OXx/ExlR/d+iNbQ+42/ndC4GzDkyeLYEUibGLATaiIDQqfbHMsoWrjvnYNsq/bngiRGOiNVx9Hm03bUI4/rJE9d/lm9qezt/iDX9YSzy/LFREaJn4EWMemQUEQ796lkgOSJjPprPMbcIOREDqSf9aW+CKRFWeOjOiG2NzC6DbYwaIvNuX2okCruPnRUFwGNkWK+++urBoE5V0/cgZSBCwHtDmMK3yI/C5mUirDC0vD4EmAn/sAIBiTLgvuc4GUgm1uH3cuCBEAHIIRMTMAY5pK89xAgC0k7XY3dBbScOeJSINwsH+XDRBgTMa0ViSJdYQIr+r52uwXsImkePpHtoDa2+NY7EmXC3cHmIIO/xdv3f+8agJwTaiABRgpRdn1B9D9rg3MSPSNMqhj4v70P60f/6lsjLKRhzQX/20iNIn7jxAK4cQfDQI9EcgqNNkwR6KQ99oF/1EUHi2pGB8SCuiF1jpJ/9TQhmUVfoY1+LEc1pwriXMisU1sVOiwIQQmc4eVZnz54dlDwSRWhjQGx/+S//5cWtt946bHaDVBhTNw9PU6FaKGyE5H/LcozrCgQ3rjy47zpvBk8OAfdy+BljwsD5ckjfT96OYkN95kX0uH7XxXtWHMcAMiaOhWBdv7A870N6AcHpd+SNuF2DNvo9igsRLmKLiIP/65NYVaH/pE5cF0FCeBBI+srxfR+xa7d2LRMCGT7XpmAyglBdY67Sd8w5cFwFrkQj6ENRGeF5x3jyk5889J0VGa59rO5FVMV8MfbmD5HoOMQPQaHPevNnqgZCP+nfM2fODBEIj4wWDVGAidykO6zYcK5l+zgUHgzjnGtkeo7CrkHb2pSZaF+hsC52cvXBGFRT87IYVqFSoVOhVYYPOSIoNzMSUoUu74z0kReP1HdU2CM+Nw6jzQjEI211Ra76FpJnaKfQVqE7H+LIoW03LMMtBNwCWb7vfe8bCAg5T6GtigfnfOc73zmQAHIRUu55rUQBYeU8yEzKIUco/F+xHBGVjYo+4v3zQgOIEPmIOvBQnDdWUvgZvxMVhBAjSyzwwvSFtiJyxK6t+gu5rwrX4eUZCSESxwhV1IOgcR1E3xhEXvRpED3hZz4QOISA/tD/jn/PPfcMZJxrLwKu0yueNaB/iaBIe8Tx2/mjL4gvYqkVBPpPlMs5iQxwPxC0vkuIEXkEB/T2cZgL9xgRp92Oj3y0qU2FnWTEsyqIOgLbmO8yCEZzxFibB4XCOtgrURAQCeD9UcbZaPHuhMjPOeech3iZQSBubvlyhp0HxVDrAmQRhhapMb6MNZINj3EZpgTC2EOTAFkRBkh22c2chQFjxWiF4T///PMHAh+DsDfCcU2tIAJ9gcBFUzJ4o/pWiD+AZBFxb1lkQB8QByrveV1C6UgWMToeokVkIRz8bH/XZ1PCLC+jHBMEAaF/ufdWEAW0zZwiMhCiOcZT1F9B/NH/2mau5WcbBITw83JAhlp/y/MHqfdC0yIHhIa6AHMzzx+RDnNE28Lzl0Zw7c5DgHiIGNImfvP1tYLoxhtvXFxwwQUH//0ozF/LgEXRXL9+DNEtCiQC5bqJDqLbvXTSYU5lR8Fc2GVP3Li5j2vZYmFd7KUoWBdBIELU2eMeU9gRKmcQ8zr8OWgFAi9L7lceObz8DKSZ1+FPATHdcccdgxBCSowzQ44QlkUbXDdSEdZuBZHrRCyiBTkkr8+QhYI4RAWuKXY65EG3IAZcu5d+dDwRHNfvPe3VJ4hSqkIkYU7Ewc/2d969qIM+HxMEgdjHoRVE+lSah2gjDPJOhC1ESRDteeed1x1L84wwQJ7GVATL3HIO12n/hhatoMnzRz/w3PV/iDDizvipGSGsYh8E/UHMEFIILCJWIYgcT7rmVa961YOu7fbbb1/ccsstQyiaOI3VLhnEHFEjLWGnRNdkNc8m9xLZVazrKBwHDhMhKhR2vqZgk0BCDD6DzeAzwggNQSKZNgfrPeTh56o5xrYGgVHh7SFDOXFGOx+H5yjiwZufCtFqA+OEPBAmEuPN+bu302ELoXtRC4acoIgqfR6k40hnSA9kQx85fG1HggheP/GYRF8QCWhPb9WAvmCo7JxIVPi8vhDl0bdSK66f502U8Y71gSK/3qoKgiRqHAgtx5EekkLSzl6Ngz5Rj6LP2xysdtucSR86pj5E6G20CZCzSBXiNF/Mn/y52LkQ8etnY+qz2i1CJaKhXzJaQQB5/mindptDahBcF4J3Dud3LbEPgrYQhua4Ghn9oG+N50033TQUf4bQQm6OZSmlOXDZZZcNhbnO2StQNN7GH9G4DoL5rW9963DsEIsnFe5XIsp84UDscjEikWgOGGu2gj3LIr9QmMKpEgXAqDGobmZkE8IAETFsvaK0MLQM/DobnoSBZ4QZa8TjHG2RGa+OJ8ujbD1URJeLCHmNjhntZ6xy0eEYGDIGgrFw/Ug4CyKEgMwitB9AEr6L8BE2UnFeYon3iZjaYkH/914QI9ILaKOcresXLdAfY4ZWu7TZODhmFg7ai6hFG4gF53aeVjggcm1FsLGPgwgGj8qLF0yAiB45xxgUIRpHfedz0f8hDByLuNK/5lMsN9QPxle/ZvQEQQahh4wJKtdqnIkOkQRCy5g7drsPgjbwZn2OmDPvYoyJJCLCHLviiiuGcZZSWGWjI9crbeF4lg1rlzE46WgdBeF6/Z77flfA1rn3jL/5tYsCprB7OHWiINYh89oQCCMdhp0XPaWwe4bW9xxzLhgUnob8vBwlTy2vYmBYhSijII3RJ0TyMrggoCDJaL/rQUpB9GMIbxqZImfGIgQRwcPz0wetMHEO7dGWWMaIYIkYIgAxIWvtQsax3LC3Dl+/aqPrJyqEq7V7FUObCdU+AYSa7xMZ2hHCYSzi4Fp5u8jVubXFtREOvVUVhIXriLqQtv8JG+fn0fPinQ8cX7rBxkzOG1gmCMwL40BQRa2IFAxCf+ELXziMnTaZj64lC0zIy0ORvnYQBOYQz1etiD5729veNlvgtjCH9YNlw/LYka446XDNOSKzqqNwVGDDjEktWyzMxakTBYCMGGJeGLJwo4Rhd7NPKex2HT5jH0JjLqwvR94MKuINDzAEAuNNJCBWP5FbPM64RSYmNz/hkkP6Y0CCrt/3vRizuCbE49zaFuIC4UgNiFQgIn8jx3hOAoMTEQrEKK+eibEHIsy59IdjarNjzjG0PUI1TsZtLAWDMIkRx9XPyJSQ8twAYse4IuAsHCLi4Jg8cuMfBYmEg6JAfURkarOxUBfiWAF9YU7llMwyQUBo+Z4aDJEmyA878r2xfRDaCBQB8I53vGOI7hAFrkebnUNK4bBEZv46n9UtlmueJvQcBbZgFUdh2zAH2pTZLhdLFo4Xp1IUQCYQBWdBrCEMlinsw+QYheIVsvleFC/mHDLj739uYkbHy0085jlnYcArRtxIx/fGEISBeBB31CEgL8SBXBC2z7U1AooLRTMQtnMgdyJHf/mssLwwvPeXwWekc4TkFc65DtGSKUM7RajaMJWCcQ4/tVu0w5JB/RCCiKDxPcfRFuIJmRsLex6ISLQRB+Ple8Sc9xG1vxlg9RLmmHGOiIPrcV3EUE8QqPNA/qIvuQ+1nfDSVtDn5ot5k+ePNmSBcN999w3XLCr2nOc8Z5ijCPzVr371SimDKbiHzp49O4yN2pDThNZR2MWdEc1TczDXEPXqRgqFUysKIBOIortWGMxR2DyunGOcW4yIbBAGgnA+8F15X0YGWTHwvFr/Vz3eeoAZWRggLW3x/SD7HpAS8uDxBoE6PnIjhERBEB6PP28oFAYvtkJ2HJ+zZE66wLMCCIg58DneOxHEA8793zO0cY1jHjZoJyIeS8EYU1ESUQHnCYxFiBhRf8fyQ/0fNQ76yrFV/b/gBS8YUh/5WRXmDSI3P3jo5pr9IKRuCMOIOESqQludn/gS7QghJPrjM7G/gTkZxYUtWoFglYhzEVnSPSID5p2iwk3BnNVWjyZ/+tOffvDu6cI+FCOyO+ZiW1RdKAROtSiATCAMcZBOENNche2zCAypzM0xyu1b3obgectRROjlxtUGZIu4rQtvPcBWIGiD7/AoGSIEEyH9MfCCESTCUfgXEQGpDS9ChcFvBZH2IUrfBQYQGREkUxGKHqLGgRedV4W4nmxoeeA26/E+4p0C42eJoTSIvo0UjL5yfIKCCGjRRoi0yXlFPvRDhoI/RYz6wt4Yxj/mj2OIuBABNq3SHtdBNPicZZ9txEGqQn+KYCDtKI403sbUWBlzc1GUwH4E5mIIhx6MCRHiPOaC+Wh+elwz0bBJ6GP1CepliJLTCvMhOwq7VozINowVVRcKp14UAIPN6DKwbpAw7EFM8Rk3+TKFjRDnFiPy3pAuj1wxXi4iDDDkvElepLD6WIg4BIL3nc8Nz8N282t3C59HdsL9CFmxnzbw8vWBdogCSCGINjhHK4gYFx6sFMSznvWswbNFassiFD3oX99F1K6z7f+IJmgDcl5maF2bfnNd1vIjYt9rtzDuwTFFE/Qt0Sav77wBhYSOQwAy/nL74bFrb8wfXjmBR/T0Uh7GKyIOvqOviSCCIRdHmiP6Vt8QDsQC4WAMQzi0EQdzg6DRxnvuuWcYS+JExMd+BK985Su74vYwIBpFtMx5133aYVzNO/0x11E4KmiDtrERtWyxkFGi4NfBM2a4Yy/9yCe3xDRXYSOfHPpuixGJAcbc0j8hacd3k455V8iAt+sY4YVP5ZCRjeuINfw8fshCINcI8KAdT0gbyWX4jGtl5LMgCmJEoNpHBMkli04gpmURihaO61gEhmJDJBb9j0iDUBU2ThnaSMEgTQJH24wXUvV5IH6WQXtEGZA0sg5BlFdVaKc+cLwsToyn8xt3EYTc/rGUB8EjnSQikSMySNaxCBN94X8E0ZkzZ4a501tVkZdjEgRqPPSTcSd+iQWbDm0D2kaI6fvCb6DnKLiHpiI8RwX3Ry9lVji9OFU7Gi4Dr9cr9tIX+mXMY+fDDAafsY2tY6fgc7EzImJBmkgl0gQ8TcZbjjsXlmU4xpytkBme2AnPdwgFosB3/O28xAzR0MIGPkRBW3xm6VqkBYStGRFpDYJEgWB8hgfuc1M7HS6DsD2jqV+j/+XrtbklVFNXv3o5NzIUskeU+foIDTl4Rs/YtmmAHswDRG0lAaJDpmoniB5t0x7H1dZeXt8OkK4fqY+1P0B0tVsYA5Em9C/Soe0QOxfOLRB805veNPSPcReBMfdEFsy3bcBxiSY7JBYeCmKaZ75rOyNKXbq33f95p8/C6cNqMd4TjvC6efBACBAEiAlBZSACIWbGn3c6BWTqZoulhrxy342wPi+TR4kQx+AYQr/y5Dz+MVD6vH8vvyMTx1UvwMP2fk8QANLyWTnrDB6pdvNEkRuC5b3m42gbAcKrlusWiVgH2qCATjgc0SNU/duLPCB3ROd/ogE+p5/b6yOIjJ/2zxEEUTwYJO6aEbw+JNr8rY2iLj0DSkzwAo3pVPtB3YL5Zo+HLAgg2hCCQL8TIausGCBizGnfcQ7jL/qxLRDTRGOhD/e8wl2iGRETUcvsx1FA1NFyUvc+UWdeFk4nKn3QIOfwIySLEAgDP/0dYMRzUZrPt+CZxU6EDLxlbfLtbei73VCoByTP4CqMbNfh91IDwvkKyhAhUiQseL25BiGHveUUIy+cj++aRR4cW+hZdTmyyyHHSMF4zyY28ts8eedcFc7Ha3EMhN6uSoCcgiEMnva0pw1Cq636DiOn3117TsGMQfqBgLKEzxj5vmuT6zdGPD39QSz1Uj76gDAyxkREr/2BsRoHfW3cQnQQA+ob2lRFC33OGxUxEoFwzcaToFGzYe6IWKkB2QakufSZiFZhHMQBAevnrhQjsgfa5J5h0yJlVjhdKFHQgQhBzuEz5GPCwE2MjNplizw0pBDL4EQW4nuO2csxEgMMt8+15BEgQmIZJaLq1Qjk5YMgdIwUpA+ss+c19ooUXQsSY6D8PwiPkfc557VRjvP0BBED4n/ag8xc/zpFh9qhsl+7eC+uI/e/XLnlkM6nHkJkAIH2DK12C9MieW2OZZRjxo6gQKrIl8BwTt+PwjlzgyDQ34if8MhQF6A/RBIIJkKwbX+Mi7GGtsbB9Qn5qyMwLmA+6hfjGoSvXkUYWu2IeUasSGl4j7h0HQST9whPqwIcs/eI7E1BCsq8jChLYRrmwlSNzHGAEHcP1bLF04kSBR0QAy2BjBl2yApbrYEQOkPMgCMtn2+BxJAugxDr8IV1Hcd35eZ7ZIoohe55yDxlpNQTAhnax7NH9HLliM3xe0WKjs9zRezaRwi4ZkV1SEn9gz6BniDyHYJI5T3xw7Mei3z0wNN1Pm00Doxl9LcohadDeh+5uYZeKDwMrWtwfn8ztPoKUSNjUYD2u4hU7YBj6wtka/yIqoD2EARC8T7TRojMGVEMbc7EqA15/iB+486jNhfCw0cKsYQQ+WsDsjCvjDtBEoQfQshcdT1qR+yP4GdEOvS9NhE2xjCiOf6vjzeNt7zlLcN1n7YNjA6LMUfBXD8OuFfM+2VF1YWThyo0nIBcH481P844it96xYeIFVkjTmTCk5yLXIxIDDDews6AqJGBVxQLMhhEAS8zk9YU4kmASLzXfgYpihSJAeTDGAi9EwJBWD0vE1HyrOPx00LuRIP35hYdhiAID9v57LznmI6DbLWDV9xrf4b28NaRbhQjIkvkKJxOtNj7IUN9iOuNpYHO215nLi4kUogI7TZWCNzfxj0LgiB840g8SQMgdNEHhZHxP3NMm9WcSE0gfC/XwuP3ed9bFeZvgAdK5OrH17/+9Qfvbgba+eIXv3hx8cUXD+00L/WniFJhPsyHXSpGXKWourD/qEjBBKjlNoffenz+Jh5iGRwxwFsjEFZR2Ix/hL59jxhBEAwDY9umBngWhEMso5yzxhjZ8m4dAzFF+wOxzNHxeNjqKpAWg4C0kIm/iQfEn9GGHKPYUB8iWRGFKbSCAPI+DkjYi+fb9n8LAiIv72sjMrxw40rgRVGiqIJIDzGEzIit1kszHsYlwvpevHF9xbtz7YSKdo2F9AkJn3e9jD3yDw9f/+nn5z73uUO0BnE7p8iLyMQqgsBxIrVEAFktYiwcWxrBJkOWd/b6b114jLJruuiii7oRKP1FKBamQZCal/rQXM41MscBc9r9Yo67P4+rHYWjQUUKZkDRG4McnjsgFF4sAmDM22VwsKrCZjgjIsCQEgcq2HnqbsYe2mWUy6BNPofEexEPYW3ertSC2gPV0YjLcj/tYuiRjGhBL0Khcl9/IRvft9SOQSMSEHMPrSAgBnj2SJWnhEwRpN8DYxEbfdZb3hcwHohaNMfLuBkb16nN8aRH0K7w4r2s/CCMGEV/Zw9f1Abx+r60hjnhfS+/mz+OJxrB63etuf2+qw22MY50hIjEu9/97uE9wmYZ8vyJiJJrMS8VhxKRRBJRpz369Nprrz349uFAEF122WWLe++99yFCOEegzKOKIKwGBbeEAbHgHjiufiOYa9niyUdFCmaAAUNQ8sduSJ4bTxQBMr48rlYQwByFzZD3igU9+0A0AAHHMxJ6OUaiRHukBNysy4AI3NhI33Vlj1txHq82nm4Ynh2CRkzyxK5TWN97DL32Zw9QeDq8ct6y4yBw0QJeZFsn0QoCnmVbRKjPpWUQY6RxtFe7c/uNj78dJwuFDASNlEVWtBHRE0qOq09cW8/DV7RIRFhZkXP48vTIzhi8/OUvHzx718R4OyZDHh6+a9BOx2jbr++JAf0VUFyoH6aWII7Nn7bG5P777x+uzZw1TwjVu+66a2if6zgMjK8dEr/pm75pSLm0mNpoq50/hYfCGLqn2IDjLEY0Rr2i6sLJQkUKZgIhiAwgdt4oo+/Fs2bYp3LcrcKe8uhaqANw8/FKEZRz9nKMcvg213nkIx958M44iAzeh1w/g/7+979/8CIRCqOOiDKsMGCQIlKCfO+8885BKEgxjHmAcveIzd+MiGsXJg9kQUCs8Iac2zUSRBkMkXbbqjcjRwz8H8HKvWcP3+/t334SKMjf3/rN93y/9fDHPPZov3QAwiMQoBchQtgEgz7P0H596bhnzpw5ePc3UhXG5ZnPfOYwLhnaPnf+ECuu0RwUpSCGXBfvnbAhVBC6DZLWgfZ7sBLSuvLKKw/enYeKIKwOc66tkTkOYjafcw1R4eSgIgUzwRtDbIyYNfGMIMJoPb7wzDIobDcOshBmdTPxnpatGgBk7TvC0kTFWI6RIMnLKKegnZYoMjDO67q8EGsv5C6/zQjwKpEcIxS1Bkh+zAN0zbxyhA7+p9+QUhCqn0QGYkXKXv7fQj/4DEFG/CAUvxNrojGIVU2AdmUPH+EbJ8fMHr7jiQho47Of/eyhdsExiRKfMT7h4fc89mg/L9d1i2r4HdoIEc+OYNG/PQNOPCFFwiDmQURzQoTozzkRgUDex8H/tc8jlJ1Hn/i8+gbjSXg6PtEW1zwH5uWll146pGBWFQRQEYTVYXz0WUTjjusxze4b95Q5YJyO+vyF7aEiBUuALLIHy4Pr5fCzxxoRg55HxyAL4a6isJGXiITaAogcI4JBouFZOcecrZABwcphIxdFdTzjtv0Zwv+KGnmUjAHSu+OOO4ZztSKk9QAVByJwBp9BU6GOoJClY+lXYXNTMbx4L7/nv3m9CBRpu+bw5o2J84H2I8spclMsSAQRFE984hMHQiIktAeJO1ZEZHoeewgCn1Vcam4Yhxa8c2F7137++ed3Dadti52f0In+J5IIKZGJdv6MRQQy9DNPUj+5Dn2kHwkN2w8TTuB6EIqxJBC8f+655w7zDGGPgSgxd9SevOQlL3lQhGMTqAjCfJgXxpqgIs7mpBA3iVxD1EsdFfYPeysKIs/LkDNqPArk0+70ty6QppuN0e/tpY9Q1BJkEAbxnACFY2OGXLsZVLnlXiqgB4SBVBj5AG9fGxEtUkJSvWWUPfiMyIU6AUQEPWGTgQx443HdxIpxmHr4TRh4r8hFBpnz2EUtMvnH/3o/vZyP5y5aQ5Rps7oANRgM41T7gxhFPBAgIs4FU5GCQaZRjGgc9W1ECbIgkF/1HUWXvT0lkDvyJFAIJ+mETLY8YvMs9z+vnfgxbzIhLhMC0ArYEGu5eNRcJmgD2u111VVXDd/VXmJGOsX1GR/9rE3EqDb7v+WcrlvbtokSCPNw3MWIvZRZYT+xV6KAgZAXFZZFrAwzw8doIQTGCnFYusZo9by3Zcg5WDdXLvzKyDl8ZBYenXZpp2VrOX/eYlWFjaAYbJ65/HvA8BEGXpFjHFuHD5kYtc8x8z4Cy4QB0uKNBEnKtetv1xEefSb5+NtP1xyhciRnfBh55wnynxO+jhoH16s9QujR1rH2Z2JUoCUNk9fvAwEo0kKoCc/qJ4VdVl/oV/0egkAxo4JIxndM2Ikw6Ffir83BEjfxsCPeeswf6QFz+RnPeMbk/MkgLMxZKYNWwCpgROSMtfej/TYZCriHrrnmmgdEhGOZT0RGiG7jE9sxu3bC46hRAmE5eo7CUSFqiMzxo45YFDaHvREFwp6eA897QYwMprBrBs+MQZPnYpBNTo+IZcyWoV0G5zVFUDxmeezIPWePbhmxZqyisMeK7QDxunZGU9sVAGqX4wYyMfoM5KLDQG6/vssEj4DkqRElb9sxERzxNObhuz4pF0LFuR0DWSEYRmsdA0/MEBlEWUvKbf9nYiTkfJcgCBLM0FbCQA5eXwnhO4+54X8iK7aKlk6Rz5VW6MGuia7L9wM5QsR4i24hXMd1/frC/EO65vCy+TMlYI0NUWPMXDcSD0FAqPieFI7Pia5dccUVe/U8/RII4+g5CkdVjGgumndRVF3YP+y8KOA1XX755YPXYqe0NmQ/BsRw8803D16lWspsnFtEDpZhoa6RWQ8MbHh0DDlS4f3x6toc/irCYBWFjZAZ76h0b6FdrkW/iS7wHG1Wk4mR8QRDj/CRIC84QvmuUxETImdk/S8TPRGAkERDvOc6GYD2OiMFw2gLwzsvwvO3R/ry2L1HYBBZqxh46+H1/SWXXNIdL/3fW1UROXznHIO5ZqWJvpMa0U+OhYgIT4ZWnYDaBa8W5pM0iTB9Fpb61ViLdrlOwsR1hmefH4s8NX+WCVjePfEh3aReRPtDEJhfxtt3kKp+JyDdY/uKEgh9tI7CWERr02h3+pyqTynsHnZ69QFiu+CCCwbyuPHGGyfXa7cQziYEpBaERhGBSvgMxp9HJmxs8vK0hNUzGPKxqm8eFiLt7aXv/P7HGPvp7zEw3gxYfrjQGIiPqYcmIUiGP9bhU+3IQ8EcY4kw/M1YRJU+bzUEAO9Ve/S1/qD89SMR4hpFDoTWET4vE4npE8f0PhAMwu7ecwx9SFgQBGBMrJxA6ohaBMR3EZhrN+5TVejGwZgxco7RE1LSC+2qCjlXhtJ5puC7RJRzGmtjqK8V4Gmn46jsd22Om4HM9SvBxBi280e7pQu0ASGbQ8ZKHxgjqRgYmz/6RdoCwcc+DlkQ6A/fQQIEbhYE3vO79x3HnLeqJc65r9DPtYrhoWCPzA99Yl6Yt+7V3n4pm4T+dk+a32yaCOhxpJsK62GnIwW2S4Ubbrhh+LkuhIuvu+66xa233jp4zeHB9ooIgSHJEYHwPNrPBdxsYzn8VSIGcxW2MLS0Ay+WiEB04eF7xe8KyGwg5OYMkkAwvPvw+oNQHM/N3Oaxx9rf1jgosJTaIQjCg9W3ai8QUgiCDOFrY8HzloZgSHLIsecBgnQHL1v/tDUOwAASQ86ZIxnGXA5fe6YQHjuS5tm7ltx+nj5xZG5ENCaMoPZIaRAW7fxRCKvP7O5IYEWECCkTDcQXcsuI/nd9+opx1Z5e6kPxqL4RFTEmWRBof9Q4SId4b5Vnc+wjKoLwYBxHMeI6RdWF48XORgrUEFCZIgSH3bmLB4EkGWQqGWl5LwrkwP9XWQee4ebiUTPgrXAY8/h6QMrIgvGPCEYYtryXvt95/Lx77UTsCJ7X6vtIVtg8yBPRi4o4FlLxGYSaPUwkgkhFInI4fqz9zsvD1R4es6gEQtRXPFgCYkoQgPw+T9612EVRnt7fPBs50NYD1L+IDdGLUugv5/Mch7gmxKh/tAEJRPvNJ2TdC/dnhMfOk3ccoXURpjCgBIf3zAvv6ytRBTUCVkFok+vozR/zWX9E6iIiROaltvc8dqJP3/ouEkf4eXyACLRcVMSHSHOOVhDEY5rNf/NrKp12UtDOn9MeQTAHRboI1qPaGdF8cx8SI1Ju7oXCbmMnIwXIi3GjV+bWECwDEhH+ZXjt4IYQGYZVIgLLwFvmQYpGtAiPTwQAGTr3mIeP9Hg2yACxIF1E0Hr473nPewYvtU2LtB4jjK3Dz+gVHQbGIga2yiWIGF5RAoV4DE8mpClEoaWaAwIGuSJebc91GsiRh87jIHiyBygcL8rCe+YF+W4urCL0XJd5NRWxYSytphBSR/TaT2A5L5Fgftx9993D8yh4/Xn+KDoEEQlz1ncziDICylLKLMYIEPMGeYnsRISoLSI05r3+7xWPtoIAERJbBIpajLEiy9OCiiAcTzFiLVvcD+xkpODbv/3bB4K0feqmwBCb9IylUOw6EYEpuMl813JJBMeoZw8/PHXkIXxLpGgTY589fF69n8ieuJCWcGw3LUGA9IJUiAvevbC993seYwCJaY9j8Jh7OUYeNVJ2vpY0wuPWf34iadfiOhAyomRciQ9tniMIgGiRnyemRGqMgz5pd0pzXT5DyLQeIM+dl+6nsXVN4QEiTYbvyU9+8vCdaH9vnIXyfc93ov2ORYQ4PwJxrSIkef4o/DN31L/4vzlAYGg7wWI+iJowhq1YMH6ElHNJPzCcIg360TFFPKK9uf/9Tbj4XDyrAlpBQMxFjQPvkGAz104zKoLwG/ZQH5gPnI+j2BmRmGWbpp4FUzh+7GSkgDfFiK+7H/sYGGcG9IUvfOGwrGxuREAXtR59+7efCDdyyUgS4bUePsJhtOfUGASmFDZiQiZu7tZjbCEdkdfh93KMQstuWkvtGMcWUhaiAz7LI0dGxIbohPFS/8Gw2BlvLiJCoX8YK9dJOCFM5KcdCLkX8o5VFULrrp9A8l2fN75EGaERRDgW8eCxS03oX8YqCxpjqy2+R0Dqv4goEVc8+qhxAPPBe/pFv1qtIW3TLtGSqvCy8RIgJqtL1CkQA72cf6RQYlVFFhqtIIgaB9dPkBpb113o4zRHENgX4plAihqZbaGWLe42di5SwICqIxDi33TFqkgBAuIFB8EE4TMIcl5Uc/bwGXeelve0zWenPHzePU/OcQgQxjt7+D2PbxmmFLYQOy8WOSKS8Bh7CE9A9TrBEisJco7RuRhEBCK6EIi99L1444wHAaL9IhYiIzbjQZp+9xnnmwP9IEKBZBkMUQjGWNu0i3BRxMlDD4hQiA4wZohOW80X/f6Upzxl8AAJFeNKJCB24sL7vf53LNekTxCqz+caE31iDF2zueN75ovjiMrkcfQ51+JcPDAFhaIzedz0uVoIaQnzKmpIjKG5RCD0crC+166qgFYQxN/GQdsYYdGCbeaP9x2nOYLAniFpP9kSBYKudRvX65jEO0Gca4gKu4GdEwVuQsZcKHYbMNkZeaSyKuEjKe8hIKTKyGfCDyAbxGjS9xQ3I90jpiloD48lL1sMYiQYkBbVHd7qGFwb4sjLKIkk3i8CJTyciyhyDp83Jvlxxoxmbr/jEVtITF8xno7V7t0whWiTFRUiI87FKBsvHrP3QhARL1HE6PM8ZiDAiBljKT/P+xcVMl7ZwGsf8SOyoP2+49yuS6SgTS0hbt8TPZEakabwOdePgMciPoQUQcBTJzCyoZWqMH7O7WVlSOyRgbjNNQLHHDUeBJGohHOKQhEZuf/97mdEOEQczCs1GESjiIXxLMzDaRUI5kzrKJjrmxaT+i9W7NSyxd3CzqUPeJuKvRR0bQMqvYVUr7/++gdC+pnQN4m8FXIPY6HsKchZIzMhZjcug4W0RDWkJuKhScvA++4to4zQN1I0NXi8blak0tYZRPv1I4/WCwHxSBXP2Rs/e/fLgPgZC9667yP26JsIORovpI/8GOwWxJGaFIbb5kEtEeYQsSiD4yJ550SwvWJTIkG/i/xECkY/qQVAumNoN0oSDRGi5RVJwxBlBM9UdCeWLTKari0Xj7b9H4LA2BFECka13Vw5DasNjgJ5/hiPk5xicP8fRTFiLVvcLTz0KS7HDF4vYtgWHNuLYWVMtyUIQBU7w83r7gHZIT2G3efmgGJniEQhkKPfwU0rXO8GngN5Q56OmzED6Qrt8a4VvDGAFH2vWh2R6kNFlD4vMoCoCRSEyataBSIdrovhIQiInog28NqcA0nyZuK6W/DueXlIPMgzQ6SB9+/ld6KAF6jveEjez4IA+bsO/QUiK65ZDYQ2jcF3XEPeOdEqEX0pOkVc2LioXTnSwnUSVgSF+ZKvqe1/EE3wt7lHJIpQhFgoHB7mjIiOFJV713zg6dry3LiK+pwUsI2uVX0QAeQaRUs2DeJYDRlxQPgXjhc7lz5ARDxGWwdvA7wuXpoJz7C7iXmKiAGRCOkiiLn58Ck4htBv5PB74bFVUwmxDt9NxEPJVfrOIWyMrJDFMvg+ApeO4OlIeQgZek9thGJMBIMYiYMIfUPkrJ1TsVu0nyiQSmA8GRA3/NzQo+sgCHjiSJggIBK0TQTCOUUfjNNYyNHYug7kbnyD4NsaAcacICAipKpcH0HEMOUQMTJ2ftcBrokXLm2RUzAZxFqbw/c980BfIvcXvOAFS6u+kbpok0iCYkTtjxystrX9T4ToFzUOxknNgp0ojUth8zgtKQbzO2pkzEHX575xj28KYymzwtFj50SBPOy73vWuwfhvI1QldWByq5RHwG5cKpgwYIQRrmI6xTYM8GGFA6KJfHmPQGCOMEAmiDEvN3RT8iRjY5DYMtdNNRWSzkC86hJcO8FEKMQyOAZN3zgXYowco/P6TuSw2/bzhokV7dGu7Hkvg/7W70SBFxJX5yASIk2iz7VZv7bLFhUUIkL7BDAw+tzYIfZcIyAEb5ylDxC3z7o+/YZgo5DSdwhU12PchI5jeZ82GAsCynVm5Bw+URVFhNrPk3cOgiYMbW95aLvc0HXmHCzh5bqj/4kjGzTZhwNJ+YzxmXrGQ2FzOA0CwT2XN+zKNTKbAsE8VlRdOBrs5JJERtPz3RnRTUOeVcHY2NPtAsjQzRwvpBw/43eeGY/cTeJn7/cQNmM5/IyxGgOELczP4CCbHpBXLFt0wxIHYw9NymC4eKtEzzd90zc9EIYO6Ac5ev0mhYA4efKMg7BiFm65/QgawSMxIqaXfmgRy/u0Owr/GFVpBOSIvDPyskVEL4ev2FC/y/l6Mc6eKhnfjQiHMUT0sRwQ2v4nfGKMCQtRCIWU6gCICHB+USf9DpHD13bXQuQSNwQAknctvZ0L9ZU5oj8JCCTimAxjhvafPXt2mBNPfOITH8jBWqaoHa6BqBFxazdKKhw9TnINQtTIEEPSDO1cPQyihogQrmWLR4ud3LwobiKGfpPg+dkFkFGXm0bsYwre+4g1vGCeoZuZV8joMvQ8OF6Bz/j8VMTB/4gCHl7kvEUckE5EHFqP29+txziGrLB9DoH5vlcP2YMVCkdaSMn1aVPAdSEqx1NroD1+8nTb0Hduv5oCfYGUCIMIv48hL+9jZFwzoiQ8nK+XgomQo/6V7xS2168RERDx0NfeZ1xCECB5bSM689jn9rtuIoWI0x5eEUGmcDR7gMSR+SoFQwBotzaaX4RBbKUt5SD1I8rg2C18hnDyGYSuv5w3p16i/QhFQWlEiMwrECFxPfrCec3NwvHiJEcQzNe8aongZQvmRFCXQZ/UssXjwU5GCnhY559//vDAnOwxHxYve9nLBi9SFOKoFLxju/njRf0iJaQ6FnGwyRKj4aZzc8jt+/wchMJ2HMfmLWYSEk6n7omB8GADCI2X29taWnRAnxENUbg2tuFJeNyEDJKLlAdh1QNCjS2MhQtFRVyvsRGhQNREjGPZJCiuzf+9nI+A0F+iAtGOgJQRkiXWeDP6e8xjB8f71m/91kGU6nviCTnngr08f/SZfjduRIPvERDZS8+PRe6BADFuzkHU6VevqPo2hvpU+3M7CACC5SUveckQJWGcja1rbSNOhd3BSYsgsGXstmsyXze5ioAz5/5wX43ZkMLmsJORAsqaOmQUN7WUimG/7bbbhhwrA8tYCpVvW8E7To448GypX+E2nmov4oBcGAvG3nuKeyLigPx6NQ4RcQiFzXv0OYSFEHMRYfZgM/SHczh29jLpRud3TCIjIglEDAL20/8jx+i7rlWfa0t48H7vQQ5eJT3iRXyMimhOjlAQC8ZFSJ8nnWsEGCRCRphRLj32cQgQGJ6QyfAi5SmPHRyPB85w8/AJiHYeZg/QeIkK6TfET5xoe8wf4+04YyJEe0SWRDa0kZhwbHMlihEZXNeUBQHxos9jHwfn13bRjYh4+NmOc+H4cdIiCNssRhyrISpsBzsZKQCejrz/eeedNxQdHgaM55kzZwavz+OYpxTtUSh45Kqq3Dr6NgKQPUYeMcPO4xM6ZyziFVEGP+P3NuLAe5XjJgoMM0/cnglTeWZeZt4K2ffCQyU+3JTy6j20OUY5f991jciNF996rmoH9LM2Ezy8AdcauOeeewZR5dwiEz6L6BwL2nX4xIdIg3bLyYfQ0BZhfdc+5bHD/fffP6QFELn9EmyA1BYTguiFEL5zEg7I2fUTKuavtrpeKSP5f/2SYdyMNYPqunvhUdehDxR4EhsRkclbGDsH4fGOd7xjEEfmOUTEpiIG+4OTEkGIGhlzm53dRPvbGqLCdrCTkQJAQrzHa665ZpgEFPU6YBgvueSSwdtEVLwpZEHRImATNyvao1DwyAlZIbScw289RtcdHp+byivem1PjgEh41a4TMWu/SMFUxAExuX45fIo8qtiJFGTtpgzl3qLNMfqMv52TN43U8xMk9SsD6PrzqgrtjOWDBJQxRH7W3hM22h85fCScvX4/gzRzlb40RKye8PsYGGOErl95347tONnj1m+Eh5/6nuBBxM7rOvUnb91YiCDoD+fN88c5CEPjHKsqWoQgi7SI/oyIjPnI2IZYsXKEKHF+/ePc0gkxf3L7C7uLkxJBMNc4FcTypnZG9N2InnHs3NcchsJmsbOiABhMN8bVV1893BDCw1NebgvhpksvvXSYSESB8K2bzIRCqAgrDC2vD1nnG26bNygjHVshI/t2uWEgRMAcw649bhI3oHa6HksvtZ04UPzn+P52HJ/njRAGSCqKI5GKm1meP8KCrt17BJTP8YZ7aEPf+tY4SiEgeCkKZIXoCQ/XbGyIBWNACOTUQNQ3EAGxMoIokUYQmeAx6JcW2uDcxI+8PINk3ERCeM0iKT0QPcSV+gpCCOlH/+tbBYQ5BeOY+tN3IKdgjCNx8/znP/+BPjQulk0So6I2hGoPOUITKYMwtPqIIFG/QMwaD1EHYjcLItesPXPnT2G3cBIEQusosCGHLUZ0/0ZRtftjEymKwkexs+mDDDfBm970puFGUI2u8toNMwakIuTKm1OAJXWQQ6luLp4VQmFEYZXlNZsM8VnuF54mz28Mc0LBiMI19IoIhZp5kcgWeSCMMYga2G6aZy9yoA5D30eqAin6vkgOUYVgc9rCC4ESFFGMSHTw2hGZyI0cvwgBg+F8Phf9mNsN+jiWRYYAcD0MpPFtryUTKlJH9I5PZPi+dkT6IUNEBcEytj4XWxiLSPDqiUxRHNED4ke9g+8ofsyIFEwI2UhViMRoi7QEYUMo9eZPTxAEzG3fJ+70q/SL87z4xS9+UD+IJpj/sXXsnPlT2A/sa4qB7dhkMWItW9wO9kIUBDwTAdmbDLwsHibjzYjzunmFBIT/C9+qRXCzBLJhRHbthNIVDK0X7xKxIrYpHOYG5cm6Sajn3jr8FmOG3bU7jut2s4XXmiF68B3f8R3DjYjMsiDKaAlJHyFAQiJAfPB2ERMPPgRDFg5+zzUOiB+BInLChAeB/LW1JwRaIHLjSxiIKLheZEvMqc0wB6BHqEj0lltuGeoE1B7od6Kl3cfB8zaEKLU5ahS013xQl2Gu6Q/97/jmIkHgWloQneoR7JZIAOh/JM1LyvtvtPNHXxBQPPxWEOg/150f02yJLa/Jd1tD2+Zg8/zxiOu3vOUtB598KAgWwkK7HZ9Hqk292orC8WEfBQKBbh6rBYoamXXBruQaoilnsTAPeyUKAiYUQ40cwmgx5DxXRpExFTrvIRtGBro3odZVtHNv0PAYESdj7bM8SySLQKaQ2y+qoR947trpNZVe8TmE43OtIIIeoQJy07e5HkC+HRGPFR2C63KNSNlYCaXrV543EYBog4SXRRxAdIAYch1IW0g1L6Mca38sB/R/ZO0pg/pN+D/EFdGhpkMokshAiEL85pH+CuKP/tc26ZjejoFEHgFLtEolmD/Oq01CwWOQciA0RHTMzTx/rIYwR7TN/yAXWUZERhSsNbR5Yyvj8apXvWoYG98TaQmYv1JGwrKuXz+6buPsuESn69ZvRPdY6qNwPNg3gbDJYsRatrg57KUoOCxaj3tsQk0Z2mUYu0FFKHoeI9LM6/CnoP133HHH4L0hJcYZkc6B63Zu5JQFEXLuESogHmShva4DXFMb0s9APq7dSz9GPt73RTYIBKQp4sODp/h9ZyriQPwhQtfr5T0vIXR1Cvq8bb+aDa/YuTBCjvrOdcU+Dm9/+9uHvkCUiDzvRNhClATRWhnTC8UTKoQB8iQOHM9n86qKFs6d+z/PH/3Ac9f/IcKIO+OnZiQXb40ZWn1PmKjFMHbOx/N/7WtfO6QdbJEsmmJMiFPnIboyRIWIOmkUOyi6Xy688MJBMBZ2C/skEDa1M2KbMiush1MpCqAVBlMTKgwtQjdpV72x4gZVxIf8VYkjjPY4zqEYjxc2Bt/3OaSDKHiOPWIaAyLkjTL8SCoEkQiD47SCINBbRplD+tAKgTBEUeuAqKR0kNwb3vCGgdD1NdGFwMZuZEbNsUUIjBFxhrBCOBAZ+sT16NsQC8jS5xG9dkTEIUKOxhwJ+pyiR+d3Lm3ppWBAn6u3QJqEQcyfgKgIwiRCVF07J1FDeOQUTEYrCFrce++9w3g7hvYRKmofrMgQbekhDC2R63oc2zbW5iKEKCIqiFHz6uKLL+5uXNWD++fmm28eChrVKuvjwm5iHwSCe8B89YoNu9jbVVHLFg+PnV59sE2YNDxcxthPN4mbBbkI1fo7EFXfPNV1ltdISzCiyAiB8up7VcRuUp6sz7YeKmK1iY3/Eya8Rso62j+3qlw+n9fO40N8jpGr9CM03aK3jNJ5fZex4Y0TGLFqAGH5v/dUwyNvgkI7nZ8n7pz6VLRAn+t732+rifWP4j0RAU/P5HkjT568iAeiFm1g8JwbAfqdCPM95Od3bfVdAscYIFoGBCn6jn5F8to9hnjYkb7zubb/HU/IXf+aTxFdIWh42q0hXiYIXDPjaJ+DqELXXoaeAczzJ0MbiByfi6rv2PxF+opYIUylJLRdpCQKIufAdwgBx7NsWLuMQWH3wP64z3d5FUO7amnq6aFTYKPiGO5B32dvCvNxakUBMGzZsPM0pyZUz9D63tTyGmSYlxv6/NQNyrBS9UEgvOCxnQjb9sf7yyDUTmQgYmFl58l76WdBlOEc2qMtyJZAaPcR8F3tEN4WWXCNRBRyzB61vkbSxJXv87x5td7jwTNS2VB5JLSx4dkjScWS+ioI1eoNx/J9IgPpO86ZM2eGFAsBgci1R/sYQu3S93L42h3RCMKBYNFHeR8HwsJYR4Fi2//6zvmNefusCtcmOkFcWYEBywSBtpmL5k3UilhaKhphQyXh/ykDnw3tjTfeOIgIgsAcIr6Mt//731yB24KQ1A+WDYuy7ZL3WXgodl0gEKscIm07zM6IbA2bW8sWV8epFgXQGnZ/T02oVtEKIY8p2iDG8Bhb8TB2gzLebgbf9xNhxeOMW/TaPwfO6xHVvuOBSMsUNoPhJhWpQI7+Ro69fQQQo7w6YnQNUQCa4UZngJxP/zgmwndMYitHZITCEa0+BG0mCpwD2QahGifjhti1U7+6zoDzuaYQAyIMIhZPfvKTh9+n9nFwTFEP4++7IRwICgJE+kGbtU1dSD4vuF5ijEBk9Iz9lCAglFyf5Y8+C85lPklD+N5cA8/Q2u1QdIcocD3a7Bw33XTT2oIg4PzOZ3WLvizsB3ZZIJifRL+fY47CMrBhRKoUF/vkGgvLcepFAfSIddmEyopWTr4NfWdiHMtPZ+QblPF3TCF50Qkv3vHYDbGqMOChIick5VzahzAgCyLXyCsVEcipASkQ0QyErW28fmFz/eWz6gmE4REnBJm3cH79RARZBcGT1n7GICIyVj4QAIg2RIr2+54oRX4WA2iDvCTCzo9FBp6/c/ip3dIeohvC4Igycq/G1XG0heggaoyFaIqIRBtx0IdxHd4nnvzdRhxAHxJAzm2u9ASBdAvyF33RtwFtJ7yItxZTBt6DxbRB/cFznvOc4bwI/NWvfvVKKYMpGL+zZ88OY0NcFfYLuyoQ3GPme+sozBWy2szZcP+6H13bOrUKpwklCg7QI9Y5E4qSVfgWitbnFODJYyPGbNSXQbGXvC9vFKG5Qd0E2iPMP3WD9trfQw5Z8/Ld/IgrahgcH7khMcKAp8x7R1CRGojISDzOWDgcMcpP8/pFHhBjG/puoS/9z3f1Fw84t5+REmnwu2iB8+ZrRJDILiIUwHjw6o0Hrxi5tykYY6qfiR79rD8JFP1rLEV/coSIMPR3LD/0eQJFu/SVYytsfMELXjB4NKI6Ub3vMz4fEQfXSTgRBa6/FQ7aqt+JL7UbEV0ijHxmTkFfa+CtEhERIXoIKQZVP73iFa84+MbhYRy11V4PT3/60w/eLewjdlEg9FK3bFAbfe1Be93XeafPsSXrhRIFDwID3hLr3AnlsyauIjB5X+ToxpqjaBn7XETohdS0AWG6KWMv/akbtNf+jF4OmxesmE0bEG9EBOSKecZuQp5/K4i0z3F8F0RKGBNetDa3oe8xEBWuBclqn9x/tJ+wcNMrsnN+f9usx3Uh3ohQ8Oa1Byy7Mz4qjy2/Iyq8FykYfeX4SNy+CyEonN/1qQsQ3YkIkVoC5yXwWnFjrK0CcG57H/Boov+JEa8YE20kvIgG59Xv5ofVEj4TwkF/qtdg9KI40niLEviOMTcHtEtER/9MGUb9b7WE/nOt5iMR85SnPGUw+puEPn7b2942XJ9rK+w/dkkguP+0JdKcqxYjhp2Igtu53zttOLVLEqcg18qwt8vNGHTGubdsUbgfQSFbxJiX1yA6XmkLXqH8PTEwtQxOKJk3roAuEKHu3jKjXvtbQeCG9t14udlt/dsLTRMKvX0cIK/Ddw5PGHSj8mhz302BB09I8ZQVwcE999wzEBjv289oP8L0u/7UZ77D05bSiOWAnq6JyBkNYk6xYZC//xM9POZnP/vZD0o9gHMwFoygFIsxtIySMAyobzDW2sBIifDkVMWc/ncdIivmUfS5fnYNscQTjK1NmwgHRtm5jZ2f8btrIHIYvFiOGb/7+bznPW84h+WH5ofojbRMO5abgKeQ6jvzoXByMWV/jgqcFfZT9I2NzffoFET33L/uqVq2+FBUpKCD8O4Y8exxCyeb/G2VfniMPFH/bxVtW4wolMsLVFEfHqzzjAGx8HYdQzQCphQ8Few7kaNHRK4FGYp0tDUCzu94iu16N1ZPYSMkpMlLcC5GQn4aEY/lysfA49cfagl4xrxnUQuEp3+i/X5KeejXyDEiRDe5vpG2MVZEBtKVxtA24yUU7/PAw5ZC6KV2vGdceOWuCfETLBEhysWj0ir6QM1E9pba+ZPbH/0S8yFSMOaT9hMSOSIjbeRaRF0cy1joE9ejv3urKiJVoa3EFeMpDWXczQlRBpsObQOEM6LQ94WTi12IILBJ6xQjcjLCNteyxYeiIgUTGIsYAKLn4SMlxpjizMY8g1HmcbpxEItQPVKJNMEcOMacrZCzgvcdbXQDhwcZij5qCDJ4pETBWPFZKGykKkXAIPDWgeeJiBzf+Xm7U0KnBRGgzYhT/hzRIWb9r93a3AoNU1e/RvqDMdAmRJmvTypDXYhjK4gzdqIJY/BZqQdejwLHiBCJ1ojuqH3QHsclTiK60SLmz1j7IepIEL+iyRCOEBsl8fC1fR14kJg+Mi4MqH5iQImFbcBxiSY7JBZOH44zgsCGmOvsI7s0556JnT7Z77mRhpOOB8dOCw8CIUAQMOwMfAbS4UEKnZv4Y4IAePcmHFKlpJE0T3WuIADHUOyHrCjxMfDSef9efneTIh43KHXs/Z4gAKQlly7k3gPx4wZHmkgsH8f/hPEROU9fJGIVRC0CohfaR46OhVC1PxcTBkRkEJ0XAaR/9XN7fYyE8dNG/U80TCE89/AeXDOBw+j4n7+F+aUo8rMjWixrP2ibqIu5kAUBiGwYk3UFARAxPDlCz0oL499LZW0KPESisXA6weZwdtSssJ3mGpty5513DiKaKN0W2BBP0eV4KXhF9qKyU4hlyKJoXoVKHywFIsmhYH/ztKKQzg0QRWmMbws3QRQRMvCK90QXGPxVl9e44Rhc4fH2aXWEApKK1ICbEUnyYhXqES+Ih9c7FuKLYjvquT2+Sn6CBPmqLkd2sY+D64hiPJ8hCggEBB/pjjnweREH3rmwnmMgzXZVAuQUjD5R6Oen0LhIg9SI/orlffrdMZGkcZsCz51wICS0yVhZnaC2wHg6Dk/IagQh1B58T5uJiF77A9IPjJmxcb4QNMaR6JkSHT04L5FBDBI2xtt4EjQiKuaOiNWznvWsg29sFgyx/tf2vKrCOY2NeSR14lU42TiOFMM6xYjaUMsWP4oSBTMQwkCRGjIwoREggz82oZAPMollcMg5CAFRrru8RhiOwEAgiCoLgagREApT46B9hIjz+h4yQ1C8xrEb1HcQif8H4SF9xEoAyBU7j/Y6pocDIQIhbp4xgaM9yMz1u/a2mG8M+oq48h2FjdplM5zo/yBWuXK5eB6BMKFwJbWv/QhR9XvkGF2fzzAS+oRQEgHy3R7UHziGfvJZ6/lFaAgd8F1zQH97j/BoEYJAf0X/5/bHPIiVG2oSRB/i+gkeYVDixbgEWsJn9Fy76/Jd40usek/qwWdFUbxnXPSLY0pJEDjbMHxSUO4B88F1an+ucdDWWFXhfinhcDpw1AKBU0RgO1dvH5kWzi/KWMsWq6ZgNhAjg8ewebBMW2MAiII4QNYMNjLyol7HwHAz5gy5z7arGlq4gZCSKn9ki3wRSniYLSFlEBL+l2skejlAxEVhI1o3b6yqcENnIDA5ZNdH6CBSNz8SUhHsdzdbPNlvCrxLNy/iEmp0LH2eaxyQKELzGZsIOWc8Fjk+Y4xEOYiAO+64Y0jxWC2iHsCYuAaFob2nUeYcPs8aYTFUPqc9QMBZcWGctFn7sjc/t/+JRqToeRD6z/ecnwgxxqIQjJLfvcwTP7VFVMHP+L39u51vVl9YBUPEuB6PS/a8grFNpQ4DS2fPP//84RqnYK7FteXr8zN+N79715t/P80e3UlAz/6wZ5uuQXAvEwbEAjs7dfyoITqtT1ssUTADebkhY9QSa4DyFc5GiCr6w7ucg1yM2C6vYSDdNF4+58bhqfO4GHZ/wxQhBXrCIJBvUNEIJOUGFXoXQWghckJAuHkIorxsUWQBAXlvWdEhj5y4sKzPNWmD/LfvIEnHdBwetHbwirWfKCHC8nJAXqfoCw+Z90nY6Fc5RscR6RBOV7fQPo3S46FdLyHBePg80tE2QiS87igu5NUyHvqdaOCN9/rf/4PoCAHRFcQt9cQrzoTPeBlj7Xatywh/DgiggDYSG479+te//uDdzcAcePGLXzykkDbhZW1COEiJGcvC7uMoBMLcYkQ26bQuWyxRsAS8SobaxAhibIlVIRkVyhCaaIhk3QkVihZZ8IR5lCEEckQAEBvy5W0Kiy0TBIEpYQAMLsLnCTOsbsr2BuW1u3HzDntZYUtjWC3h+6ZYXnvfwrmEFgkR7bcdL3FFjDgGQ6GOQe4dtN931BBIL0SaI4DE9aNld6IVlvoZI9ECxzJGBAOCjQiAlIfjInrRBJ8JEAly/8bSuFq5IBQJrk1fMDbEgnPop5bIgqyQmMiQ7xGOhEb8T//5n6iH4xnXnD5YBc4ZQlJUSdTFHFFLYH6+9KUvHbY/7o3/urBDonvgiiuuOHhn+yjhcDKxTYHg3iMMvETQwmb3YKUS+8tOSCmcBpQoGAGDggCyx5iBQHixvFkGpl0GB6tOKAYsDHlU+CMN5DGmaBE30mPYENIyQRAYEwbSI4gdMSInBCuU7caMG1Su10/76Leea1bYvo/UEaioiZB+CwKIGHCcEDQiAu985zsHIrMvgYgFQZaJWkGim7pN5ci1IzvTWhrA+EgjSDc4hvFAvKI5semJsXGd2hxPegTHCGIhGkQxXBNyzQSEWIyX320wFYWDmYBcn+OJRhhT15r738oLbSCy5EEjBRMPnJqDPH9aIUlUSWuZxwyu9uiPa6+99uDbh4PizMsuu2xx7733PtB/u4ISDvuNbQkEYz8ndXvali2WKOggE2MmogDv3WRCBML9PMcxj2vZhGKQxgy5oVmmaH3Gs/AZNaHbVdAKA8VfCn+ImDDsbhjREmvoea1SJL7DO3fOsRs0BJHrQKa++9znPvdBnm/k8IkZBEUQOL7rFSXhoduNj/eOMCOkHjsX+jwyivZLJyBdkQqCSrRAmFBUoH1mgP7WRqLK8X1OOF/0IRNHkIPftU26xrzIZBFFmATDVIRIW4XvQ7jl/pce4WXn+gTH1Td5J8sWU/Mng4AzV0H7iaE3v/nNixe96EVD0eFh4DqIM1EI9Qv7iBIO+4FtCAT3DZvTS90GOC7u7baG6CSiREGDHjEGoipcThtBexEQPY87o51QDMwcQx4YU7SGzrkREq9yGYH0wKAjWF4kjx6Ztflg1bhC44SJQj7V+K512Q0agsjfcumuPRcd8ugJrNhdMKdgiALCjNFF8gSYiIitmHNxYSZW/xcZQO76zPG1T5SAQW8Nvvf0q7/1m+/5fjb4POooLtQuqQICSV/n/s8Rml6ESL693cIYtF9hJZHVEiph026FDKvMnxCw5iDBhLhcl7GLNM0rX/nKIaqyDrRf2kD7rrzyyoN3TyZKOOwWNi0QInVrfNzr7XHaGiKpyZOIEgUHkMNH3G7sHjGGB2viIQ83eiAT05gw4K0iVD+RCCKcEgI9ZEWr8I13GYQ0RiDLMGdVBfDUpQaQZy/MNnaDml76ldEU2leZjniJBSFy/QDa36ZgXOddd901eLKMKQJzHmPloUVhkN3MvHAEjOi8zwCLNDinugPjmY2z/0lB8NyJHMWJbnKpEgYhR2RycSFBqK+Qe08QBHKESHsRs4K/1pDo09tuu20gEzUEbf8bc+PqOIzSHCEAPQGL+F2HMZECcU6fEy0R7brkkkuG9+ZCn7/hDW8Y9og46YJgLko4HA82KRCWFSO2RdUnDSUKfh2IkQJU0d8u02qLCHmwPfSEAQNgkmZDzjAggsNMKMdDlgyIncNi4geBCLPPObaJjbCRmmNNCRu5Yp9HHFkQ9dDeoHbzQ86EFY8Yod56661Du6Nf5eFNxTCcYUj1vbSASII1xDx14W/kH8aUB+58oP2KHOXo1RLoc5/LEQrpEJEL0ZV4AiPiNw8YAMfSJuInUhW5uNDfljeKVPQEQYB3rsgvxFBvAxVRD+cXeRibP9Iv1vcTLwTfMiEZAlYfuQ59pC/NcbUaRAq4HukcfWSeO58d4RR4TnlBjCKR6HiWN+5ryuC4UMJhu9iEQGCL3ENevdTtSV62uLeiQD7awDDk8sCWvyGfdie+ZcjEiGwClraZED0PdgyEAe8TwSGlMY/uMBPKcIWHytvTRkQreuE9xn1sHX7GnFUVgQh98/AR8yrFb3GDekkBIGOQd1d86JjZGGbj5yfDp6+Qt9UWjudGjxoHbbYEzrJEkYVoP9JWEGnsvv3bv30QIo5nrB0TMSLiXg4fmfLsiQbjqG8JAND/wvC8CU9wjL7rYWwfh4A0lXmmvTA1f1x3bxllxpiAzTUy+kNEIqBP7FlgvKVItJeYERESxTE++lkawnzRZv/XDhEcbStsHiUcNoPDCgR93UvdwmGWLW6Kv7aBvRIFBphBFurVoUiQ4WO0EAJj5WYQ5mW0GPMp9Igx52BNglgGNwU3qEnnpV3aaee47J22WGdCZUEQHqr3WkU7tg4fTPIgRuftrarIwoBoyqFvqQa1EUGSoA1hqFrDFX/76ZrVbAhZuzGNj5vUecKgIdAWPOXY9Y7H7u9ejQNov2iJNim85A2rNUBm3kOMUgauK6/fhzYFo5/syhgpBXMk+l8NRtQ4jEFEAakSf23IMYoshfSJlznzR3v0D3GRoW+MkX5tBWyukfF+tP8tb3nL8H/Ef/nllw9GKeBY5hOREUbL+NixUt+Ye216rXD0KOGwGg4jEAh090SvGLGtIbrxxhsXF1xwwcF/P4pN89e2sDeiwFPXbrnllsGICY8zmMKuGTwzBk2uk0FmgK1VZ8wy3DAtMfZysD2CCrjhwpC3EYExj7uHucsWDVMrCDJck2sPRduuw4dlqyoC0X6ePDITGWA8XDMCkttHlLztMD7Z2LQ/XZ+8tRC4GwApIisE43qW3aBIyUY72iF/DTxaIqNX4yDVISrx7Gc/e+h/54rtit3QvksQ9FJB2koYWAaqr6xacB5zw/88QEXhIugH/eIRyi2W7eMg0oCIXdsq80ckwXxWUzIlYI2NOW5szAEkHvOHUPE9u1ZaHqlQsHAyUcKhj3UFwlgxYtQQOZ5o6qte9aoHifNN8te2sfOigILiyfBaLr744tmha4b15ptvHirnPd4hjHOPGKeKCDPcQGNCoMUqwmDZssVlgiBDu0LRxjp8BNJbVeG4YRhaQ+EaRVK0XZsy0fNyERJvNt7rCahIwbjpfN7flsYhY4/05bFrC4HhRhq7QRG8FIF2xHP6x2ocpDn0lev0M1ZVIEzXIzLjJnPOMZhrRIS+cz795CZlSNy4EZFBvAQGZZ/H2HzKWxgH9Kux5i24TsJk1fljTLVN6kitgnZ45fO0NTJ5/uhDokfbejUOhdOH0y4c1hEIvWJEhdqOBWzjC1/4wo3z11Fgp0WBDhWGYchVN/u5Ks6ePbu44YYbhu/LvWdiHMvBZrgh5gqBFqsIA94ez47RznnubNCXCYIM7RWFMHldlxuXV8gzzTd+vrnzTyF6ZEoA9NqvTUhFv7XIHixipa6JMb/HtQm9O4bjGucQRO0N6v8+q6YA0Rk7qZGxGgcPSnIzG+t2VcW73vWu4ZoVx03BsSl7/YW4c//rtxyR4e0rUuzVOKhPaOeP4xBHRIoIhOsZixD15g/BwcPXT/ZwaB/J3NbI5PmjvQSJSEWs+igU5uC0CIdVBIJ7izDw4ii88Y1vHGyA1CZO4bC89a1v3Rh/sQNHgZ0WBRdddNHwU6ccBry56667bvBSvUxiAzlWRGiCZ0O+ihBosYowaNfB8qQzIQX8P27E9saMv/10kwrZI06EIAqCSPMN2/Pwc+h7rP08Vv0aGwpBm4LRt4r3kL5raXP49hFAkG4o5N0KIjcoD51H7KZkUIwHsnWstsbBMkOE6TqDGF2n9juuVIi+s0RRP4wh9kEgDnj2rqUVZNpBHOgH/SwiETUOUhoMQzt/ELg+k5ZRzLgsQgTR/65PX4WA1TYpmbwVclsj41rz/Mk1DoXCpnFY4eCn164Ih7kCwbW95jWvGT4HIoe+S6C73972trcN76+L4C8rtkR9t42dFQU8NSFiFdHrKKwW119//UAKQjrIg2HNOVgTdlNCoMUqwsBwrLKXfr6x8t+ukcBABo45tQ4/oxf6Hmt/3lCoTcHwCnwnvOdeDh/JyZE7jzy9m0hbCSJtRXyITHGh63b897znPcOSQzk5/eI6hNN56kJtbl7iJIgRnN+uj9qPvBHn2LMYXJOXyIT26wt7IozdjJFjdP3AYLjm3vwRuXGtednrWIQooI+MnX4WfcjFh7EVsjE21vrCdfupH7Mg6NU4FApHjX0VDssEgqXhwGZrZ9RNeRDbpviLE4IPt42dFAUGgAcqlzI3B7MM8r/WX1NxdnBjnE3AbQmBFkGsCC/CyvlGiL/9NKkQk995ncRLe4MEYffQW1Uxtg4/Qxtz6DtjTBjYLwGxRY0G4s+EJJXgBhnL4UehpSV4hAMxFFX6Uj3Ggpcsly/07SZElJbuxA2qep+AQJC88CDGgOcW6A/zSvsdNx6vnOGGdtN5/oEbWvt5/86bn0YZMD4xfxQHOT/SJTh8N0Oqyk1NvLRj19sprS0iNOa9/rfc0vJLosrnoBUEYzUOhcIuYteFQysQ3FvuMelG97731QNEcfQmgL/YZc8w4SRtEzspCt7xjncMno0c8CYhDMOIXn311cPAbVII6MaW4Nu/hcERGgIVSs4TOCY2D3vuXvotnMPn3QwtMUJeh8/rFtYX4uelSjG0y/taZGHgHI6BrNUdEFy+lwnJtbheAm8Mbipjov/1k6U4qvQVw/l+PM8hh75jLb+b0A2K9ClyUQCpgazgo7DU0j/t1DbCIXbxi9A7EE6iDNoRhApqGDzumGhRZxFCIOaPzyNbgkjqRB9EMaIxIHjMPYKhrTjOEMkiBl0Hovd9ryDyVpgRLoQDMSOaQeTk/tf+KaFXKOwrdkU4sD9WCLjHwf3NJrg3t8FfnBZ2epvYSVHAm2Lc192PfQwGjvGUQuBZzRUCuigmWjvx4m8/exOw/RtJZcOe0Rr0wJxli0F+U8sN23X4Efp2Y4giEAht9KAFMhUdQLqEB3KmmkUnjJdHDGs/wo51+P6egtC4tugfBOjapY+0y0oBxM0IROgb0RECju3mQ3q+ixwV0Cng83njGzsBEkLxXX2sSFIUJcLxkarQvyr7c/8bW2LLuXyHiAohKaqBmKPGgWARGTEnIiJDjKgF6KUHMngbljmKOFgSSby00H7tjFUV5kSMqzlFlMT8mSP0CoWTiqMSDrGiymfZcM6S97bBX+73m266aat7GOycKGBAeZZhXDcNxYuI87zzzhv+3iThzw3Nth4fjAmCwFRRGrJqlxuOgbhAIPo4+veOO+4YahB44SZbj8RzEaEoh2vI7RfZITCQoPYLuRMebYh+DMhLSB/J6nOKW6rHw4JEDqwYQIQBxYBID9kSAYjP96LGgYInSlwvARMRIb9ru++7JtECEYjYjlh7td+YtxEBIX3EHyFBn2+X9xFXUeNApDiP89k+eKyYsF0FI7owFiFyfH2VV1WAEKaIi7YTT+aTMSDOlgm9QuG0YhPCwSogdoMIYF+Okr+2gZ0TBUK4V1xxxZCj3QbsNsWzE6aOQe8NePv3pnOxWRjwhqcEQaAtSssb1CAPpDIHSIhnHzl8XrKJjPS9cugb2iJC/dFrv2MJUyPkyK/PRRTU2QjIJh8IDwGLAhALIhQhiBBjkLi0BYLUDogNhSj3yOETD22REC9bSkDbXZOb2E/knoVAm1qKFEzUGvSW9xFO2qQOQcjPZxyTx6FfI7XhmrWROOmtgmkjRAST8TZHzMu2//W7OWRuu3+s+JiaT4VCYTmmhANHjd0D95sX28hubQP4y/Ht87It7Jwo4N3Jm8gRbwOMNE9LNee2CH8ugli1A/nMMeBRlIZ0eaI86vYhTnPAMxVdQLwR+gYTHVEhUeSl7iA82Hb1QNt+L8sM9aln67tBVgESRKhqKYgABYQRjQhB5NiiSfrKez7PC4+CSjcwj9lNy4Nvc/iIMwQCwvV9/UhsiBj0hEBGhOr1k90Nx5b36Rf9Q+REkSXjQVwRFW47EQ79mlfBtIgIEVHg2gijvKqinT/6yPURN2MrLAqFwmaAnMNhEpUj9EVu8cw24LgcE+nVbWH+c1KPCDbXycVfm4ZjezGsjOlxCQLg4WkDz73dhGYMiNYEVJCGHP2+DmzuE3n8EATgb56v94gGxIUwW0EAbfv1Ka83FPOqQJa8fyRJECDrCMFpr3MgSWF11y2SgfxznYUIgLYTT0GeGeoFLGn08juiJXzMAyFA748JAuDtu2Z9p01j4LETLbkNjIa+ZDSIEb97bwquU+SDoCCO8vF680d/KVLsjVehUNgspBQ5HhwZq5bYj2U1CIcB7sKR28TDXmfd3w5BbpvH+IxnPOPgnc2C18ULRQIMO2XnOQGIAZEIySMkr22Cp8jLY+SFh/3OU122plXYX/FcVNkLE5sokdOeAysGnM9WnELx/hYVMME9AAhhWZfP00a4SExe3+598eCcXvtV6RMUyNzL9cyFz0sf8JyF9YXTERzxo20KGJ3Tk/mMkznCU3YzipqEeDC2rsPNaXyD4ImHj3zkI0OBoip/Ny7SJl7ULgSRuk5iyOf1a35QEEilSLfY/lgdhQLG1ggQa/ZM0C8+T+T4abdFYkG/iiA4p82WzLXe+ElB8Ap8X1pG+9UOMELa1va/3KfzmhtRo1ArDgqFzYENEiUUceTAsBccFaKdPWA7cYlI6TaAv9jsqRVdh8XOpQ8YPh2qg7MHuym89rWvHYy459sz/F45RxS/TxWXxO/tkr+5CELNNQQRCo5weQvtEhrWdiHkODdP3vtzly1CXt6HUJftpQ8R+uYd+z/xkNtvvOTlbUutf6LYbi4pqSUhDJA0oSOlwXPvrcMH53IDImc/iQWhfeE130XwCij99H6uEdC/+toNrUCRt25dMUGIUAmBtgbB9xwnL+9DvL2nUeYiy94+DhnapV/z8lAYKx4laNQWGB/XEf3vvvnWb/3WoW1EjnYRFCHsCoXCNILwMy+0f/vZckE8xyVWb33zN3/zVvnLcS+77LKDdzaPnVySyBBeddVVa+XKl0GeVcX5sg0gpopL4vd1hENPEATGhMGc5YZzli2CyeraogiQB8tbFS1R3DeVxtB29QZy6ohULt/1xTp8Hi2C035iRbsVAi5DLAckUrSHF62drhcxEguxDh/0P8I3lp7R4Lp9VkGhFQr6HaF7IVurEeK70f+OQWAhUbBqISIEuf+jBoEoEoWwhNFSwSgWJMgQtH4HkQhCS3v0laiGyEHs4zAGUQ0iQ38SHyIBjmmeZGj/2bNnh76162KsLNB/2mEORfu114swcLxC4bTCfRN2u7Xj8befPRve/t06TGfOnBkKj9kFDoWVUtdcc81W+IsDwqF1j28LOykKrD7Q8XaE2iR4WTbD8bQqxw8PMAz8qlhVOHgJh/PKkYv35Ytz+LkVBqssN1y2lz7CjZ3teMl5GRxiXkYgQahUsc8gS99Feo5jRURuv+MJi48JmYBle74f5+dNf8u3fMtQn+CG0895GaUQuZB7PLLY+RSPCqXrsxhXqQNjTixYRhjt1+/aSRjlugDHQMLGKAsD3+P9O35sXpQjCM4hv0+MSRH4XX+6bkLJ50VCRE6myFlYkLgiqOxk6ftZFET7vZc3tnLMEHrt/HFeImVTO6sVCrsG90VL8O3ffoYd9jPb5Px3S/hzIDIZYBvZMrZiW/wlWukc28JOigIeFjWkkj0M8ybwspe9bBh4UYhchZ4N/LoCYQwhHBhmy+WQGdLIE7eNOPC8CQHkSHkKnc8NAUeVPlGQN8tBFiYTIlWYxhttl8FNEUgmpIhw8NB76/CDmHj3aiCQuZukBwRMzGiPSAHBJCrieo2NaIBURyyjVMzj2MSD+hOfcT6evP4zb1pBhOzl/nnX2q+/RR+E2TNiWaTrQ+5BrL3lfXn+6DP9btykFYgyhJ4NDCHjnBFRaJGXG0bExSuWhyL+tv+ht49DKwxiGSWhUSjsE46b8MfgnO59L8ujCXq2S+pbtO+lL33pxvnrFa94xSAGOM3bxE6KArj00ksHAr322msP3jkcGHZ5GKFkhhkhhoe+bYHQI9SMEA7xQk5IhLeJFPTDslRFjjjEskXnda3+9iChqLYPD7aHHoGMtZ9Hy7PtrcMPYhK2d8Po9xZI0vJThCcd4fhBjMLvsdNhLK1Tx4Csw2OPcRLxsJeB7yJvSwWzICJePMI0Hmwk1C595BgtpGG0R0RC+wk41z+1vE+79INUhb6wBLE3f3zG+dsVB8SO68zLDYHBi+Wh+kpf5v7Xx719HOJ/IQy0Q6QldrIsFHYB7quW4Nu//ezZvfbvTRL+GLQlhACbkiOSnklAlBME+ER73Mub5i8PCXTObWJnRQGvjuG2c5MissOAgRSG5nHbESoMLQJrd3vbtEAYI9QxjG1QY4LFzZJvmHwjtcKB90pgCJ8jOkV5yH7qBuKxZwKZaj9yRZ7tOnwheRsBEQ2+y+tXqxDh/oDIBOLXx9rcI0ZESvAoAjSOIgbaEU8lixy+0LmCQwV2RJR2E0REgjZoC5Xt2t3Ewu89GHPFjUSAKIaCRttiI94W2kKQEF1IW07R9Vv5YP6280dkwyoKO5+5XuNmrIkp193Wn4Dr0AeElchRFCMaUxGQ2MK4FyHKwkAf5hRMobBNmLdhl1o7FX/7me1V/N7+fRSEPwZtHBMCGbY15hQAh8Z9+uY3v3nxohe9aCP8pd5LFAKPbRs7Kwog1JGnGq67j7QOFXYRPmYso0rfADPgbdV3xmEFgq4dI9Qeeh5jNuzLQlHaGDedF+8RUSB6kQHtmBNxsKQPgTgnou21HxkSHO3SGNecQ9+ITPQBcrGdKMi3fdu3DQTl+JkY842oP4yRJapIWN97P3L4IiLmBvIHkQdigDhoq/Tf+c53DssvhdqnQKiov9AP5gzhkfvfdROWah70qzoOosRSwZyC6c0f/wOCa1nxaDt/9IV+11dEgnmbRW0bIVKlnOeP9ppjcqDGulBYB+bXSSD8MWh72J8pIQBsBFtAlKs7Yj9dl3vfPc72bYK/HOvKK688eHe72GlRAAyaHIqowSWXXDKQ2lwQFW94wxsW55xzzgMd2lbph6FFRrzbMcJfVSC0Bn0KbqIpj3EVYQDhwWozEeThOo7vdwWOcfPmGzjf2PqYkECOSA8x5pvZZ0x2E9319eBYEZFBltqjPoLXLWph9YD/6T+kyBMfuxGNGWHgZR4gVkseETzyjYcdgWiFY+irs6lK33UQIfL+2p2jES0c17wxbqIr0f9qECzbZAAiBaMGQQQipyt6KZg8f4gIY2z5o3RDD1PzR9+JOohMaEc7BrFs0VwiuvL8scqkt4yyUICTTvhjcE1j9qcHApvjw2lyD3qxKyKGIFpo+aD03ib56yiw86IAFN1ZC2rgFLTxOKfWgDKKQq68Jl5hG3LpVem3oe8xsoNlAmEVQYC0lnmMMEcY8GBdA0IneBBH3sJ47rJFHmc8TAh5SQ+EQfByI/g+b701BPF71Dg4hja5TisfkKfv8eiJBZ6u803diPpYcaioRKQghM61w74I7bUYe33gOFGl7/huVEWLxE6vxiEgLUK4WFXhZjaeiN5NSmDZ9InBE4lBvrn6GNoUTCCeVUGI6g9ihpFYZf6Y26Is+kK/ekUxYhaTig/NK6JDO/L8MXe1X3rE+Qm1wsmHedUSfPu3n/lebn/G7/tE+GNwrasIgYAoovvO/eu+0x/6zv3mccnuc959OAWb5q9tYy9EQQCR6Cyemg63ex4jz4AL4zC2BsD/eUJyOQa5h14OVldkQ5uLEcfQCgTnY/Dl0JcJglWWG8KYMMghLJNUQSFSUqHf7pS3bNliS0j6iAHQRogcvjW4YUy8wqBkQ4NwwoggfgSKiKhsaQXjx9tediPqW0TtM3L9IiGuF+ETc3kZpfaLEBgXFcCARD1kSYGfML9+J1raGgfI+zgQUYSVtjMA5pr+0P/6x1yMjZJaMDI5hy/c7yY3HvqOoDFPeAFz54/+c91Z6OnriMgY+5xOUEehvZEyy/PnVa961XA+ffia17zmIfOcICIstNu2qqI82tSrrSgcP8z7uO/a+zD+9rNH9PEzfj8JhD8GfbCOEICIwIoMutfivne/ZsfO/cSJabFJ/tom9koUBBhBxG2QwmiZ0DxQRpExnbOOs5eDhSlDOwWhWYMuRM34tx5gIDxGE5SxntPWQDbsohr6IYewXNPY0/sCPUEE+iELgoBiu7Ec/hSQjmtEysbKrns2GxJicxMiWsfpGab4HXlb9kikETTEkOvt5fBz+40FwUEI+L7z+T9BhIj1m3RAFlftPg4UOxEjWiDKANH/2maVQxRZ9uCa5fDNH+fVpwxHwHHyPg5T80faYkzoAQPnmno1MjlCZDwszTUHgVGynlo6hZAyd6REXL9+ZPgYLcc1b1y3fmO0RNQK24d5W4S/PvTNukIAcg2Reyt/b1XHDjbFX9vCXoqCTaPNwQamDG2LTEgGdSzFIMSbPcZ1gJjklXlvSIlxdsMDj5qhH8tVB1pBFFX6rSCAqRz+GNobEbnrS+dDKnJtPE+KGXFrTzZwYfjkv1XaEwVuHpEK1+sVxo53bzmQPo/26yOfdZMh9ti5MASRvnNdsaGQz8c+DoRBGABtoeDzkkTPZkC0VsYsq/HgHTiez7Z1DM5PBIgmmA9j80c/8NzNFzUhU4gaGZ4/sRGCNCJErtF8NA7mousU6jT/RVMISe1xHqIrw/gzaNIo5pn75cILLxyMWWE9GIeY83ne57/9DFLv/YzfTyPhj0GfZfuzqhCANgLLyQhkx479dN+eFJQoOECbg80IQ8uIIqPW89eFY4QKYeB5ydShAjHE2B5nDnxfW3jbiILnGMTUbmE8ByGIGBTH6bUfpnL4gbEbMWod3FyK69xgHv0p7CZ8TXR5rxeR8QhtYyIE7vzGiDhDWGFA3bz6BOnq2zCUFLw+Uj+gHREiD0FkzJGgMZ3ax8G1C5urD3A89RZIkzBoUzkB7WI0nFMahfBgPFoQLAibaBqbP9YmG2/HyAJzav5EjQyR63oc27ImcxFCFDGSxscY2Omzt3FVD0SU50XYT8Mz1VaZc6cFRfhHC315WCEAhLJ7J0dgc/+3qcCThhIFCW0OtkWvGHGZIAjEckPeJ2Ns4s418JCLCCOEFaFsxIQYI/S9igHR/rOdvfQzCBGKuZfDn7oRgxiRsNQBjzLW7LqxrAZwHJsKIds2IqMgULtcX2yUxIu1gRHPXUQk+p9y1waePoJ1bqmFeE87c42Dn0SKaIJ9DYTrxvZx0PdC6tIIBAFx4JX7PwuDNscIkYKxeVGG9ttYyWqFM52ColbojUWgevPHsc0ZL5GWN77xjUN/Exiu37WKemj71VdfPcz7VWHu3HDDDUN1tH44LdC3LcG3f/uZ51sR/uahj8fszzroFRFmcKDYNLY+pwJPEkoUdDBVpZ8NLQKVL/eZMUHAOITHSGjkCvE5Bn4qhAWICVk6/rOf/eyBXObCtYSgiSr9VhDJbzt+zuEjdO2cuhGDGKUGiAr5crUI+VkDlLiXPkIo2pND38LUNpwSAcgbJRELBBaBkAWZ88Q6fO32Hd/Vn76nj8Noe1k9gOyJNGJEpKAVDvG7x1UbawRqBUKgFQZjOUbnkK/nWegviP4nYqRJpmocesQxVyDoX8VPPgfO47sMnJqBG2+8cXh/XZgf11133eLWW299iOjZRxiXluDbv/3szZP27yL8zUPfm8tT9mdVRAS2LSLM6O0jcxJRomAEy6r0Tczbbrtt+GmJSc/D7nmMY2gNPK+S8XEM3/XqGRj5dt6aCALSzaQyhSCkNsLRCqJYh+8a4kaUBnEeQqF3I2ZiFFlwbT6PjFpog+tyswWx+o73bUNM6AjzK7TLnqiiO8cV1s/td2MjWOSubW5e3r0IRQiyMAC+TwQJA0qjSD1ICxjTeAUBIH9eu3HWH5kQCBDXy5D4W8Shl2LRLp450UKA5P7XrwRXW+MQj2lehnb+tAIhdoCMKAGBZZykZ9aJELS4/vrrB/GqhmKXUYS/nzAmYX82JQRgqogwYE6w4+xH69idRJQomEAUpREFY1X6SEnUoA19r1OVGrCXPgJCbAroVL73PEDt4H3yxrVFm4JYp5Db34twhCBCqIgMgeQbkbc/tQ7fDezmEQXwPdEOoffeswai2I4nj5i13/EJHefTj47n6WBBtNqPzBgIu4VFKiOAmNzsL3/5y4e/3dCMuEhHGADHyvs4CO+7+bWxjRApcNRG7xFfohfaFC/nmvusCuIG4RMWRETu/3hokmPkLYxXRSsQRBtEHcwTaRfvqwew6mBuDcEyGHsCxh7wxvo4YF60BN/+7WdvXNq/i/CPH8ZqG0IAlkVgA6s4dicFJQqWYG6VfhQjIiik4ydiZPznohfCmvIAhde1J9rRhrJ7cB1TgiBuRLl2JKV2ApG0N6KbdGodfoS+kazvSk+MQbGdlICCQm2zKkEhnFoDBYBI2bXrE8sAo/2ISD/ninykGt6qzwpnEzbf+q3fOvSbPHpvHwftt8KC0GkfLiR6giRcVy46hJxjRCjR/wRVkJFXJif95JqQf5BQEJJ+N+e0U99HceS6MH+sEBDNAMIoxJaNVjYJwknf66NNowj/dMAYbksIwLIiwozDOHb7jBIFMzGnSh+xMIyK4kQWohhxGXpFhD1kgeDFw1VZnyMIU8JgTBD0bkREivyc0/fcGO0uXJHDR6R5HX6Evv1OicdywCl4rLTculD529/+9uFBIqIIXtIU2kXZ6yeRE9dNKMTDixQdghA8YUAMIHkCgHfu2G5sRmBsHweGItI1ESESHXBeYX1jn4sOpVHaHOPc/nddhA9xkYmNYND35o75MBZxiJ9ey4SDh7UQmD6rDfrQe9JNmwThYZ7cdNNNQ/vnQpuK8E8vjG1rfzYpBALLiggDJ3m54RyUKJgJ3SSkjTR6VfrZYxSKMvm8eIOIvme454awWjiX9AJCEQJvIwg9YtL+LAimbkTRCuQnCgBj+zhAuw4/nt7HyxdpQOi5uHAMroGgQpSI0GoFUZAXvOAFw89oP6L0exQjKmBEzISB8L3iQoTt+z/wAz8wiJrnPe95QxrmzjvvHESHPhnbx8E5RA8IGk80NIbqEXJdCVEgukE06ZM2xzin/11Hm4LRz66BwNGPQvv6xVjFKwgyE+cy4eD6nYMIMD+Mq3RJO5abgKeQ6jvzAVx3S/Dt33722t/+XYR/cmDMj0IIwJwiwkAb8TyNKFEwA9mg96r0x6pSGTykz7s3GUNIrBLCatHb2a6XYhC2jxy9okXt957vTN2IsQ4fgWSF3O7j4Nr0A3JGSsL4hEDUOLjpeey94sIxUPKI+/LLLx/EBtEkRx3tD0KFvDzUtRBf2oigfS8MAJKVDtBfogo8dHstjCFqHBCn2gr9bWxCEBGFohr6CdlGhKJFFga99oN2Rwom5kquceDRTKVdAlPCQQRHXwFx5RWRnG3ASgbXYcfDaEcRfgHMhaMSAsCxMReniggzsmNH2J5WlChYgiwIskGXZ+bhI8QQCGNVqW4ABKYYEVmZrG4IIVYGcS7sKDcW+g5kgeC82ohkwgAvuxEdn1cZ3mtG7OMgHy5U7MZBvIDEeO3a5RUee6+4cAyISuTDsUVNgky1W5tz/4Ox0a+iJvpUlEGbWgMgpcCz939EJaogcjAGn9UWXjWSDkEkykBwCCk6TkQoxhDCYKz9wItRGyJyIEXR1jh4b5Vlpi08iEUfGXdiTT/JlRI+24DjihRZjVCEXzhqIQDrRGBPy3LDOZj/HMdTiDFBACY1AhM6N9GnlqkIVwk/I1WFK0gaca4iCABRBemOQQ5dzt3L70QC4uFNInrvj92QityIlp4gAOLHDY00kVg+jv+5qXjuIhSEyyqCgEfPC1dgJ6eOHIkCxKL9ig9bIBtE58Xg6F/93F4fDx9B6w+1BkKJU2AUog4BXLOIAI/b//zNgxcJsX/BGJa1H7SNwDAXQhAA0WLTJSmYw4CBVFyovY9+9KOH8T9s8eIURIy89JNrL0Fw+kAIiLKJOCoUJnBFF+2oiXS3JQhEBETGrExisz2RcJkgcO95NooIoTql0y4IoCIFI5gSBLkqFfHxnpFRXrYY4Jnx1JBoeLA59D23GLHd2a5Fq8gRF9HiJ0ISpiYm3ASRYvC/KFKMpTfSBkLMLdrlhkg29nHwP8rcOn+RBiS06rI0uxQibaF+qwakEggNgkr7jUXO0ecUDPLWl8RK7HKor41J1DjID/o84xRjN1brwEggaMfTFqTub8fI+zgY0yg6RIQZef702h8QUdFm/YpAHTfD95w7IjLL4LzG2PG87rvvvmGcgPDQZv933m3A9tUKMBUbFk4PWvtzFBGBjLlFhBlh83LEs1CioIts0LMgaImRVw3tskWRgGUhLJ81ib3kw31mLNoQy/vane3GbkTE07Y/57iF0XMNghuXx2tdfO9hR2PFN67t/vvvH7zq888/f6jUt+Wt86pub4lyDMSLokACQJ8SF9bRg/0JILdf3+o31+tajQli1keiFbxi0QAesbYTCMSAPiKOFAjquyikzPA91+M82uT6bKAU9SCQN7bSB64zL4vszZ/c/hAGrdDrbYWcaxz0fyZ8v7d/+xlhez+9pBAIveiHb/7mbx7O3a4m2QRe+9rXDse97LLLDt4pnFSYa8cpBIBgn1tEmHFalxvOQYmCBj2DDnOqUoXNeZdCvz/90z89TFKvqRAqQ048tMWIAWQibRA72y27EcfaDz1ikl4Q5nMsUYM4XkQQpopv1DggLNfnZkQGUXSIzOZujIN4fYe4cp3Rfn3O249iO0SmrUjTBkLOGY9Fjs/kfQTuuOOOQXBIZUREhhGRP9Rm45g991xkKZpDYBBQiLX14IkB/eL7+iiWRc7tf8ImCz3fc36RFv0sShIkb6zNJ6mGlvD93v7dzrczZ84MwpPYcj0veclLFtdcc83oPD4MFBgSiK6xcPKwC0IAVi0iDJz25YZzUKIgYcygz61K5dGrTEeI9sdnhOfCDcb7zTsjRuhbnl3+etmNOEVIgVYYIEk3l4I258sRBOd009nGuZdri9A30hVGVzCHELTte77newYRo+1TcC55cwKDIBB6jvYTBYrteOTGQFu0Q8pA+32HCMv7IDAW2qLOQOEjD7uNyPD0eQrap5AwgJC1nZAQZXBe0RvChxBxzIyIEBEIjpUFTe5/4xIETwjY6hhxEyqMVPbwY5zPOeec4VqD8HlDhEKOSMxFvkYRA16VY9vRcJMgikV2iNiIohX2H7siBGCdIsLAHMeuUKLgAYwR6pyq1DaEhUiICEbc91aBczkWsghPlRe97EacIwgCIQy0TRhc+FodQABJIXyFe46HjNsIQhv65rEjUh4tkaCgrV2H3wMiJqJ8zo2e288AOAahYmliGADt1z6rIDyKua0NQOL6zk5+ESJvIzIEg/AhwYPsFVk6LqJvc4xEgj0LRBCQdIZ+1xf6E3nrIy+G1CsTvu+KpGiH7xGOzt16+OoqYhmlsQd97brahyaNIRtykRgGUc3Gs571rGF+vvSlLx3qDeYcay5e8YpXDPfAFVdccfBOYV+xS0IAcg2Re9OrjYhNoZYbzkeJgl9Hj1AZc5Moe4wtekWEGVNPW+wh34jy2SDagDy0bQy99i8DAvRUO558XlbXK75p90Gwt7+f6gbcmLz18Nhj2SJBJKQf6/B7G+W4UXn1iMlxov2tARBWJ8gyUcu/+4yK5kxs6gGQnT5B4iIZGcYDKRMiRAggX4SrzSr0GT9wjCB1osF3CRN/e2XCFyWygkLKRN+Fh58J3/GIIELAtRqznMrJsIyyTcHo//zQpBZ5/rSGnKiS1jKPjaf26NNrr7324NuHgyiROoJ77733gf4r7Bem5s9xYp0iwoxabrgaTr0ocPktoS6rSl0lhJWL0qQEWvRuRO8x2r3QdytOeu2fA56ocC/POIhpTvGNG9T5eOe8Xt/z3AK7PGaPPQQRgyI/L4SNIDM8ZVK6RHW+m1X7wwDoh9jHATkibf3hc7Fzoc8jo2h/3seBUGMIxvYR0N/aiGQhzif6oP9bD99Pwsd5zIsgfCsfpEr0v3baSdFY9SJEqz6ropeCiYcmRY3DXENOwOlr0H4i9s1vfvOwnbQdGw8D10GciUKcOXPm4N3CPmDu/DkOrFtEGJjj2BUeilMtCnqEOkWM64awiAeTM5YtTt2IvGeCI3a2A5M7h76jGHFdQcCbR7LOYaMgBMuLtLzSzTOWD44ah3h6H4/Td3nnvSLFEET+lg5RhBYgJBT1IXlLJf2cMgAI2XesJc7FhZlY/V9kALnrM1EKx/VekLxX/E7UiAAgczlG3/PZIPzw8ANR4xAbCrX9L3pi10RtJ0pyhIgAI2ZakTIlDByjl4JRQBnnWGbIs4AlmIgY12XseF5qYDxpUlRlHWi/tIH2XXnllQfvFnYZuywEYN0iwoxabrg+Tq0oaA362HLDQM+DXQVy2AjVT+dEhO2NiFyRgHC2YpgWbmBt4PEpfCMgVhUEgMiF8z2uGNFpl5uoDcVn6K8IfYcoCY/dckBEm1MMYWh8T7+KSCCh8HDf+MY3Dl55HGssBZOBwJCZsbKlchC8iAAvHAE7h/eRuuO7rhjP8Pi91AlIQfDc9aFdC0U69AkjMuZVEISOidx7goww0R79GBEi7W2FXsaUMDDm5oTj6MMw5uYAgTRWr9ETsIhflMGYqC8gilyn4k5jeMkllwzvzYU+f8Mb3jAURZYg2G3suhCAwxQRZtRyw8PhVIoCl5wN+lRV6mFCWL0bEYnx1Bn5nGefs4VxwPHuuuuugdye8pSnPOCZz4FrocSF4nPxjWONERO0oW9olwMG2hoE6QGCB1m6UUUcFL+56aNf/W5cWo8+/+17ivqof+SvzYieOHE+0H5FjuHhSxHIv+eqfTlGqwBECKQ9XJdHKzuuCEAbkWlBCCmodN09QRbLIs2vvI9DT+gFesIg5g/Sjn0kiAB9LvKgP3rLPns5WP1orG0uRKSA9l199dXD3LSXgfPZBU7xZU+8BJxbpMk9Y3ljpQx2EzF/sv3ZNSEA60ZgW2THjp0xvwurY29FgeIz3h1C5xGq0kc+jPEUWkEwVpW6rIhwDHNuxPbhQoBoYnnfFHL7eXvayMMVvVh2E/TW4RMnQuww5rH2Qt+5uHAKIRC8fN4WxrxcXr1ceYT2g/yD6Hs/tdnxCI0ottPm2MfBcdv2R0hf2x3HWMsxMiAEQOxCaTy0T6QAmfJYiAZjn2tB9D/xpi2e4Bh9lxHLIkUGfJaBIyYZqimydS2iFwSStE6eP65b3+UUDPGR93EYE7A5lOp6RKLA73/pL/2loXAUPIQK2fPUjA1xanz0My/OfOGB+b92qEUoT2y3sC9CIHDYIsLAlGNXWA17JQoYRkaWwUWsSJDhY7QQAmOFPCzbYrQQZUYrCHpVqYyfSSq8bJLOCWGtcyPmKn3tR15jWxgH2vbHe9rrtWxnRH2nXe06/IxWGPRqHISgEYj2EiTakD36TPLxt5+uWWiPiLNzHwGkr5wnyH/MQ8ipCp6zNrjeXOMAPWEjpI/MtBMxigy4LtcUMH88oTEIlUdubiBZfeU9cyT6Xw1G1Dj0IELB4BEdrpOwcs42QgT6JuaPeW2eP+5xj3vIngTmi/6JFEzUODimY/dysDmU6v1o/1ve8pZB1OinFsbbfCIyQnQbH2NGxJp7+qmwG8jzZx+EABy2iDBjzLErrIe9EQXCnrfccsvgvQh9M5h5bT0IwTNoQt0IhLG0Vp0xc5lhEOXjw2MMYlw1hLWpGxERIQJhWEQzhtz+EAQZiNe1j4W+p9bhtwhitRwSmQlRK1ALgncz82SlLYLws0ff/tQ/VjsgUdEKVerqA5C268k1CGOpkDZVwaMlMni07bW2wgAxIk/iAWn6LkHQGiIrEYhCqQFzLMhbVMDccB2ehWA3RXAN+sWDi1qYX4SB6n7eNuQIkesdmz89YRPIWyFrq3oDY573cYAcSjXHRdKm5k9hv7CPQgA2UUSYUcsNN4+dFwU8OM/Xpywvvvji2VvnMqz2z7eEy37s0gAMIoMaodQgxrlFhJu+EbVR6FvKA2ma2L1li8sEQYZ2uRb95qZzPOFjRDi1Dt/L7/G3a3TDISXHCILnNVpVIBwvfRHk3xNQkYJB+ggsrtF3ETAP1o0sZC8/7pw9gdBLVVgPz0NQHNcbL31LGMaqCoTpevSBOeCcLYhKIg1pu0bCwfXpJ8fiwftMRGQQr35tNxQyn9QsGFcGK9Iu+tVxjblIh++NzZ8xYSClQeDoe7UK2tHu49CGUleZP4Xdxabtz1HC/U8MHLaIMMBOtY5dYTPYaVGA2C644ILBkKtu9nNVnD17dnhIjwIqIdRclTonhLWtG7Fd3udmMckRcH7a4roGXXtVvyNxJCWHT/D4OwSAn9mjzz+F6JEpwsnENFZcmJENAGGCGJGkc1q+Fo9Utg7fGHuFIEK8PF/tJxCcV4Qh74MQNQ488LFiO8TYrqp417veNVyzqMwYXLd2mhNy+Irucv/7X47I8MDzhkIh9AgYNQtEg2gCAZHnj3b521wc29iqJwyMpY2tXLcCP3U0hILziG7oS/NIWwnfEgT7jX0WArCpIsKMXCPjeIXNYqdFwUUXXTT8ROqHAYN53XXXDRu4eDHsJupYEeG2b0RdLr+fl/eB0L7J7v/IQu67Z9D9P0jdy+/t335aXhY5fDeP0DciRfxB/r0bNG9hnImJlzxVXNgaAH0bxI9gCaB8E+t/4W9k70ZvBRGBwEPP+yAAkRE1Dm2xHeQco+vUfsclJvSdrZEjpN9CX9kHgHePgHn22twSqnlBHCBk/SwiETUOUhoiAeaPtrr+ZzzjGUMxVUbs4zAWIYLof9cn8hIClijKWyEbF30tYuB4frrWEgT7B/fuPguBQERgD1tEmFHLDbePnRUFagiEiBW0rRMhaHH99dcPpPDCF76wW0R4lDdib3lfwHAgZXlsxMLb1I6W8LNnH7/nv/M6fNEWERE36LJixAh9I5sQDIgJOSPM3rMGIAyAfhOR4B0jpCAsYb7zzjvvIevg9TVhQIAgc9fvhkf4ubjQdTu+ZxAgUAJHv7iOvKFQL8eo/W9/+9sHYYO8c0i/B6KGENH/+sKeCHL4PTiWvnX9QLy45jx/essiA2MRokCsZBAtIcbyMUQoiBLzyDFELwgxf5cg2C+cFCEAmywiDLQ1Mo5d2A52UhTwEIVCX/e6182uIVgGk0ooWB7XDm4I76hvxCB8XrMivjEPH6kjUr/zOomXVgBMheAQY16HHwWZjp9D370CvRz6zhh71kDPAGRCkkpAsPL07fkCjqHNvH9iiDhw4/MIjAUvOe/jgNhzisGSOlEW5+7lGBVZIm/zijBw3Hi8cg/aL12FYAkU55WbNz8y8vwh9PQ3cUNwuPaANsayyF6Eoo0QEURtDtaY69OcSgDHVRip+FE/iYppqyhCCYLdRp4/+y4EYNNFhIFabni02ElR8I53vGMgTzngTYLBZERt2LLpG1E3tgTf/s17Z+wVuSHdIPhM+Dzs2EufkaeORUoQ3TI4h88jRiLIOXrep+tG8MLabl5ealvjkBEeO4JBfojJORyjTcHohxAEroW4Ad7+FAiLWIevSl/0wPc9ihecH6ESBRmIHunbf0HxHTFpPKNIMfKP9mZQH6FtBBnS1CYefEa0H8GrF3A87TImoifqIVpDbnyJNKJElMEx2ogMT39ZhEIkS38RPYje971yxCYLA6FURlhEQzSDyCGWzp49O8wX7xV2C+bKSRICsOkiwoxabnj02ElRIBQsTL3ufuxjsIyOoZRC4FnNvRF10TLC9zNIPgg+E77PCH2PbWEMQUithyf8zIDwIseK0nLxTW8dfg8R+kbw1Dhy73nzubgQmdpNEekinmwAcvvVSyBqgkao3y6Dy+DmR4CuXfpIu6wUQNxR49AicoyI3vVbsmqpos9rc+wEGPn8IFZjIL2Qw/Ft/0tfOa4+1zbn8h0iKgy5fmYQo8ZBRMVSRuPdRmSIrqkIhRSEZY4EiSdjOneLSOXEqgpzImoziIVIfbhe/yscP9iGkyYEYBtFhBm9VGBh+9g5UcCb452Fcd00FC8iTvltcPktwbd/+zlF+PH32A2RQ99jWxi3hNRiqigtF9+IDoiIIKm5uTyFdaIY2tfujMhz9TImYQBUvCOnHMpu2+96/c6TtxXzXBh3fS7lIdUzto9DL8eonbGhkPMSJYxwFClGBEHbCR1GTbRABKJtv+N++MMfHgifQfJ9HhHij5QW8kXGWegRV1HjwIPPERlzRH1AG6FoUzCiC66tFyHqraoA6SJRMG0nnswBdRDEWeHoYf6cRCEQaGuIzO1Nwf1v/vdSgYXtY+dEgeKpK664YghTbwM33njjYOiFqTdB+HMwFvoOLBMEgbYorUeMzkVM9dbh9xDL+4L0vSL07ZoVehIBFHs2ADmUzZvP7Y8nDyJDx2qr7qfAu7a/BMJDwL19HKZyjLGhEEFknJGz1EiuQXAdvOwPfOADQ9stV9V+7zlmNuSu2zUFuUojEF6ua0zoEU5IWw0L5IiMMSNuRCiW5WDbCFEOpZqXbf8TQsbA3CbyRKZE24xXYfs46UIAtlFEmJEjno5fOHrsnCjg3SGiu+++++CdzYIHxdOyGmEThL8MeXlfD3MFQSCK0pAuT5RHHcToZkU0CH4O2tA3EEreQ6IiHAyd8HfPAIQw0I+Mn/bHTY3kePgKHVcBD96YEAEKCCMaEYLI/0STnKuXY4yiPu3mwbe7XiLOEAgMN4+HRy6C4DpaQ+4aRWiIC4hQvX6SFhkTevqFwMiGTRElEaZfpF2Mn/9P5WAjQkQUuDbCKK+qaPtfH5nPhIRzje3jUNgMToMQgG0VEWbUcsPdwPznpB4RLHtri782Ccf2YlgZ020KAoTDC7eLYA+rCgJQL8DwCJUjR7+D33n5c48j9M2r1rYQBIB0eb48WoSk2I533vMIeKj6kPcgmmDshNw9SlcYn/FYBa4JUTIKBIHfI4VkGaRzaBMSj+tuwdt3PcRTLw+pGFF9g5ffXSdPngCS6/d+NngEiWtE6MDb97fv9JZmBgg1Rk4/B0QbRD0ICxEx/bosvO86RT6cX1vyNbX9D0SDNEfUWbguY1HYHAgB85AD8573vGeIXBHOolv6/yQJAnOJnRC5FfEjtDd9fe5B5yBy1ZKVIDhePOx11v3tEIQ9hU1t9rIN8Lp4ocQAw04B/8Iv/MIQ6kYkJihCiifHrQsTnOH3YJtMuoF1BAEovlE8FzePm5XIiWKf1jPuAVE4t/NGThoYAKTuWAheBIE3jtx4twSCF0T7kRQS97sqfR639uhLqYa5IACE85EpD5cY8CIUHFMo3Dk9mc+xbV/NexbGzDC2rgO5G98wYAz5Rz7ykSG14fjIXUGitvuM8SJ8XCdC9XnXEddsLBn+EHqPfexjhygQQ+lYLYgTZM67Egnwve/93u8dxtvc5vXz4kV3zLWoScgQdZGu8H3LRLVf7YAx1ra2/6WoCCb9Jlqjb4gO/aqdvXlYmId2/hhfc0wRq/tQv58kiAjY3RNZuz6Fr73ltIcFQRWrrdxT+rVwvNi59IEbzwNzGNxtGDHPQWDEPd/eje4VtQV+xu822eGF8Zz97P0+VgAztbwP1hEE2iU0rO28kTg3YrN0E7HYpGgO2hqHtorYtRmHvHMhT9VneMc+Qzzk9hsvRYLa4HerO3qe+hiQLmEgEoJ0Y+leXoefQ/HIG/G5hqju1xe5yFIBpZ888xzaNSa5/xG0OgaCkNgiAtoaBOkL7/sZ+zgg9FhGOQYrNXwncqQRcSFGFR0yhERXXh4KY6FUhCTtQ9S6juj/SCVEukW7iAF94fdc41CYB3bgNKQGWmyziDAj18j0UoGF48FOLklkCK+66qqtbFSBbFR/L1s3jwxCNIRgiJ9TwoF3yJvnRSCsVjisIwimim/if7zD8HzHli1CW+PQGgBKPT8WOUPbeb5y6jxQBXquz1JPZMyj5Q1LP0QOfg5iHwT9pT1R44AYnY9YiHX4Ga6XUYkqffUIiviMRxhzZGs1Qnx3rP+F2CNCkFdVRA2CPuIlmj+eiih6ATmHnxE5WFENqR2E3ArEvNNhFCPqTyLG+46pnRnaf/bs2WHc1WuEIIJWGIiaeAn5irS0NQ6Fh8L4n0YhANsuIsyo5Ya7i50UBVYfMLSvf/3rD97ZDHhZNsPxtEXHjxs+DPyq6AkHxKFLeeLey8LBSzhcLhsRhIjohZ8DYx4jCPEjY7lj4eGpZYuAcGMLY552zwCEx245YIsgVN480kKWvov0HIena3WHvkXsLQmOAZn7fhCYtiBb/eda9DMhooAyagwyEB4jo68JmWzIjXkU20X7xwSZ6I7/GaMsDHzPSgMCwZi59oggOI9zyO/H44yJAdEBfUMoIRj9Sij5bsAxREJip0OhVONJ7NjJ0vezKMjtH9vYqhUGzqso1XxzbH1YRvjBMM9OqxCAoygiDIxFPAu7g50UBSao8P599903m1jm4GUve9lAzKIQuQo9G/h1BQIghxz6hhAODLP8nDA/ApkTcUCSCFrovOf98zQRcI6oRJU+UZB3M0QWlvfxcnkEvNHWAITHLorS5vZ6hMqAInTHFjVQm+F6jVkmpikgYGJGe0QKCCaRj3a5oTYjfmJD/2RD7vy8DmJCVKAVRMieaOJdjwkCiJC+/4t4RPvVbRBCvHLpgGc/+9lDXUbMH2Pruz5rTJG5l7EJqIEwlm1EIXY6FF0xbs5NSIhMeMXyUGKiJ2h6G1u1wiCWURIQsY/DacdpFwLQE7DbxFTEs7A72ElRAJdeeulAoNdee+3BO4cDw37ZZZcNBpEBRYjhoW9CIPSW9wV6hJoRwiFeCIYXj5iRo/da4SAszvgLIct154iDkLWbz3ldq79VSSNc5xozAAieUeSFZoy1P3L4yNz1i2qowEbKLTH1gCSlKhCedITjBzH2cozqGAglnm425PpKeiC+3woin33rW9+6kIJYtjwvQvoiEtpPwLn+EHo8b39bYRHQLtEK59F39ojozR991dtQ6K/8lb8yjK9NnrIXT2CYU+amvnKNvfnTixDl/tcOkRaiBgGYK8ThaUMJgd9AW0PklQXsNjAV8SzsFnZu9UFATp4hF17iLR0GDKSHICGs5z3veUPhGuMfVd9IXNgZEansRrhC7W0V+hgsO2OAhWbbKuRlggAcn6H2XUSL5OT05aGRDAGDxLXNZxAErxnZCjlbjaBS2I0nPaCwjHhg+JCkF8/WcZBEr4qYxy5S0KYNptov8oGoEJ126yNerzYxuJbJ+a7ztf0CiAxJRTW961Dl7LsB/R9V3zwNBo3XLjLBuPgfg0YEOD+P27XkKn0CSXrC75YETgEp6y9zAVEr1lMMGLsp+um6ka9+JjadX/Gh77h214uo2/mjDxxbGwk4pE9MmH+OIWXgnAGfMcYEl2iEQkhCkbjLMIcRv2iEcY55oh363/+cU/SDgDNP/L83JicNef6I5Om/k7xqYBnYNfPA/eBeI4i2KQjMWRFKtojtqdTV7mNnIwUQ3j1CX/c5CATBK17xioG8PPkuYJJSy23Vd8acCAIjPLaz3RxBkDG3+EaI203dPuyojTjwqpGQ0DxRoR29VAWSRZyEiOuLiMNU+wkXEQ1CiCCwta/lgr6bQ99C+oivjRgQIN/2bd82eOSO73uRY9T2KY/OKgcevHC5dpsbriEDAbRV+q5lTrGdEDvjKbyqjxFKbr/r0bf+blMwkcMXkejNH/8D8zGHUnPRYaDtf3NDv+sr32kjEW2EiNjIEQOCyhzTZsKgrXE4KVg2f04jjrKIMEAgm49tKrCw29hpUQAMmsJDee5LLrnkQZ7UMhAVb3jDG4ZQbxYEGWFokZHq+9bQBsYEgu/yyIiCjClCbcFjRN6ZGMeAjJCdNMUYwgBoM0+IR+D4fkc6WTg4N4IgbnKqgmhAKHLRSCSLCJ+Rp0bGro8n4Gcm2xz65rlqUybWO+64Y/if/vY9HvxcQ45YiRBtRr7qBVro/7ZK3/fmFNs5rnlj3EQJglhFUUSF7KVB1Dz3uc990PMYApHD5/kH8vwRITHGlj/GvDGnctHh1PyJ5aEElb7zmYwQROaSz2RhoO5DhEO0IWocpC8U3+4zzMm58+c04SiLCDPMPzbH3O2lAgu7i51NHwTkXxlOJMDIC/m74aeIk1GUevAI5uc///lDgeEYECWvLXbjo255oK3n2Usx2NGMgUV0ESKGVQQB0kIiromadn1j4JELZyNCJN2CAfiBH/iBISTPExAhENbWLtcobUIAMAzIGPnoRysRzpw5M+TCGQ6fdVP7v/cQFjLRViH++++/fxAO+opX7ZiIGenyVoUM9Z/39BUS9T8pDikFx+ZtI1RiwOqAVUK7PofokCyilnrJiP53jVIwBBIydy6fZSSniqq0TR9ZVWG89Z/fPTVRu5A5cUTo9ASJ+YD4jWV4ZOYPIeI4+pxoMuekGRCa/kLURJ85PzV/HJPIITREjZA7QRdzhxAwP4jiSJlEKkH0xhJSfUSYida4Fn2+b9BvlRroI29EZg67T46qP0SjeqnAwn5g5yMFGYrSeHpIjxcmXM/YMXxuAl6/PK7/21BGOJtxmAtdkUPfCDJC6S1ieR9PKzwU5Ol8yBP5LRMEyHSV4puxhx21VcTIpX16X6AtSmuLC4NQxwiJAUbwBAyjLD+JVBCev5Gdl99zqoJYIAa0kQggvIwfcnbtq3gwyNj1ajOv2XVGGHys/blKX7+PFdvlfRx8h6DRduRvrvF+IuJhPjpeu58DOFdeRtmGUhlr80QUK0egiC8pD3Nv2fyBHJEx9nnfAiIyIkTGO0cMCGXiDVwL3yCTBvFCLGo38UIYmdPLajK2DfOqIgLjOI4iwoC5ODfiWdhd7JUoCDCCJj5yCKOFfOSZGUXGVO5sXUwZWmBchcxjZ7sAg0608MQY/zBYbUqCMXbzMHBunjlt5e1GDj/QMwAIbNljmhGz8/NOeZexc+EyQYDEcg4fYYpMjG0EheRco1C7seLV6VeerX7xcpwQDn62vyPvLMxioySkLQqRc/jL2h+CCBHrN95TpDOg3ceB96lo0fXxQCETq3mCnPKYZLhmXpP547zalEOpjmOeGDcwf3juxK3xI9p686cHBOmaejUyWRAZjywIEIY+tsrHT3NH9MH160dRCYLLcc0bY6LfiO5VtrE+DEoIzIP5aw7on23uRNhD2AbzO+ZzYT+xl6LgqNAztGNbGLeENFaDQD2vWnzDa5OqiBw+jBmAdgvjMTC0b37zmweyk3NHzlOE2m6UBNIIQt1BmBmtIUc42qufzjvvvGGJpJC6iI9jEDO+E1EGP+P3HHFAmFHnEMKBdy8Voc/H2h8IQcTzJSai2C6EnugBYRA5WOd3zrz3RBYGhIM+yXMhQzTB8VxzW8fg/PqUqDAfov8Rtv4Q8WnnzzKBEDUybTFiCCLX6HjGwVx0nfoQ+RMwhKT2qD0hujLUWhB10hLmGUF74YUXDmJ802jnTwmBcRCfxvwoiwgzVo14FnYbJQpmIAwtI8qbQxY5etAKghYhEOTU3cBIhLc1xwME3ps8v9eUAWi3MJ4CD5vHTgwI6+cq/R54mz4TQoaxRhDW1gfGDLkIB0GAkOXjtRuxEjpC70SX99qITCAiDiIi2hpkHcJB+kSfIF19G2JhLOKAcAkz3jASJKqm9nEgAoXN9X8ghIEUhmhVW/ipXRFKJWoID0azRWzepH0xf7QhFx2OCcyp+dMrRrQk17EgRBGSVRejD1/+8pcv3cch4Po9L8IySKmHOXNuGUoIrIa4r3obkR0F1ol4FnYfJQpWgMIsIXNeOCJhaJcJgkAsN3TzMsZzDXzk8IXlpgxADn0vyyHmnQuR1tmRvfQDhAgBwKuOYxMq6i54uGOGPIgRCUsd8CjVeQSCWEULREN6oe+A/DivGvlmIRT9z0BpA08fwUaUIYSD33PEwU8iRf9KoTBoVhpoS9t/jK+Quv6K2gWI9hNWxj42JeqFUmMZpT0dMrRfUazox5kzZw7e/ehOhzlCAasIBMc2Z7yM1Rvf+Mah/cSg63etCleJwauvvnqtQjRz54YbbhhW94icrIoSAqujrSGaKprdFtoamcLJQYmCmRAmRqZCq2FoEaj3FM2NCYLsMbbFN8sMPHJRyIdMnGfMACCnXo3DGKK4EGmFoOHxamcUpQXaHD7w2IWitXPMkAcxIkqiQoRF+qMtygtiRSimYi/0Db0iS5+P9ut/5yG+YivkFvoYCcVLpT+yJ7qIEZGCVjjE76qp/eTtR8QBtF//EBVSBGOhVOcgpBhQ/QXRfiKGt97WOPQiFBlzBYI5+JrXvGb4HDiP74q6EFieV3EYuP7rrrtuceuttz5E9PRQQmA9HGcRYYZ5w1a453KNTOFkoETBDLgJKPO8hTHDdttttw0/LXvredirFN+0Bh4BC81aZoWkxwzAssc0txCu9hIVyIQayEVpxE5slOQawpBrl019tKlnyDMxCmO7Nm1DRj1kYeBz+THNIjLC/JYUZk+0FQQBogLBTj3OOFIw2kUE8XaiNqC3j4OfvDNCiDDJYsFPwonHrb0EnIiDvmuhXZafiuYQILn9+lVKJ28oNBah6GGZQIg0T0QJXIdxuvvuu9eKELS4/vrrh3tEDUUP+jDmTwmB1XGcRYQZEfFkk6b2+ijsL0oULAEyapf3ZULiyblZ29D3YYpvrC92TmFtx1fI1/MAtYP3yRsfy8dnIARG+9GPfvTQvpZQA1GU5qZHZAgkDLmCQymMXqi4zTHyaHwPoSI2AmcMrTBwbfpVnYTjebplEG3u/177tYGA0vcZSBZx8bgcSyoohJ7wPgGgjSGIWkRI3wOqtClejmvrY32lPcZtLOJgPrlWQouXntvfe2gSkUYQECtz0QoEaSWkYp5IR3hfPYCnkM6tIVgGYy9S9fSnP30Ya9A3JQQOh6kaoqPEVMSzcLKw85sXHSdUWyMfhju88JaQGHpCwE9EywAjD+FiBLeKmmYAVHYzoEjJQ6EYUIKDUScyGFokoVAMEfHylq00CCB63xPBGCNUx5e/R5hSF4SIkHdsCEOw+B6Sy5Bj5AU7Lk9ZDYHNkpCsKENvLX+G64gNdvz0t+9oq99FD5BtfGas/aCdBInx036iJG/koriQ2JAKCi/Z6gX9aywRsePz5jOcO9ohIuC7+orRRra+QxgQGlG97zPGCzlLoZgX6hgQJcNqvhAahEXMIaLLODkPQcYY++n/c9ButKVokRAiFrRPDQTxYfvvTYEI015PkZSKqg2FDgfzITYiExk4zuiAe3DuBmuF/UdFCibQLu9b5qEiRvlVRCG8HsWIy8AA8IqRgZoB5J1z+IHsAXox/p762EYQeojiQmID2eX29zw65CFK4Zyum/cq7YDY2krzNsfIE1bj4HdGLfZBmIMcMeBVI1Hn0y5evn5CMsse/+t7dsF0rY7Dy/Ka2seBaGAAfc71EAjt8yWMVYT0rSbJoVTjf+eddw7eFMHRpnPy/NE+xK9eQP978cZi10levfkg4iA94X8KA3P0wU+vXOPQw3Oe85zBw/RZbdCH3lPjsUlopydRvvCFLxyiKRURWB27UESYcZiIZ2E/UaJgBO3yvmzQe4IgE6MbmeH1mtoZsWcAIoffklGGc2kfQuHR93LILewpgBx9Rxt7QsD3GXKeL/JDbBCb+BA7nk6YPeg2xxg1DshBOFz/LYsStCAMiCse7Qte8ILhZ/Q/ovS7/tRnY9crssLTImo8GdNufNAKvRbOIU1E0KgHcS4GMWpJwBjpD6KpDaX6DnJ0DZEKgXb+uI54nHFbSKi/9aPQvrE1VpZvapeIRggIL7+PpSrip+t3DiJAfxlX6RLRh03joosuGvpO0WVhPnaliDBQyw1PLyp90AFC4bExnm7MZYIAMea9vn0HETLE7WOagQHgZQr/I2LfQ1Sq4ZFx64lnIHZtUSjo+BEiHksxgLYRET4rUjAV2rU0ELE97nGPG8gYkAfi50W7LteBkDwjQI2BftI30U/Cx8iYIfH7qtBuKRjXoV2OHf2PKF238HfvWRWRgkG60hhI+f9v725DLbvu+oEf/gqiKAQaBNH2VTEKRgyINo0YBJMm1lgkVhvy/NAwZpJJWpIwkMdOJ2Q6kdEOSRPSxDgTW1JLEAlFWykYTUAtvjJiQfRNFPRFSylSXwn/frb3l66srP1wzj33zj73/L5wuPeee8/ea6+97/p+f4+LyEHg/h6GSqgIG/dFeEClA3ImbpzD9ZgDC7f3zVG9WBJMzmMhNT/uazn+eH7ieRCicc7yOObbs+AazbfqBH9jTlyT5lGux9wSnMRkK1RhrMQV0Wee3Hf3lrdE06G9gKRQQtM4E9Pg/3Y/tzMeQx0KHMoFShw8pKegQri+o7xvSBAgRmp6LPnGoswKQNz+8RE/8VDGCfvq8EuIkfe5vgNliAE5ICXWMVLxfekRaMHxka5XwHXq0SBuTswQAqxhIoNFE0DGyNnYnHMsubAP0SgJMZt7Fq8x1/Pv3oRHxt+6XhYOoiyvT1Y/y949nNLHwd8i4AhRIDpk6nng3eE5MCeEUt1HAJzP2BD10Pihr4zSwiz8oRohykxXSTp84oknuvlx34UkPHtcwp61vYDjIpQXXnhh551EH+aSRFgiyw0T0/ch3gKw/ggClvOYIGCFvfzyy507lpoeysb1zy4+jfhZ8lzRiDMEAbAulcQNLQzG5nN9ggBYqqx/LwRiZz9Ws4UH0Xu/TxCwJOPvShizMAiSQ25I0zHL4/A8sEDNk+8Jl1UEgYVSOMVxED2i9F64/0sgd0TndxZXf2ee6+tjeRN7LOkpFpg5cv+RNbhmgkqSIXHlZ1Y6S54XpoZafX/ruRkaPxivxde9LSFMoBETL0VASMncyw+ZCiLGfTNeVSeubSwHYTfwzBGNiX4QZnqF8BD4n+cdmIMg8LwTkLyQKQi2Fxk+2EEIAIsn1+yQIGBpsQbFzccSgSwAkUXsOHoaiAGXrm8EwlXeV8cP3P/Q5/r2+XIbWQu/cxIrn/zkJ7trGgoxEDkWBC5x7wcIGeMnfFiqvB7KzpCd2Lr5cR0sazF0VjXSGrqWPvA+sDJZ4sSJ+UfCfvY9Yo7s9TIEQxiwqIkllg6BQJAQSISeY5p3Y+O2n7IAExLm3HPgXiFp3RjdT3kgXP8EYYRl3NOAOUeM8jj8rjX+Eo7jXhEupaBx7cbsvgkjuC+OLbTQJwyNlxeDx0ioyeeVmHrGjFXow/GuvfbanU+sF5JkPQ+Rj5L4HuoqGP8jredhv9EKBSa2Fxk+2EG4vhF3nyBYJvlmLIvYOZCwhdrxDh8+/LYEvhKIvNXC2OdayYLi6MaPEHg96rh+HWJARCxefxubHQVYsM4pRo0IS1Hi2iKB8dChQ53A0QdhleRCiCRL1lM9/wjTe4SHuTV3xmpuS48LcOsTBoQRghJOkNBnjsrtjMdADLm+G2644W19IKKPg2fAHCDr0qXv3oYlKOGOoCjHX1clBFqtkFUpcMkbc+RyuIYIB/nZc+AV3xNskWjoJYTg2Y55eOCBB7rnrkyeXBceeeSR7rhHjx7deScxtyTCEowBoTEixbgSiRQF3wXLmnUrPtwnCJCLf56aGGssuwDYiIdCR87+tm5CVOc49AmBsDBj/AgCKY6VAxIIMtsdi8Uax/O9OVHjjlBYNbVLUY4DwnJ9rG9kwGJexUvA+mXlG29r/gGRGSvSVPI2ZvHLg6j3quDKb8Xwa/gb4oInxd+x9ksQAwQigjduzw6SLp8fn5W4GUl3Q8LA5/ytnA7zzIIMknevJawSMsbiebGYhzAtBYDv6+ft5ptv7sI/xJYxEaCPPfbY4HO8KnSSJBBdY2I+nQhbyHLDRAtbLwos6Cx6JIH8WoQ0Nflm2QWAq7+sw/dZrl0WnVgz17fyPvXp4td9QiAQhIQcENAUix1Jun7ud+crPQh+Z05uuummzjKtUZb3sfJ5WxDCsgtMJFkSBEIC9fyHy57gMg6Ca8jihhB6LGzz6oUYCS+Wvj4MrVbIiLhOHjU2QkSYokTstkggEGwtQcNzIszkPQTP48MDceGFF3Yiqrbw4z5fcskl3bUG4fN8EArhkVgm6dCzHXA/CQnH1tFwnTDnOk8SsUNetG2A/525JREGstwwMYStFgXc3tHCGLm1BEFYjP55WsQIqywALD3/mMjYQh0I17d/3LBULf59QiAQgsD4WevIZcxiF8NHeMSDZLQAktITX0gB4SPj0oMArHbCIconucsRKYvWZ2qPxxCIC+IFuZbz3xeCGXPFl0IvXOSuyXtEj2MJh7CoSw9AnyuVt0HMVZ1/LfTMu7kIMWaOvCy4Xo7JA2DsQfA8LIQJsUBoeM/vwsLnNfHyXLr3YK7dK/fUNfu53F65hnMTF15CIDxdwlNyCQidj33sY12i7JCwWhY6JPofePjhh3fe2T4QsASoRNy6CmYOmOrxTGwvtlYUlOV9FuZaELQsxhqrLgDcvxZ47twyhl8u5KxJiOxkY+tDKQgkoE0tB2w1SgpiNBY5BrLV6xwEyXq+6oqHyGTEe7GUWf3mjVVr3sZAACF9x4n5nxKC6RMGpdCz8NUoPTK8NO4bL0DLlWpew4rn1fFZ5O5nr9LC5yXimdBHgagIAeBlnOa4HOeYsJHIanzl3gTmv9w0SXIn4RhlkcYSz0/tUZIcKrfBc+x+mk8i98SJE91ndwteInkEql1i/rYJYzlEc8BUj2diu7G1oiBc39z8tSDosxgDu10Aog6fUm8t5N7z+5bruxYnpSAw/tgWuU4urBEx/NK1HMRIJBE8sbNeCeTnfCx7HgmEhpyUMZWhiqhUQLISEFtgQcsR4HpHUMa/TAimJtYpfRwC5tsYZeXz7CBv102w1YQfBE/4OI/nIghfY6Fo9ILEVYC4V6Ug4kniGSjnGsaEgeOaG+GjQL1pEnFpDDxLtRAoQcARQmD8xNDv/d7vLX73d3+3q6rYDVzHrbfe2nkh5C9sE+acRFhiisczkYCtFAXh+la3XQuCoeSbdSwACIK1xzptWXRTXN/hmq8FQWmxD6FulFTHGFl9iK2uRIgcBx4EJMbiJK5Y53WSIpRZ+nIkanBfE1gI3EK1Sgy2JFbiJIRekHoQfP2zr0SNEInrck6f8/kg/NKlD1yvZUOhev7DpW/svEelIDJvyLjOSxgSBo7RaoUsgTLOYaFH9tdcc8077heUApZgIiBcl3vnmITH/fffv/I+CMYvbOBYx44d23l3OzDnJMKAZ33M45lIlNi6PgX+kcW9LcJh4VnQEaMEKSTtd7Wa9rndtCJFQo6h2gAZyRXgmkewiJS7HbkiCB6Csn7ZP7TzifsTDcjTewg3xs96tKc/74NjD0Ftv0UciSC6mAdZ8hZ58XaNc0oEAUYfBwjL+LbbbuvGh5xcY/RBkC2PBFm3rPgyb8HYkbgSPAl7SMvCOra4GoeFDqmZL2Ng3duICLm7j0QXAcUT4W/dJ8cUTnDNBA9XOkIljCTrEWuO6f76G4Ksvr8I1aJK7BAypSAALn2/R8SOEX0cxPIdTxJl7cFxnyOfxdfyvpetkI3LHAlj8OIQlO51hA7Mb9kgiYCtW2kTYYSLXBL38KGHHuru2/Hjx7v7JcSxzDNNPNrJk9dhmwSBZ8W1h/DjKfT/ODfwePrfJlo8K56nRGIMW+UpQHiIn6ubOy0W9KHkm1WSCAMW2jI0YOFmDWqkU2NZ17ctalmzXPwsc0Q4JbnQtSAVwqMVY5RgKPO97sBnEZQQGQQIfaEK5FrmIDgWAjeHFlGx989+9rPduGNeLaxB+ObNy/f1z76GFR9fHc/5gKAjtobIreVKNX+eA89E7ZGpwTtCWLrucj4CvAJI17HMLy8JwvU5BN0KN7U8Bq7VHCL36CNBzJlzmf5EUGyaVCYdhgVLmLgOc2TujOXs2bOdcGLdR1iCiNPLwPlseOX5DC9VC87N0+R/RnnjtoQM5p5EWCLLDROrYmNFAStQcx4LOUuRdYx8woqtEa5vRCCeHoKgL/lm1QUgFvIQAuFStyjXMfwSkeNAFAzB7QoLlQVqjMjRfFich5ILI4bPVSyWXhMjy511gZhKlH0cAlNDFSEQvAis8AogHUmUrrkk/5rwy6/xfUn4IfSMg6eiJtYSQYx9rtSI4SNTLvdIRCxDH+afeDN/dnBsxWc9O7wEkj0JNeTpc8SKjnaItwXXooER0cCaL58f81iXUXqejY04ce+MmTejFrB1jgwPgS6XNZRPInv3h2AgTt0fHhDeD88LovF745CLsA2Es9scov1EHQr0LCQSy2CjRIGF0YJswSUIEKOFz6KFEPzTIg7WskWLKxpiIbeAWlhDELQsRgsAolWGNnUB6BMCISTqGH6NuryvD66jdll775lnnunO4TqMuS9uaA6My7W1iFGsWlOgkuhaOQ6IruxcaAxB6l4lycfPvhoj1zsRh7TlVZgr37cIfwx1jgO0LG4YSx6FOobv2YhQjc+Yl5h/4QdEHJsm1aj7CBBW5pJoE1KxA2PA3MTz47n2nGs3XfcgsNibH9YfRI6D++jYcl14efwcWMVidL/9DxBxIbrdH6Eec+PZ2way2ZQkwsCQxzORmIqNEQV2XXv22Wc764Xr24JZxqiBC96CxtXN8rY42iI2FmPCwYKOjGqLcdkFoFzIW0KghLGIr5dEEODqbbUwrtESBBAWOzJ37X2ub7FohMlSbxEj4pBLUAqTKO/jomaBBsEjSpYs938QfpB666v54Z3hAkeUd955Z3cthBAPj68xf5GkOAbzQeQg2Ppaa2GwDDEaq2v2jEUrZF4Bz4bfaTpkrkG83rzU+RdQu/QB4fNGmDPtj4UgWs9Pn7CBshUyAWus7rmSQ16O8FDIW0mLcXVECMZ9mWsSYQlrnPtdezwTiWUxe1GAyB988MHOarn77rvfVrc9BAvr008/3Vlscgi4WBGqBbW2GKcuAMsIgUAZw69hjGUL4z70CYLaYgfjci3mLVzfrGSeCklsKi6CGB0XQbHgJUCKeyMT18kKR6Q+gxyD4FmNrH1kJ3wR5N8SNBGCQZAIzM9K40LMRdkiseR85nWqQGjlOJQwt8QYi54gXIYYPWu8SLwjrs88ORYLnvCM8lCuWvMaDYVq8CTwNkTYxbyaO7X85sv7fc9PnzAQ0uAdMPdEm3EIC/Fi+N6cGqO/S4txeewmh+hcIcsNE+vErEUBYmNVIibZzWVm9lScPXt2cfr06S6Oy1IsLcYpC8AqQiAQMXwlbDUhtVzfLfQJAhhKLjReGf5InOhRGkfw+Nk1lRY+DwFvCXIOkpfcRgwglZLwp/RBKGOwhIkFizDxfdkoCeqyxchBGBIIrRyHGlyp5td51dAPzXELnguhJkl35fybt9Ijw9PhPkRDoRpEA28CARHPD88BYSBEQdD19XFoCQP3UmMr83TLLbd0eTQEgPMQnq77+eef78IaQgmJaVg1h+hcwrNYezwTid1i1qLgyJEj3VekvhtYME+ePNlZqV7+mYYWgN0IgRLc2xZ+rxKmvM/1XaJPEHgf0bJeiQqhjyD5kvBZ/VznhAAC4/pGSIg/yF8YQC6BxjNRytiX4zCWXFiHYMwtdzlxx6rvS7IkHixuREEpGloCAVx7meNQo3Slus6WxT0FvDhEi2upBVnpkTHPPBIR6y+fH2P1N3UfAUIC6fvbEEQthDAgwhBXCFiiqGyF7L6Ya5YiMeecQ6Ip8X/YpCTCElNyZBKJVTDbPgVyCNS3P/nkk2/bG2AV+Mex+LJIWZxIy3ss7PA++L2ae7F3liiXc91HYBk4Dgu7toxBLNrxWpUGCB+ps97VlSNarmLxeOO2gCEUc4MgEILzIPi6Dt/fu15eFn9DIPiMv0Go3nOt/iYIiyUq1s3qLD0EPBJDfRB8ruzjgICRlPEhMGEfY2zB8eSKIDb5FcILrB5jFBZxr7wXIQFEz/J27HosXKnmyhiICPNMCCFWX6feR/fBcdwH4q0OZbgWRO4rN777zTNExJTPT4S7uPTLMk/3x730DPLK+H2dIwPedz/cb9UaBIRzuhaEZs6MjWfDz87pHsmDcA2b4P4+F/B/VfdxMKebAP/H1gB7Z2yKiElsDmbpKWAhIiV6ZWoOwRiQCFewRVgHN4RXWnS78QjUoOJZqvVmR6aaFc4tbYFH/i0LH+khAgTGpY8EvMLCd3zWcJ/FjhiRK7eyfIogG8cvXd/yK7ixb7jhho7EkG5fjkNfqKIVgnGd4eFAVH1Jli1Elj7yi0Q/QI68K4QUQq09CAQREu9zpbZc8X0ox09gOS+iDU9FoCyyOMQAAElnSURBVHx+hKWIAx4FFrrPBoyxtXkRUnJPlP+x+pyXt4EYqi1Y9781fsf1rEh+5E3gFXOPzEMkHbbCGtuMqTlEc0OWGyb2A7MUBc8991xHnmfOnNl5Zz2wYFpEdXBbtxAwjRZ4bluxbMf1T1sSvlJAiz2CRLoIviZ88WcWdh0yCLSSCwPOETFGC4hztDwV4fpmcbDCiaWhHAeWPgu93GSpLwZbEqpr8XetJMshyNJHkgRAhFecH6HW3hUCkpXOkna9qlLcz9qyhynCoBx/zD8R555w1bv+EAL182McvDOOEcmIIU7qpEMQ1hG68R6hQxCx/H2P6H3eKzw29fjdP8LBM8FqFKYyrshx8JUgMCeJzUwiDGS5YWK/MEtRYEG7+uqrV+7H3gfxc4vn7bff3llWU4WAKUK4JcHXP/uK1BEoS6+28P2N7Xf7du+DFiHV6LPYyxgj7wRruy+GD8apKyJr3N9bdJB7K8ehTC6sLdjSfVmOn8s9GiX5eVmoiCBweEsQWyvHARBjJI86T+1BqAXCkDDom3/31licS8xe2KBPSCoZNKfud3hkYk6JLs21yhwTIkLYQYtpFix3Ng8PdzZvUg3jJ5AIBwLFdUd/BeLLuQkkz4hSyZaHYtuwiUmEJbLcMLGfmJ0osEBa3GJxXTckL/rHUicOLr8m+PpnX8OqD4u+tvB9z8JFmERNGY8vXd99LYz7CKlEy2KHkhhZyzwiBMGQJST+jywRFmuVF8P4uFNLEme5erknFlYkVluwUI+/L8lyWdjTwLxqp4sIA2Ou1KEqhpYwqMfvuLVHgCAi+IZCWsRVbJqEmM0Z7xEy8oy0XPryZhzX825eeRdCELm2En1VFXUZpWdALwPXXnsotgVDAnZTkOWGif3G7EQBS/jhhx/u6tD3AhZgC4WOh8sQfkmALfBCiM/rA1AnjPW5vgNTBAHU5YAtYnQu5DIUwycAlLUhJy5rYiNI3ytc365ZqEKCnIUJMbZisPX4udFZuy3LfhkgbzkOrGuZ9q6Rlb6sK7UlEIgq104YyK0wfu85ZikEao+AMALhVW5nXINwQtqxx4W547aOsA5xw6XPgvUsuh9CLXI7SkQfB2JP2eJYVUWUUXq2HZNniqeGEKk9FAcZyzYimyOsTe51lhsm9huzEwVczojIxjx7ARYUS+vUqVOTCX8KLLxIuY7hj7UwnioIJNGpjojkwhYxIoUpMfxXXnmlc+8rpUNKZXmfxch7SJSHg+DgTbCwtjwP9fgjjIGMdlM1Uuc4RNmi+8Wb5FyruFJLgYBwHde1hwBsCYES4ao3J0Mka07cG/MWUBFAiPB8sFp5Evze9wSlcEEd0og+DkSB56i0GFseD3PkeSYknMs8Guu2JB1uahJhiTIUWD4/icR+4P/tfJ0NJF/t5cLl2F4WViSwDkHAikWetSCwQLHCeQ9amCoIkIdM9YgxsxiVKyKlEASI0mI4dBxAhlodc02LXxtbCAKwiApxsGgRkpI/1vkUQeDe2fBH05zdCALH5SGwIAbZSarksTAmY7forwLlncr2vHxPJHC9I1zz6f2hmDPLjVAh9ljjfXBfhHVUJAQIMRY7YcEjZl69B1z9RF0N18mLQFCYi9KF7GeCwD0gEIBo4DYXTvK8EHbKKl0TkXBQ4R4S/ESeUIncoU0UBJ4Z/5eenxQEiXOB2fUpsNBym2r2shdgdSFxYoBbl2Vt0RT3RZbI0L7jU/celxCnfr+uw7dIW/htbFOSbmCqIABj5oUQNqjr8ANcxRaRVq17CZYky9TYnLe0TJEJUud2RfA8CKwVCxXrlkCIvgCt8Utw8/PU8sM+1H0ceC9cn3Pamc99ci7Wc51L0AeirexDgdzdOwmbyjaVcLp/rhOh+nvise6DAP7OdRIG+js4Vg2hCGTO62K+o4+Dz3m2iRBWPCHgWSNIjM/30eGQxShc4fM8RH5f9nEA8yQ05V746mfhI5amuSE6PJ/ukWeHuCKGDwr8/wqFEQM8A5vqHbDuEMK8V4Re5g8kzhVmFz6w8OmuZ8Ftkelu8cgjj3SL+KFDh7qF3ytyC3yN77nWI7wQruX6ewtzK4Y/1sJ4GUEQyYVIAWG3YoxTY/g8DAQFsitzHOoYrGsrQxUQmwIhFX9jLOX4WWoIsE6yXBYI2zVHYlyfKxV5e981RHZ/DfeRZ6TOEXBP6vkvXfGEQF+SYokyht8HFR4IK8YfHhdkxqWv6oDoIkod39+awzJ51LkD5sd99AyUibh1KKEso/S9eXScg5J0eBCSCAPL5sgkEnuJWZYkWgjt974X/yAWRLFVryEggxANIRjia3yPaFjUXL8hFliHLDJuaIRVJwgtIwhAcqFjWthbMcZlYvjyNPyNcYaAqGOwLNy+PgjGbiEWU2eB2k/C9Umy5Lr1mTFPxRCQneNHjkMfMQbKskUkCe5LSwhESGBo/lsx+qEqBihj+CUiiZBXQ2hH0mEtEHnECDRJh5GMaA6Mzdw7pu9r9Amievw8YtEKmacF6eh/sMlJhwchibCE++0Z8iz6/04kzjVmKQpUH/hH/8QnPrHzznrAyrrjjju63RYdv88CnAILPXLkxnesEAysdlPKEvde6XHwUt4nlo0IQkS03M/AqrdgIMgWMRIkyFjsuOyr34LmOcSKcyMJxIKEuJhLC7avDwIEoRIWyAxZ+qy5aCVZLoPYptnYjMV1mz9kPxYiQHjc6q6NQKmFQGBIEARawiDQJxA8V+V2xrUF6+/NKw+AeQs4RtlHgMX4R3/0R905bGjk8y1RAC1BBPX4nZcXyfPmWSEkiK1NTDo8CEmEJbLcMDFHzFIUWFS59yXT1QvzbnDvvfd2BEN0jFmAY2jV4deubwiPg4VZrFzMGIGUHodWqILFzrJ3/YiytZMeS5MgmeJReeqppzpSZM1z9bcauUSoAmE4f4kWobLEeTIQEa+BxLlVUPZxQOxTXKnmzb3zMg7Cyleu/NY4pgiCwJAwCJTPj3vLM+Bv3VNk7uXeBKKhUO1RiE6HkjvDYpRXg/SFoerOiDXqskWoxx9llASE8xEg4aHYBHheWwJ2U+EZca9bocBE4lxjlqIA7rvvvo5AT5w4sfPO7qDvwdGjR7vSr9riXlYgtGL4teu7xBghhXCIF4IxXmKBe7glHMSgLf6S5MTAhzwO8jMkuTmWc1lYWzHYvm2R+8aPuML6NHfO79jLel6ij4PjBzG2XKm1EKg9AqxznycKSq/FMoIgMEUYBORX8FYYk7mTX9J6fswVb0JUHAQ+/elPd/f3wx/+cGcx8hgozdXVk1Xv2TSvfbkT9fbTUI7fOKKM0hy5TzwrSleJr7nC/wHPwKZ2Imwhyw0Tc8dsRYF/HharzoMyzncDC6TubxIYb7755p132xgTCMaFeLiCI4Zfur7rRXZZQiIu/D2r8q677nrLYi+FA9JAQsjF74c8DoTV008/3ZEugtB0p7RgA9G5sEwuhKHx10mWZTIi967PjCH6OBhzy5U6JgRqiOFbdI2b9eweLTP/JcaEQW3B8rQQhvJJPCf181M2FHK9YTHylPietyVc+q6B0BMact3mNTojtjwhLUFUjt+xPKMSG8258ZirOSYdHqQkwhJjOTKJxBwwW1EAYd3b1dBCugosjMIG3Py2EF4GtUBAROL8avst9jDUwnhZQRAxRp9j1dUWe6CvUVIpHLwkmflbwgG5sLhawgFxIiGeD4tVeByGxo8MWXJ1oySfQWBeY65vMWJCwhhKV+qyQqCFyNIngBD6soIg0BIGkUQo6a22YCOGr0S1JTD9DjyPpcVYJh0CAaByQZfD8DxFMmKfR6YWRD5Xjt94PWPGjKD8vg6BnUsctCTCQKvzaCIxV8xaFIAFTQ4Ar8E999zTkdpUEBWPP/5410xnWUFQwwLPpYukLMZBVBZpVjhRUGKIUGuUMUbHlgRYW+wBRI/shCn6EBasBECkoAwz6u1r4eDcCIK44eXwnjkmGnxWLBqJlCLC34hTE2p93gDHRZx9rm/Htr8FQeL3MuJ3KwRKmP+zZ892FrsQS5/rfQqCWCVf8gqNWbCtVsilQODqJ36EB+K5cV/qzYsIDNfh+S0RHhleGuOo70FdtlgKAz05VLLI3eBxIj48e65FyO5c4aAlEQay3DCxaZhd86IaXOQWTpvMWOS5wy0cQ8k5FsXf//3f77Zgvu222xYf//jHd36zOrh+uYftsKiznsWUSLDAsiBZeUONffqAtJCIa7KrHcve4tFqmiOG32qUFGDBRiMXyVgIiFej9GAYJ1dyNL0xj0SIsIowAAHAckQqfu89hIVMjJWnRJtkwsGCx3p13roBFLJXEaFE0bGIFB4LZCSBzr30d8SAn90zv+d619+BIDDGVRDzT2ApBXRuZO6Yq8BcE1iRj4LMg7hb8Dwgfs9qJMWxyoVFHMecE02qR+QDEFnmy9wQfXG/7JEgOVVIwO8DjknkEBqeF6EmpON8QAgYM1Hsfptj4zUnvDcqNMyRSgeJh+6Zc9dJkPsBAtY4ebGcnzgJT9Wmw3Nvzgk3QieR2ATM3lNQQv28ZC2kxwqzeFrsLHzikAhKzM7vZaHLRViVCEq0Njti2UjWspCFhYs8nQ95Eg5jgqCOMQ6VA0KrURLUMVgLvMoFxC0nI/ISWqiTC8cETSRZEi7hbfBCcvE1vi9DFYjH+NwruQsWfudFAq59VY9Ajb7xt7L0pyAsWALHs8aq7ssxKOFcYvjCK+5ZbTFykXtOeAHKEANx5R7G2LW3Npes/haGPDJ12WLpMSCUibIAUcqrFoRMvBCLxk28EKmeaQJjHTiISYQlstwwsanYKFEQsAhaUFgZsWghH6V+FkUL6jrjdnUM3+KqJSkXPzdxwIJOtBARFv9wgdex31aMcagcEFi7dQy/FYNFvnIcxGIt4N7rQ51cOCYIkBhim7rZUYQqXJt7pUuisRobErBYOk4IhwhPlN8PVVXUGBt/K0u/D3USYVj8JbGOCQPHQA6eSec1prKqwnE8J3GPWP6ebd4e984YncPzJ6xQbh1dgwjxLLSSEUtB5H6UgsC9CPGmYZgqFecjCMyj6ybkHJeo83dEK9G9ivV7UJMIA0RahAI9Z0MezURijthIUbCfqGP4fS2Ma0JqJZkRCBaJVoyxrxwQWG1CFWUMvy8GS1gQFcIaPCXhUq7BI1F2Lhwj1GUaJQHyCQ8KQkLuSNl4VYIYuxeSFCIiZnxmzOMQYqEWDuZ1aPwBZGTRLrP0SwwlEQaWEQbmmEeJx6a2GHlczCmhV/4OiYdL3/wRY66ReKsFZo2+ZMQQRMSs59H9Nmeu01wiawKb9814JDzW3SnlnZgb7n7PGdJTIUOMj+GgJhGWCNGc5YaJTUaKggFEHT5BwGIyVaxwJFa6accINQQCVzDrEbGytmLBFqev9xooUTZK6rNgIcr7ELhjl2OsUYYqxsYPiMoiPpQsVQuBEELhKkZUhEpk0w+5vkuExyFeLeGAqM0Jy7NPOITHAeFavF0369l4lrVgx4SBcYXFSNSwtp2rBk+NuL4OhgHXWyYden7+8A//sPNKEXx9HqgSrWREYsyxQDiAKCF6CEieAB4E+SpT4PqVumrKJC2p7NlR46AmEZbIcsPEQUGKggHUMXwWEnd3SZxTCBUixsj6tBgjTos/QkEKMuTrvQYgYvisDwtrXww2chxYvwhcGKIPZagCaY2NnxBBmK3NjhBySwgYXxAjEubtQHw8JDWGXN9jiPlHNBdeeOGgcKg9DgQAwWJMQj8SWvv6OLTQJwxaFqNKi2iFXEMyIdEi0TQQnQ6jjwCSJ55Y8C0PVEsgmBvz6iXB8FOf+lQnTohB1+9aJa4a+/Hjx1dK7JQwevr06a66xzyUGBKwBwWtUGAisclIUdCDOobfamE8RRCUFmMdY2S1IWeZ8Rb1eoFHLmK8yMS5+yxY5BQ5Diw3ngxZ/H2IUAXSGht/a7MjC2CfEAgEMRoLEmv1cajR5/ruw5T5L1F7HISGnM/3xu84Q6EKX73C4wC1MOizGAk7Hh+eFvNVwrjMMa9NKS6EqeQWRB8Bya68TPE3fSGqet48gw899FD3d+A8PisshqiffPLJ7v1VYewnT55cfPazn+1ET3iGDmoSYaBOHk0kDgJSFDQQMXyWMeVv8WQply2MpxDSWIyxtNgt3OUCj4ARPHcxMeHzLQu2zHFgtRindrl9iORCnokphBpJlq5hTAgESmJk4XKB130chhCu76HOiMsKghK1BUuoEW4sZZZ4KRzCy+BrfF8LB8LJ9SJYP+sa2Kpw4KaP7Yzr35tXIZ1y0yTkav49H94zbrkBrR4VYwIhnonwEvCAuU+qVFYt/Sxx6tSpTjgr2VW+2ydgDwqsCZ4Zz57/jUTioCBFQQNlDL/VwngKIU2JMfYlF+ql75ySBFmKrP6WBWgcZY6D77mJ+xIBI7lQaaXxjREqgSEPAoGMCQGoXamSyhDUULy5D66tdH0HecfvVhEESNY19SURTi1bdE0hGrwcl4Aj8ozVfevzOHieeBeQtJBBidamScZEEESnQwIQCbnnfagFgrCS8JLP8HR5Xz6AXUin5hCMwb3XE4IXQgfSg5ZEWCLLDRMHGSkKKpSbHbVaGI8R0tQYYyu5MCxYMXjkcPPNN3eegD4LsMxxYLk4Jg9AH1iiCNHY+sbvd87FWo/yPYJjzAVcu1Ijx4GY2g1BsM4RuTkgDOQNLCsIlkkiXKZsEUqLEfEbm1ACsgjR4FV6HHhqIsmvFg6eP8LCGL3veSuTDgkK4+NRmAICQYUAbwbwQHmGiMIzZ850760LwghEJ+FyEOHeudetUGAicVCQoqAAd79/+tjsiGu/dH2PCYKpMcaw2AkPLvIyBosMLPplDD9QWoBeQhmS9wgEbmCNcDSYaSFCFSxgpW7l+EMIeIVHgKsbAdeNklqoXalljkPZx2E3MC7Ebp54Tsps/T6sWgY3VrYYaFmMdY5BH4QRVADwRpXC4c033+wIm1XveeBxQOh+JzGQcHA9vEHEGuFQ5ji0cOONN3ahjRAZ5sR7q+4n0gfj5OX4zGc+c+A6+I2FAhOJg4IUBTuIOnwkgBSjvC9c32OCYJkYY5QDsghrC7ZulNSCcxkfQhG/ReCIgVVehxgCWhNzXfuMMbaEQIQG6iTLIdTE2NfHYbeI+UeUvh9LRowyOOTp7xDiMmiVLQbGLMYpwsB1CBEhdvekhNi8eeTaj1CFHBdiUwMj99v1EUd+N5Ycecstt3TnIALMl/uqGkJYaN04cuRI9/zry3BQMCUUmEgcFKQo2EFZh1+7voOQ+gTBMjFGFjuClisg+x1heTnPlM2OWjkOzz77bLdY6atQhxhAWAEJsN58piUEAq1GSS20iNE8lTkO60Jr/vuSEdddBoeg3RPXiESnWoxThIF7ULZCLuF+ETSRb1InHfretcXeFOFt8HJv4iuvk7kC3i+v8OTsBVQyOP4TTzyx887mIssNE9uIFAXfBSJhsQsbWPRL1/eQIBizGFtA4GLcSsvKRi51o6QWWjkOLBg19uHRqJPMhD+EDYgV37eEQAnHZ1XW1muJPmJs9XHYLYbm3+8IAy9lm67XQr7uMjgtf12v58G9m2oxThEGnj2i0n1n2QeEomwC5pmMEEyZdOj3xJutlaNaoQXkbH7cd2KNuGD5etb2Ao4rNPLCCy/svLOZyHLDxLZi+j7EBxTioLL9EQ5iJgi4vscEAWJ8+eWXO2tcCdqYILD4P/XUU51b+Kabblpceumlb3NpGwOhMGTZGhsxEIJAzJxVjAQD8gW4lb2Qhdp2rmpWDqL3fh9hSnKLv+sDQtFsx0JZCgIWNZf7fgkC4F1BdPIozIM5lgewTkEABABBxeImrqYIAiAECALXQCC0YLzEVW25CxNoZqQiISCkJEmRt8nvEb3rHgIRIzeFx0HViftPxO4VPHNCcZsMniH/2/4PUhAktg2z3zp5r8EasGhaLC3eFk+u/SFCQozyAhD7WC02y8wGN+LAMs4/8pGPvCPEYGHnolTO1Qc5BFAuUrwbxmfsPq+aAbEjaAu/XAVixUY3rknHQKER3gV/bwGPLZqJHBbllVde2bQ8WeCIi8sb0ZXXYBHVgc/7U7wlUzAmCAgi5ZIECmHAoiaWjMV86u9AIO0WLEaWLxLWotn9NO8syLqksAU9AAgK1+JrqycAYeleEQ6loDHHvBTumzCJ+2J+Y3tl1yeMQFTEvJs3HiweI6Emn1dRQdB4hiQpOt61117b/f26IVxhzqbko8wRvDbCbVdccUUnuhKJbcNWhw/KGH7p+u4jpGVijHUZHC+E5MKa+OtGSS20yvss/Prh8y44RpkjwEI1foTA61H3QahDDIjIQuhvWz0OhlyprRyH3WJMEIwlES7bGbEPng332xgQb2DZskWYEkpotUImJLnkkaz5dd/Nd4SDXKewkp/9zrNZJx0KIXi2eZTkejzwwAOdQCiTJ9eFRx55pDvu0aNHd97ZDKwSCkwkDiK2VhSUMXzkyCWrFryPkKbGGFtlcAg7OhfW2yKPxfCRSZnjYNE3Xu8hDGWIZY5AjN8iZ4Er+yC0QCAQJcaIPENYBJH2ESO0chx2iyFBsGwSYV8y4hSMJY9OLVssMSQMXDdxZz7NM49CkLz7rVRRMiKS557n2TE2ZO+5dJ/dM2IghGNAvwuVLgQkz9Dhw4cXjz322J64xm2pfOjQoe4aNwV9OTKJxDZia0UBkrbIcgGz6IkDC2yLkIaIsURYsIi1TCLs61xYNkpqIcr71KfzMiAH5I2kxJYt7sYcCEJFHAgo+iAMoUyyrBslOSeRo1NdixjrPg67RZ8gCJe9sSybROiY7olX3RmxhWUsxqGyxRJ+HwTP4yOcpAeEv/de/M59i/tM7JnzsPiJoWjDDGXSoTCKzxtvC57tgOeFqHJsHQ3XCWGrO+64oxOsQ160OSHLDROJt2MrRYEFFtEgiHB9R9y3JqQp5YZDFmyrcyGwTpAPMi6JPUAs2IHOwu8VFjxCtOgaZ2nVuI0xfnXrrVBFDUmWvCV1oyQkhfB5UxwPGdcehLqPw25Rjj/mf5lOhGNwTY4VnRFbJZOrWIzGbS54JaKZUJB8TfhB8DwsQhByUuRDxO/CwhfW8vJcuvdgrt0r95SXwc/R6VBDqhdffLH7Xu4DOCdx4aUElqdLDoJcAkLnYx/7WJdM1xfKWAX33ntv9z/w8MMP77wzX2S5YSLRxtaJgojhawcsSYuVa2GuCcliPmYxEhYsUNn9LQsWMZedCwPRKIk7t4zhlws5keEzKhvK4wpzGKukNz32oSRUbvy+UEWNVqOkFjHWOQjO66uueLWrehXUgqAVglnHeYCnhTggutyzyAloWYzGVRN8H+GbDy5+SZ/Rotj7NeEHxnIMJLIaY7k3gfkvN00qt1c2V+6dZ8XflTkm3pPgSjB4jt1P4yFyT5w4sXP03UFOjjwC1S5zt7inhgITiW3E1omCiOEjOd4Bbv5aEIxZjFMt2OhcWFvsZaMkpBJCIBZy7/m9xb6GrZRZ62Hp1oTaF6qo0WqUNMWVKkTifAQLj0TtQVgW9fj7QjDrhvmWLBjET6gRh77WhF8TfB/h86wQktz8fa78EmPCQNWDPBLho0C9aRJxKQTG8vU7ZYwSFWuBSsCpOgC/5zHwns6DBOZu4DpuvfXW7pjyF+aMqaHARGJbsVWiIGL4LGiWnbrtWhAMEeMyFmzsNVBb7EINxIKFuWXRWbQIDmRdx6i1NBaPdkyoCTW2RR5LLiyTLIU6prpS6xbGtQdhWYFQjp/VukwS4RCC6F1PEHz9s69EjfuBZFn44vyEYovwlwHR5756hoZ2W4QhYdDXClmowPz4PU8Bsr/mmmu6e+B+lGKyFLAEMc/IPffc0+XThHVvV8NV90EwfmED4zt27NjOu/PEMp1HE4ltxdaIgojhsw4sZAiRJRaEOkaMy1qwtcXuuAhb2Rk3roU+hEBgrLxPbJg1i8BqQdAXqmghkiy1yJ3qSnU+pOL8rXj8sgIhxh+PX18Ipoa/n0L4QeolwZc/E1iu29zx9Li3XlOSEadgmbLFIWFAXHgmHEdio/n1IgRsCoWMy6RD7nshMfe3FrASU4mH8j47rxwAQpNYIJSmgqh4/PHHu6TIOQsCz4T/7Sw3TCTGsRWiIGL4asBZ4vIJWA1BqEPEuGwZHERyIYKORdziLsHMoi+bv8ZYeZ9jsPjswx+EGuOHvlBFjUiyVPe+jCt1mRbGYwLB+CW5mXdEbV4R8yqEX3+N74cs/D6L0fHNsbEbU0v8LINlyhZbwsC1mkPVBdFHggggnOpNkyLpkFj4yle+0nmZpm4GxTOml4HzXXfddd3z2VdJAc7t/8n/DKEx55DBKsmjicQ2Y2NFgYRBzXkQC9JXf63drc59NVhSFnyWOCIQTw9C7SPGsSTCPnDNP//8853AKAnR+Z2rjOGXGCvvIxhYsY5XC4K+UEWNSLLkKpYtP9WVigSij8OyCIHghXR4SQgT37se12xu1kX4Q3COKRYjAUcc1MmIq2Bq2SIQBjxJBJLKkDK0ZB51xdQHICCUY2y8UZIOjVl+ASFBQCxbKsrThOyJGXkMxKn7wwshDOF5ISD83jjkIhjbXJHlhonE8tgoUWBhRI6y5gkCxMhyt2ixkCxWiIO1bNHi5o86fARgAbWwBqG2LEaLHzHAvRwW7BjCovMSZkB82qSGkKhj+DXGyvuICZaia6oFAUxNLjR3FkfXNtWV6tzmr5XjEPAIBal7lSQfP/tqHhzPuXltEJ4Xy3i3hD+GVSxGzwYBY7w+s2oyJRBWrt2cc+2XMDfx/HiuPefaTUdPggBBY34iyZAgtmmSYzq2UAFXvjkVulClsArcb/8D/ndCdLs/7hnviWevL+9kDshyw0RidWyMKLDrmh0GWS9c3xbMsrYeuOAtaFzdLOeo6RZjR/qEA0KV5FdbjMuWwZULeVh0ju3ztcVexvBrEBF1C+MaL730Une94tS1IJiaXCjJkiXKcp1KjJHjwEXNAg2CbxF+kHrrq/nhnSHInBvhjYUY1ondWoy76YxYAuETJix411s/P8ZG3A3lGJStkAlY98c8KjlUqUAwe/5UqThW6f3aBgyFAhOJxDhmLwoQ+YMPPthZLXfffffb6raHYGG1K6EyLTkErGiLuQW1thinJhG2hEAs5NCy2MsYfg1jLFsYt8AtzMp1m2pBMDW50Od5KpTKqbgIYnTMmuDjZ/FqROozBE0f4cf3LUETIRikzx3uvOX4A3slENZpMZor1+K1ajKicRB27nnkf5TPT4k+YSCkwTugERHRZhzCQkSv7yPp0HFtFiVHYFvAW+J+e8a2TQwlEuvCrEUBQXDnnXd2xCS72ddlcfbs2cXp06e7xZGlWFqMU5IILeRDQiDQ6lwYMfzWZkd1eV8flJ9Z5OVL1IQ6lFwYhM9l/8wzz3Q5FwTPUB1++VVyGzHA2lrWpV+WwYnJc8PXgqYP6xIIe2UxmjfXZoyembFkxL7nh1Dzs2exr2yxJQwIWGWp5umWW27pngtCgegjPInLSDrktfJMtzxUBw1ZbphIrAezFgVHjhzpviL13cCCefLkya5Zi5eFncXXl0Q4VQgE+ix2MXzZ4mWNOZhyv+sr7wsQLIhN58OSUH3eAigsQVQIfQTJl4SvvIxYIUh4WErij+9bhL9qC+M6BGNuy7LPZbGqQNgPi9FzQRy0khGnPj9TyhZDGPA+8byEgJX4WbZCFkLiVVKmGJ0OJQsSpTfccEP3NwcRnvU6FJhIJFbHbEWBHAI118h2FQ9BjVOnTnXJXrfffnsziXBZIVCiZbEPbXY0VN7ndljoeBL+4A/+oBsjUVETPtcxi0jZWRB8SfiuUfzZee66664m+bcwJcehhToEIwehlRS5KqYKhP22GJ2LeHPfJJjykizz/IyVLRIC8gQQPS9UmXzoufOMRUhNuMC862rIC6USh7fKe4TlQUOWGyYS68csRQEC4Ap99NFHJ+cQjEF8Wf014tbBDeHtRggEWuWAFisLfb3ZkalmhUu4s0gj+CD5kvCROivSZ1Ux1ISvx35rk6UAYkTsCEM+RZ2Q2YcpOQ41WiEY17lOQVCjJRCECXhF9tNiLJ8fljrPk0RYz6xrn4pW2WIZgjGv7n8rx6BshWwueMU84+aBmBBGIK55C4bKITcNWW6YSOwNZikKnnvuuY48z5w5s/POemDBFG89fvz4roRAiUguZK0gdXkQrDTHRZQl4bPeLfZivBZyBF8TPquOhW/R0z5WLkCJoeRC5whXKhHkHFP3+p+a4xDo6+Ow14KgBoHAKyOh1PWypFsehHWhFAL18+PazYnXKsmIPFnEBY8D4efzXuGxaeUYmH8VCMJQPErGxYNAkPoaYQNjU6646chyw0RibzFLUWBBu/rqq1fux94HGfC2qxVCuOyyyyYLAVNUW/RerGQLteN4H6nzHLDIEH9J+P5ep7m+FsbgPBZ9hEtkcAPX6EsuLF2pPAzi6n2Nkmo475QcB6gt2DIEE+PfL0EApcXovOtIUqwxJARacK+XSUYMCMEIAfDw8BC1XP4tYWBMhAHvmuTQ2DTJ80MEE5BKFP0/LePBmBuy3DCR2HvMThSIgVrcWMt1k5d1QPIi4rQ7HLj8FuGXP/saVn1Y9IiXNwMZiev7nTp0ZEDUlPH4sRbGEITKskPwusWVoQfo61xYEiNrmUekr1FSC1NaGI/1cdhvQTBmMa6apBhw3GWEQAs+Z854j+pkxBJ1CIZ3wbXJpXFtNVrCwDGEjdx3z6dnQC8D1y7vAZHGXG0istwwkdgfzE4UsIRt0IKo9gJPPvlkR9y6A/YRfmnhx88lAUJtsfNCiN3qA1DH8BH5UAvjklC5g31FDjXqPggtYhxqlNTClBbGY30c9lsQLGsxThUI6xACLUQyorCO+xrn5RHyLBJcrSqYod0WW8LAOaIVslAVzxTvgNwCXiBlpgT3VLE4F2S5YSKxf5idKFBCJWaui99egAUldq4aoY/wx9Cy2C28SLmO4Y+V95WEyovge16C7/u+79v5i/9D3QehRYxIAdFY+KeA9YWU+loYT+njsN+CYLcWYy0Q5GWY62WrBlZBdEbkzTFvekiY16FW2kNliy1hYG48z4QEwSdXRPjC80lMem4uv/zy7m/nDqLd9WS5YSKxf5i+T+o+QXOdvaypdmwvFgdRsKwgAIstqz8EgXpxVmYtCFjYBATvQQs1oQoBsBhrQcAjwcqLGDNitMugxLIQBMIuCGcqMStpFL82tloQEBa8EsbvnOLbcxAELEbXqKJiVReyToC2nvbyHCBcL4l95tP7eyEIgLWO2IV7hGF8770hXHjhhZ3Ik0zpVYIQIAjcAwIBkCeB41ly74SuvvGNb3TXpMqBKJAPMncIoXnGeVWImBQEicT+4PseVfc3I3B7cpva930vgACQODHAJYkALZrivhZNLnmkXBNzgMXOooywAWvvL/7iL7oytNKtbpEWYtDnv2WF14Tquh275VEwZtY6Sw8x+jtEzaoNcBWzOqeUHyIK53besDABmbz++usdYSFd19jXI2I/BQGL0fURjAjSOZcF0cbTgliJOoIO4SpTNX4E7RkghBCqvyca6uqPVeG4kv2MXbKpJEBCRHdCz1pf8ikYAy+SygSlpu5xkKT7IzTlXvjqZ+EjXiTPDNHh+XSNnh35L7wkfbktcwDR5H9HUvCUDckSicT6MLvwgYX72muv7dzue1FX/cgjj3TuyEOHDnULv1fkFvga3+sGGOGFyC2QjGexRdwI2cLciuGPlfe1CPWVV17pFnCWaokIVQgbIOyWK3WoUVILdY7DsptB7acg2E2DGvdxlRyB3SYplhgLwRiXuR9LRgwQNDxFnoEyEbcOJcgt0MOAAPG9eXQNhDBR6N7vlUdkVWS5YSJx7jHLkkTx0E9+8pN7UnYkCYsgsHgOARlYnOJFLLBgLKiRyW1BZ73K8g7hoM8Aiwy5W3hrt2eLUJGP2P6HP/zh7ucS3PiOGTsM1sQYpCmhrK5WaKHOcRhLIqyxn4KgrKpAaFPgvqwiBPqwqkAYSyKs0ZeM2EK522JZ7lgLAx6xaIXM0+K55Z1wj83T1JLV/UCWGyYS88AsRYHqA5bqJz7xiZ131gNW1h133NF17VvWCqmTC8Xw1YZz4xtrCAdWuylliXuv9Dh4cQGLa2uyEyIC8Wt2w7VbQpiA5cRj0iJGgkTipNhx/dkWCIBoYYxYxpIIa+yXIFjWYly3EOjDFIEw1MdhCiIZkRfA5811C8JW5qguW6yFATc8L5LnzbNCSBBbQhLCUWM5DfuBLDdMJOaDWYoCiyprXqJRy/2+KnQIRDBEx7KoywFbmx0RHXV5X3gcLMwS+8SPbd8coQoeAOEGoqAMVRAeKjBcPxJv7aQn94IgmWJZIQtiSCybS7tvM6g+7JcgmGox7pcQ6EMtEOKe8twgc6+hEMwQzDVh4DXWGbFVtlgLg2iFTEDYQ4Fg9czJodFT41wiyw0TiXlhlqIA7rvvvo5AT5w4sfPO7qDvwdGjR7teArXFPYa6HLAVwx8q7xsiVMTPerNgIzovrmfj5WXgHvZeneMgBm3xl4nP6uNx4HpuAQF84Qtf6DwUCGxZC3a/BMGYxXiuhUAf5HoIy3heEbPQUe1BWAVEhmeK+HDP+jojtsoWS2FgHNEKmQfDc8Jj5JmRbHkurHPX5l63cmQSicS5w2xFAYuLq17nQXX7u4EF8tZbb+0SGG+++eadd6eh3mvAuCxm5WZHyvssuiz6Oot8iFBZbWK8KhQCiNHfO6/dDaPsMTwOXqxpMWKuX7+3wLaEQ3gcdId0PKVdNs5ZxoLdL0HQZzHOVQhAK4lwnUmKAdc9loyI7D2XfhelsaUwIAA8o54BAsZ4eLWEaq677rru7/cLkQezSvJoIpHYW8xWFEBY93Y1XHUfBAujsAE3/7Fjx3benY6yc2HE8C26FnsYamE8RqgvvvhitwdDkGAQo8+x6iJUUaOvUVIpHLwkmemDTxywXoUMWsKh/L70OOyHIGhZjHMWAjA1iXDdAmEsGbG122IpDIzXM2bM8gr83lx71qZ2wNwtVkkeTSQS+4dZiwKwoMkB4DW45557OlKbCqLi8ccf73aHW0UQ1MmFrRh+Xd4XGCNUC6P+CDwQJTFa6CUB9m2LjOh5E4Yyx8OCRUrCEh/5yEd2ftOuqoivpceBUEAoYtFIpE847AalxWjv/zkLAdhNEuE6BcJYMmJdtlgKA8+cPBahJB4nCbNEJsGrN8i6NyELZLlhIrEZmL0oAAT6xBNPdAsKV6eGM0M9DCyKLHqEc/jw4aVDBoEyuRDRIoRys6O+FsZjgoDFdvbs2Y7YXVMQo6Syvm2RQca56/K5VrUACxZZ8AiIbWuI1MpxGAOLU7tpxC9E0Sccai/DMsKBxSg3AzE631yFACzbx2EM6xAInjFj8molI9Zli6UwcG7jf+aZZ7rzBzzbpYBcF7LcMJHYHGyEKAggTKTIUhMb565npes8x4rjXiUg/F4/ArkIFttVUCYXtjY7Ksv7SoIYEwSADC3GrKXSlVpvslSDV6JulAS1BcsK7MtxGMOU8YPxEwfxmioczBUXNqI4//zzO2t7jkIgEH0clHyaW9eyTuxWIJjrvmTEumyxFAYf//jHO+u9hPc/+tGPdt/zIBAW7hMvgmTWd7/73Z1HZxmMJY8mEol5YaNEQcAiaKFmvceihXCUhVkULUC7cU/WyYV1DN/iqryPYOBeD0whVIs4L4GxOk+4UutQRQ3hAJ6AcrOjlgXL6h7bprkPUwXBVIRwcG3uFZGFvJCU6yfmdutx2Cu0kgj3GrsRCEPJiGXZovtRCgIizT1w75UvEmmed4LAc+C63SfHJTrdE6KV6NbsaghZbphIbB42UhTsNUqLvY7h97UwnkqoasZ5IZB26Uqt+yCUYLVx54v3Oj70dSLsy3EYw7oFAfJBbl4ICbkLZ6i0KC3GVT0OeyUclu1EuFdYVSD0JSNG2SIx63jut3CD6zSXvAruE0+APhuaHdX7aEiqNTdydTxnyF6FDIFXwn2rk0cTicRmIEVBhdJitwiWMXxTxQoXZy/dtFMJFYnzEtx0001da+RA3QehRtkoaciC7ctxGMPU8Y8BgZdCIIgM0e7GYtwP4bDbToR7iVUEQisZUVmuY4FwgF4bRI/EQ54AHgQbe00Bb9nTTz/dVbfYUy2euSw3TCQ2GykKKpQWex3DZyHpTVAS51RC5UqNxK+StOtQRY1olGSRtcj3dSLsy3EYw24FAUJuCQHj20+LcVXh4H4SLNzl7s2yfRz2G8sIBPfWM+MlGfFTn/pUFwrwzLl212oHRR6v48ePd2GdZUHknj59uqvu8fxmuWEisdlIUVCgtNjrGH6rhfEUQg1itIBz0fISlNsyDyUXsrpst8s969x9FmxfjsMYVhUECLZPCATmaDHWwkFoyD1HhuZtrI+Dr17rClXsFlMFgmfwoYce6v4OPGs+KyzG0/Tkk092768K3rSTJ08ubrzxxu61m3yeRCJxbpGiYAelxY60xfCVaFngLJ5cy2V53xRCLYlRQqTFugw7DCUXShi0WDsPKxuxtizYsW2a+7CsIJgiBAJzb1AzFIJZ1eNwroXDmECIHTjDS8AD5j5ps72Kh6DGqVOnuv8R/0OJRGJzkaJgB6XFXsbwWy2MpxBqSYwI4tVXX+3Iv0RfcqFQgNbEzqc1M5JpwThaOQ5jmCoIEOBUIQBzb1CzriTCuQuHWiAIK3mmPCc8Xd6XD2AX0qk5BGNw73mq9Dmon/NEIrE5SFHwXZQWOzKPzY5aLYzHCLVFjK+88kq3IGs1HGglF4YFy0tAoGi6NBTfbuU4jGFs/Ma9jBAIzLlBzblIIpyLcCAQVAjotQEqCtxTz/mZM2e699YFYQSeAp6rRCKxmUhR8F2ExY7AEXpsdkQolOV9Y4TaIkbkipDCfQtlqEJyFgs2kggRluTCslFSC60chzH0jR9BrSIEAnNtULPuToTrxn4JB3F+IRJ/6xkwJ95bd0tjwoNn7DOf+cxoD4NEIjFPbL0oCItd62SWTmx2VJf3jQmCPmLkaZD5rSNeIEIV3q8t2L7Njkq0chzGUI8f4exGCATm2qCmr4/DpmEdwuGWW27pQmFEgBwDybPCU/IK1o0jR450z7/dTROJxOZhq0VBabFz3bMiWfh1ed+YIOgjRuRNdHzoQx/aeef/QhXCCZrEyH4vLdgpmx0NbdPchxi/ZEaf2a0QAIREBLFSXfdcGtSci06E5xpDwkHDIj0LgPfLK6pV9gKSYx3fXiWJRGLzsNWiICx2LnyWt7CBioGyvG9IEIwRo8xuOzTqGR949tlnuxj3L/zCL7zNgh3b7AiGtmnug/wI4+DaZTnuRggE5lhuOJdOhHMDcg6PibwW8ySfwLO2F3BcXTtfeOGFnXcSicQmYfo+xAcMLHZhA1n7r7/+ekf4iJkgUN43JggQ48svv9y5Yy+//PJ3CII33nij+1wIAhbsU0891ZUQ6lVw6aWXvs2lbQyEwpBla2zEwJggYCVqa8tFrH7cdfBW6GhHvOyGMBHKV7/61c6jMgdBQGAZj6RLIRoelBQE34P5kZuiwkWeimTXvap6AM2R7EWSSCQ2E1vrKYjkQpYT8mZ9l+V9Q4KgLDdkdbfw4osvLi677LLuOCw1FQXOdfXVV7+jc2HdKKmFsRbGhECZI2Bc9hrwtRXyWBZzKzecexLhuYLnLcIHXoSrEAIQoZJZ/V4S7V6Ah+BrX/tal2yYSCQ2D1spCiK5kACIGH5Z3tcnCKYSI8Ggn7x++5FEyAshVFF3LozNjqJRUgt9LYxrIRChAU2M+gTNKphbueFBSSJcFjXh+77+2dc66VAIwbMtrELwPvDAA53InJqkugweeeSR7rhHjx7deSeRSGwStk4URHIhV70tZQkCpBrlfX2CYCoxit3r7obg7TRHECDsvs6FvBPRKKmFuoWxRb8lBMJl3jf+VdFXVXEucJCTCFclfN/XP9ceE/0uVLp45m2EdPjw4cVjjz22JwLPlsqHDh1a/Nqv/drOO4lEYpOwdaIgkgsl4CnJYs1HeR9rqkWoU4mRBSss8a53vWtx3XXXdQs09HUujM2O+kIC0cLYxjXG3CcEAusWBHMpN9z0JMK9JPwpKKtZPONElfupo+E6oXfGHXfc0YnYPq9XIpGYN7ZKFETnQv0AWP6szSjv06SoRahTiDEsWAuu3fZuu+22ziKDVudCiAx+teM+V4NYsAOdxC2vPiEQWKcgQFJDVRX7hTlvZxw414TfB+cMj5ISWM87sappEfc+a16+wTL7ZYzh3nvv7cTAww8/vPNOIpHYNGyVKGCxW7SQtGx8jYIkGMotqAl1CjGyYMW2YztjeQQ2U7r44ou730eoIjoXBmRnK93izi2bGpULOZHhMyobxizjdQqCOZQbziWJcK6E3wdjieen9igRAfbRiJDBfffd1z2rJ06c6H7eLeTkyCP44he/2J0zkUhsJrZGFITFLllQ/N6GMbwDEtVqQh0jxpYFK5HQgnj99de/Zfn3bYsslwFJWKBbC7n3/H5KC+N1CoIpVRV7jf1KItw0wu+DMfYJgSF4xuW46Dzomd0N5L0odyU65C8kEonNxVaIgrDYJaax+CX7Ke9Tt10T6hAxDlmw4qiOEyIiQhV1cqFQA7Fw0UUXNRdy+QuR4zCWHb4uQTCHcsN1JhEeFMLvg7GvIgRqhHV///33r7wPAkEgbEBoHzt2bOfdRCKxqdgKUYCEtQcWp2f9W8iQrs5rQahjxDhkwRIAyJnFxSULdXKh437961/vGgqdf/75XWlYvZAv08J4XYLgXJcbLptEeNAJvw+uaR1CoIZnSA4A8XrPPfd0+yhMBVHx+OOPd107UxAkEgcDB14UIGyJVqx1iyhLXD6BBMIg1CFinGLBfvnLX+46GyJ6iFCFXIJyIdemWGKXzZdqLNPCeF2C4FyWG7ZCMKsQfv11Ewm/D651L4RADZ4xvQycT9WM53PIS6XKQE6M/xnljRkySCQODjZWFGj6I9MfoUvck+2vpbCNhkqw2L/97W93Nf4scV4AGw8FofYRY51E2LcQ6xr46quvdpYWyC14/vnnO4EhRBELOUJzrrI8rES9TXMf1iUI9rvcMAjf/BADNulxv1xzSf7bQvh92C8h0IIQG7In1JTBEqfuj+oXIs7zQkD4vX4EPGPGlkgkDg42ShR885vf7KxpVQMEAWJkuVu0EL/FCnFI7LNoIRChA1/lErz3ve/tKgSCUFvEaPEjBpB9WLBD4IXQW94YLOTCDMIDV1xxxVsLOSK02BIELU/DWAvjwDoEAfIdq6pYFkH4CM2rJPn42VfekG984xudV0UM2jxtE+H3wdycKyHQAtHmf4CXLES3+/Oe97yn84Z59s5F3kkikdh7bIwo0FPdDoOsF3sE6BaIjEsgHQuaWCfLO/YxIAaQPuGAUCX51cS4bBmchZzg0IBI6aCF3LF9vk4uNBaNkn7u535u553vgYhotTCusQ5BsEq54VTCD1JvfUV0PAPG7ry7SSI8KDBncxICiUQiAbMXBYj8wQcf7KyWu+++e/GBD3xg5zfDkExob3e7D8ohkPCHlFg7NTFOLYOrF3IdB3/xF3/xrTyEVudC+Qh9mx3VLYz7sA5B0KqqWAfhx/ctQTM1BLMtMJcpBBKJxJwxa1FAENx5552L8847r8tu9nVZnD17dnH69OkugQohlsQ4JYmwbyFHdBIKCQ5odS4c2uwoWhjbpnmoq9yqgiAI3xzKeRAW4TnhCl4H4Q+hlUS4rUghkEgkNgmzFgVHjhzpviL13UA8/+TJk12LVy+EOGTBTlnIX3rppa4US7JcX+fCvs2OTHm5TXMf+gRBEL5xBsHXP/uqvExyJbFjQ5x1EP4Q5tKJ8FzD3KcQSCQSm4jZigI5BDoEIttVPAQ17FyolOr2229vJhEus5C/8cYbizfffHNx5ZVXdj+3OhcObXZUbtNcIwjfZ5U6yncwjprwWwRf/uwahUmcYz/KDferE+FckUIgkUgcBMxSFKgyEIN/9NFHJ+cQjEFzIvXXiFsHNxbsqgv5iy++uLjsssu65MVW50IJfRIZhQ3KzY5MtUoDFRD2Peiz8JE60UEMSU6sCd/3Qxb4fpYbrrMT4aYhhUAikThomKUoeO655zryPHPmzM4764Ewwuc+97nF8ePHV17I5SQoqwsPQCQXssaRuhi+XAHHRZQl4bPexdsRvcTCIPiS8G3lXHZaXAbOse5ywz5saxJhCoFEInGQMUtRwMK++uqrV+7H3ofvfOc7i0svvbQLIbD0py7kpgjh6jfwhS98oas4EK9nJasgcJyw8HkOdIOrLXyf/8pXvjLYwth5Vq0y2K/dDbcxiTCFQCKR2BbMThTI2Bc6sEeA2v51Q/Ii4rQ7HAThlxZ9/bOviJ2HgPWtz4GwAG+GSgbbHyN/DZUQJlFTuventDDejSDYj90Nty2J0D1PIZBIJLYNsxMFkvZs0CIZby+gdwHi1vGwJPzShV9a+PEzL4NcAtvDaqlcJxf6vcRIOy/WTZXGWhivKgj2a3fDbUkiTCGQSCS2HbMTBer6VRwo+dsLyCsQ81eNEIQ/xeJ97bXXuh0QL7744mZyodbLSFloocRYC+NVBcF+7G64DUmEKQQSiUTie5i+T+o+QXMd+wjsFRzbS1Y+UTBFEMgl0JxI2ACUNrL6QxDYYAm51IKAhU1A8B60sKogsLHSyy+/3PU/2AtBIIlQAqXxq5Kwj8NBEgTu1T/+4z92AlSOCIGlX8Stt97aeVxSECQSiW3F7EQB17wM/r2CRDliYBmwlmXYyyMgDoQNopUxwaCVck3qEhC53HUsbAmPVQWBckPH1Ulx3f0HzM1Xv/rVLnTDYpYUeVAIMoVAIpFIjGN2okCHQJntkvP2Aur37X8wFSx9mf2qCYiBr33ta531HCAI/Fxa0loY29OAIGjtabCKIJD/wHrX1Oi3fuu31tp/QBLh3/7t33YhG2PSEvogVBWkEEgkEonlMDtRcMEFF3SWvGTAvYAs/aHWwjX8PS+BfAJhA0QSrYx5EKDc/RDhEwRi8K09DVYRBESJcIEthy+//PK19h8QIvjjP/7jLu+BGJBIuMlVBSkEEolEYnXMThSAjP69qD5A6rwQU8lYsyFliEiFx8CGR5E3oHSSG7+O6XO/S/5rCY9VBIFyQ8d0HkJjXZBEKOnSfPz6r/96179hU6sKUggkEonEejDL5kW8BIcOHeqs46EdBJfFvffe22XSK3mcgldeeaXbtOinfuqn3rEtcmuzI6KDeECyNZYVBHtVbnhQOhGal6waSCQSifVilqIA7rvvvs5lf+LEiZ13dgeeh6NHj3a9BKY0+EE2yFP8vt4WubXZkYoAYuY3f/M3u46GJZYVBCzddZcbHoROhCkEEolEYm8xW1Egjq4PgM6D119//c67q0ElAFeyxkM333zzzrvD4Amw3TBPRbktcmuzI9sT/+mf/mmzhfGygoC4cHx/u47qgk3vRJhCIJFIJPYPsxUFENa9XQ1X3QeBIBA24OY/duzYzrvDQMy8A8r+ys6FeiiIw8srQE4w1MJ4WUGw7t0NN7UTYQqBRCKRODeYtSgApCoHgNfgnnvu6TYimgqi4vHHH19ccsklkwUBKM3zGc2Jys6Ff/3Xf91Z2aVLv6+F8TKCQLnhOnc33MROhCkEEolE4txj9qIAlAU+8cQTHXEom7vqqqveEbcvIeGPRS8uf/jw4ckhA3jjjTcWb7755uLKK698W3IhohWTLzc76mthvIwgWOfuhpuWRJhCIJFIJOaFjRAFAbH9KKN73/ve17nrWenaFkuk43onIPzehkdyEZDMMrDpkW2VNSCK5MLWZkdc8//yL//S5RGUMfplBMG6djfcpCTCFAKJRCIxX2yUKAggQBYx612mvli/hkc6FapPR8arlPAhaH0JkHSZXGizIyQfnQzlKWhQRDCUHQunCoJ1lRtuShJhCoFEIpHYDGykKNgLINizZ892JYVf//rX30outNmRxEPvAw+CXRa1MC57KEwVBOsqN5x7EmEKgUQikdg8pCjYgd4D8gM0KorkQpUFwhUEgWQ9U6XSQEOjsmPhVEGwjnLDOScRphBIJBKJzUaKgu9C9r/+/9dcc01XYYDEJBcSBz/+4z/+1t4Gqhn0JiiJf6og2G254VyTCFMIJBKJxMFBioLv4rXXXuu6J5533nlvJReyxhHxBz/4we5vWi2MpwiC3ZYbzjGJMIVAIpFIHExsvSj41re+1VUW8BIIDUguJBBsrqP8kJu+1cJ4iiDYTbnh3JIIUwgkEonEwcfWiwJVBIhdPkEkF5abHbVaGE8RBLspN5xLEmEKgUQikdgubLUoEA5A7ldcccXiz//8z7vkQmQemx21WhiPCYLdlBvOIYkwhUAikUhsL7ZaFHz5y19e/NiP/Vjn5kd6yBihx2ZHdQvjMUGwarnhuU4iTCGQSCQSCdhaUfAf//Efi1dffXVx0UUXdcmFWieXmx3VLYzHBMEq5YbnMokwhUAikUgkamytKHjllVc6ImShI36u+9jsqG5hPCYIli03PFdJhCkEEolEIjGErRQFSBEpa2EsudBXFruwgVBC2cJ4SBCsUm6430mEKQQSiUQiMRVbKQokD7773e/udkRUZvhnf/Zn3WZHCLpsYTwkCJYtN9zPJMIUAolEIpFYBVsnCsT+//mf/7nrRYAkJfkhfcmEZQvjIUGwTLnhfiURphBIJBKJxG6xdaLgpZde6ioObGxEAMRmR2UL4z5BsEy54X4kEaYQSCQSicQ6sVWiQLjAtse2R7YNsn0OCAKkGi2M+wTB1HLDvU4iTCGQSCQSib3CVomCF198cfGud71r8cM//MNdgyKbHf3QD/3QWy2MeQpagmBqueFeJRGmEEgkEonEfmBrRIEcAKTKrc+Vz/JnxUcLY02KWoJgSrnhXiQRphBIJBKJxH5jK0QBl/7Zs2cXP/IjP9IRu2ZFH/rQhxZ/+Zd/2SUYyi2oBcGUcsN1JxGmEEgkEonEucRWiIK/+7u/W/zbv/1bt8OhZEEbHfmZd4CbvxYEY+WG60wiTCGQSCQSibngwIsCFr9cgu///u/vcghY/D/wAz/QtTDWm6AWBEPlhutKIkwhkEgkEok54sCLgtdee62L+Yv3Sy5k/atAkFhoZ8QQBGPlhrtNIkwhkEgkEom540CLgm9961uLM2fOdGEDVQZIWCWBfAIJhCEIhsoNd5NEmEIgkUgkEpuEjRUF//Vf/7X413/9147Q//d//7dLItS6+IILLtj5i0W3hwERgNDtY/Cf//mfnRfgn/7pn94SBH3lhqsmEaYQSCQSicSmYqNEwTe/+c2uFbGqAYIAsbPc5Qt8+9vf7hL/9CD45V/+5bd2OyQICAa5BO9973sX//7v//6WIGiVG66SRJhCIJFIJBIHARsjCl544YXFs88+u/jJn/zJxQc/+MHF+9///sVP/MRP7Pz2//A///M/HaFrWfylL32p29RI/J8YQPqEA0Fw0UUXvaPccNkkwhQCiUQikThomL0oQOQPPvhgF9u/++67Fx/4wAd2fjMMyYRPPvnk4vXXX+9yCH7mZ36mEwTvec973lFuODWJMIVAIpFIJA4yZi0KCII777xzcd555y2OHTvWfV0WmhadPn16cd1113VlhmW54ZQkwhQCiUQikdgWzFoUHDlypPuK1HeDP/mTP1mcPHlyceONN3YvvQuGkghTCCQSiURiGzFbUSCH4Itf/OLi85///EoeghqnTp1a/P3f//3iox/9aDOJMIVAIpFIJLYdsxQFqgwkEz766KOTcwjGoDnRVVdd1VUm3H///QtJhCkEEolEIpH4HmYpCp577rnF3/zN33SNh9YJYYTPfe5zi+PHj6cQSCQSiUSiwixFwe/8zu8srr766sVv//Zv77yzHnznO99ZXHrppYvbb799cdlll6UQSCQSiUSiwP/b+TobRKfCSy65ZOed9UGr44svvrgLJaQgSCQSiUTi7ZidKCAIJBba0XAvoPmRUsREIpFIJBJvx+xEgb0Mzj///J2f1o8f/dEf7c6RSCQSiUTi7ZidKLC5kb0M9gqO7RyJRCKRSCTejtmJApsX6WS4V7DhkU2TEolEIpFIvB2zEwW2P9ZcyOZGewG7Itr/IJFIJBKJxNsxO1FwwQUXdJa83Q73AvY++Nmf/dmdnxKJRCKRSARmJwpA10HbH68b2hzzQvzSL/3SzjuJRCKRSCQCsxQFv/Ebv7H40pe+1G1/vE7oaOjYdkVMJBKJRCLxdsxSFPz8z//84ld+5VcWTz/99M47uwfPw1/91V8trr/++p13EolEIpFIlJilKIC77rpr8dprry1efPHFnXdWB4/DiRMnFocPH+72OUgkEolEIvFOzFYUqBCwS+KnP/3pzu2/KgiCe++9d/H+979/cfPNN++8m0gkEolEosZsRQH86q/+6uLYsWOLkydPLk6dOtXtWbAMhAxuueWWxU//9E93x0kkEolEItGPWe6SWEMZ4RNPPLH47//+78V11123uOqqqxY/+IM/uPPbd0KVAe+CHAIhg/QQJBKJRCIxjo0QBYHPf/7zHdkrK3zf+97XbW5kLwOti3Uq1JiIgPB7VQaSCjOHIJFIJBKJadgoURDQ2Ogf/uEfut0ObW5kLwMNj+QhaEykD0GWHSYSiUQisRw2UhQkEolEIpFYP2adaJhIJBKJRGL/kKIgkUgkEolEhxQFiUQikUgkOqQoSCQSiUQi0SFFQSKRSCQSiQ4pChKJRCKRSHRIUZBIJBKJRKJDioJEIpFIJBIdUhQkEolEIpHokKIgkUgkEolEhxQFiUQikUgkOqQoSCQSiUQi0SFFQSKRSCQSiQ4pChKJRCKRSHRIUZBIJBKJRKJDioJEIpFIJBIdUhQkEolEIpHokKIgkUgkEolEhxQFiUQikUgkOqQoSCQSiUQi0SFFQSKRSCQSiQ4pChKJRCKRSHRIUZBIJBKJRKJDioJEIpFIJBIdUhQkEolEIpHokKIgkUgkEonEd7FY/H+bhknbZiBDrgAAAABJRU5ErkJggg==;" vertex="1" parent="1">
          <mxGeometry x="67" y="20" width="706" height="763.34" as="geometry" />
        </mxCell>
        <mxCell id="IRch1kM8VxnB3qviVSgo-1" value="" style="shape=image;verticalLabelPosition=bottom;labelBackgroundColor=default;verticalAlign=top;aspect=fixed;imageAspect=0;image=data:image/png,iVBORw0KGgoAAAANSUhEUgAAAgcAAABYCAYAAABh5lQwAAAAAXNSR0IArs4c6QAAAARnQU1BAACxjwv8YQUAAAAJcEhZcwAAFiUAABYlAUlSJPAAAB7KSURBVHhe7Z17aFtHvse/vWRZBVKwlyzIbBeibgpV6EJkdsEyt39EJguRyYXIOBCLFBK5rygtpHICrdX8kcpecKQUUvmmNFYCLVKgQcqyxQo0WIGbIplNkQwtVqDB8m6ySLDelSBmLdjA3JlzRk9Ltvx+/T5wpHNGR+fM/OY3M795v8A4IAiCIAiCkPyX/CYIgiAIglAg44AgCIIgiArIOCAIgiAIogIyDgiCIAiCqICMA4IgCIIgKiDjgCAIgiCICsg4IAiCIAiiAjIOCIIgCIKogIwDgiAIgiAqIOOAIAiCIIgKyDggCIIgCKICMg4IgiAIgqiAjAOCIAiCICog44AgCIIgiArIOCAIgiAIogIyDgiCIAiCqICMA2Jb8ac//QmffPKJvCKI7c3g4CCCwaC8IojVg4wDYlvxz3/+E3/729/kFUFsb4Suz8zMyCuCWD3IOCAIgiAIogIyDgiCIAiCqGDrGwezOeRytY68vGGrkK8Rhq0Yji3I83qyz/FYIQrkZ5II3wwhWSaU/KMQhi8HkJiVDhtIvkb8KXH4XN5A1Gc2g+R4BJH76hF7lNnecqtXblCCL7INWg7ySCeCcB5pRnOzOMxw3okilZM/byHy0xEMv6GX4dDDei2CZCZPBdQ6kM/EEbxolrJvhvliENHpLDcc5A07macx+D6x4sAvD6DzdASpokJmEB7swtkLVtiuJ6TbBjKbQuSaFXoZh/o3hhF5lCbjYCFyCfje6kDLK1Z4HnCDQHVE/IoVup+9jK7PEvxqG5JPI37HCbPUleYjTgRjKWRJV0qwbcLUFyYmgoODbhaXbpuJ7JM0m5PnCzH3rUMNB2ws+A/pSDTMyMgI6+3tlVdL5KcRZlJkb2DuhHRbFlmWftJIbG8lppj/mJCNnY1mpRNnLjXKRq76WXzZurrKspobYw4lDsFsoTKPblPefvtt9vnnn8urJZIKMtt+Lqs2O/Mn58dB9tt+ZuRy1B7yrjhPbTT/Ww3m+Lsai/kpNnJY1RXD0GYsNTaWbTPmYPeeJnm2CZkOwN7tR1JeLoTmxebCGTS75CmxPmh2YzW0KHXLDsvtRmJ7K7EbqKGPmn1m2N7rgWGvdFgiqy4rHofFFETppz6zMQyc6ILvsQGOSy70vKqRP5RoOuyE55IBmftnYT4TXn4LwhLyvxXDw+XpdiHakGd3Y3chwZOuzIMGJK41SiK0IkB9AzuC/PgArD0B6gpqAJLVxpG67YJznJ+0dcH6ej2TWAPjCTtM/CxzzYbh71XXJbGu+V8KgTMWNVzEitn2xkF+OoHQZ2fRdTGC/GwSoU960fGHDnQc70N4Wt4kyU/HEOC/O+/lkPsxhIHT/D5x72kPYhl5Uy6J8PVheC57+FEYnJVB7KYPw58KN37wmpDiPMMTRo9U1okIfBX/WV0y931wvn8WA3/sQ9f/dOHszbK+wpkEAp9Jv/Fj+GYYycKPZb8N302VMmoeztBlLjcR/j/w510OI1XeH/c8h+T9AJeRE5FcCuELXYqs+u5uwx7K2RQSd4Zx9jgP62weyTsD6JVy6fsmJW/iIuOFXdcxJ2L8PHHPV6kLgucZRG72yf92oPdCAIkKceWRmQhh+EwvfI/ySHym6mrXNbU/X9FPHie9N3kdTDxL6LV41vGz8E2obxF66zmjxkXH6eGaAwWFrvQVdbsPge9rxJl8vvWNXvS+YeX6FEVW/lRO/mmZn8pRwurE2fcHMMB1o1P4sew9K5fV6qLI7cJZOP84gLMW/r5PyvQ9z/W7PP1cDyD2VPqU/xaR+cHwV5X984vJOf9UzZuE7PITw2pYj/M4k7+vHfy9V8PKmeF1I3TzGw1K7G+F+aA4ycB5l8fWauV/eZ5/3OVp6i0fkuW6LPKarwq6xO/5hj9X+Z8HoR9VmWe+88FXjI/C81IIvW+F9SuRUUfhHxK/DSNSyLdXkR2jK7J7YcuTDliUvqPyMQfZ5Bjzf2iU7mZmedPBRkJjbPSGXelLg9Yl702zsasuZmuT/U+HzMz8ppv5w0HmPSX/rzWzkZ+Um8v6Nav6X8N29d53R0t9Xk/8zCLcGh0LEXOpz6h69kLEr5qYFhbmT0mHn0aYmT9DO1j2RulWayyDGOegPelnU4XrhJtZul1sLK1eZx+4VHm1qWGY+4HL5byZv1M8z8TM3T3Mcd7CdOKd75WFfQNY0ZiDQlyVjzn4xyQbC6h9r8Ld3G1jjhtBNhYeYXZFX7TM9VDeyynooeFKVWynRpm92878P0jppPysR8v/r+XxLOLjSZSNDNrke/TMfLSH2c7bmEnc0+Zl/5fgunzeoDwbwg/vCv2Ms3jMqz6Hx6v7ioPZhvxsLDnJold71Pg5GeTaXWCKjb5nYfbApBpH/5li/pNaJQz2P5fF2rMoc7VpmZmHodBPPPWlfF5RL6vSTEV448x7iD+3u6RTU1+YlfesiqwWhPtd8Scqw7QAWZ5udTxu+x/I0D7j6Vu8r1x2BTceN/PGo4ixKm0uFn0mrxeVc5pFvyjJTn/EzHp43mQTMoOReX8Qf2qMZY05SAdZj5SR+UYhhuqRZv5u9V6hh5PCaYX5n5J/nCvkH0Zm4rou0tQoT2dmRcZgug/HpO7NsbHzqluljnIdUf5f7odC3Ff6qz6lsM3TwTpsZV1ZKtvaOFAoFLbdXLGLEVJQisqBZ1Nfqs8wXoqWDZ4Ryikigt9/rqCwdZSw8K51NQ7izC0GFaGH+YvaKf1X8c5SOHq+LhUXXN3Z6LsG5vi28DL+vINVhQVXYHUwWnkCjbJ+xZ9mLkOZjLNZli0JbkNYdeNAoRDfFuYtG7hVq3CrXeBlWfAU16uqDCj6sSrT0r0FORuYPSQz7WdcpgW9LepyqdAVFJ5jHioV5mo8CneuR/L/2ZCtaOAVedCvPrOoK0IfuJ4cGVELgiJlzytTjZrhfehWDEVwg7OoadLvqyereizVOFDfJ2TuihWkV8gfKsOqGjhVRjcnfoUbjV+UpNWYnEv5jeHdoBqf/5lj2SUmoGUZB9z4NyxBRtFL6r0lv69G/ifzDy3PtwqVGkGxEmNiI0nVqfD+Sr/W8kMdf9VlqcbB1taVpbJzxhzs1aFljzyHFrrfytMydstBKa0H9Si1tGlgesul9Lvh0zCisoVo82CA7W4UYzEXLNwUV3g+hzl5WoKHo6eP3w0EBv2l5qiZCEIxE8wGtd8xfz8I90QGqbuyqVc23RXCPfwgXmz63a186qDfp0pL09SEpoWaKLc8LdBpSwHU6lrl2SI8DsJ3k8s2ESyTqQej0yI2RLN6HGrnRGnQn07Hi1fBHi7Tot5K9jYVB90p/Ez90r2qK9PbFrS8Ir6jSD4W3ykEr/u4J+IIlvnBE04pOiGafePiPu7X4WsZGA61Qi/cixSe1wC/s3F9HEP0koWnNMncfI2sScOyWi2aYBmMYyzih72tID2efmpMadMds8HGvzMf+RAutvomEPmyBZbXC9JqUM6cQn6DV3Q8FXF2adC0HgmI61SF/izGf+T3KqPkH1quZ/uUS5X9VjjOixORL61uTK+cnaUrNCCxEfYfgFE5ySO/6YwDrrL7jTC1cZVR+n8HMPBVDDW72g7a4DzFvyf64L+nBiT3IIy4pQvtcrR5+rH4rxHmMw6eSEuHN6y0MoENmcoKIKIR8qkkRA9v+wlnhUxdX8ZVmYZtaoJfS/IpJO/y79etcJb5wcENRV474f4YhW0/z8wSEcWvKxu93QRdmwlGnulnxgPwfDIA33eNdf5uiKy0BpgO6dEkFnm6xtPPZyEkay3qtNcC+5DItoeVfnUFnoH7X7Gi81X1slE5byh7motGW3w6Lc/qwSsKj+RpCzdU5enaoeEVN4tyls5V9rtvCnaQrpBx0CBqLXmTMptE4INOWP83C+O5fvSfMtXJQJtgPtmvZAye6yGe7HOIfDOJriOGYoGfyUT4J60qt5rkZtQaUH4jLcsZnsmL79mFF9Wam12dDDn/KIA+sxXerBGOj/thO9xYkb4xssohdrkLnReiaDnB0897VrTWKQUNx+ww8+/IxZAcTBmEvttUaiFpUM4biijgjqinsSfpRfyZwuRt9cz4eita1NM1pVhL3pTsHF0h42AptOmhW3vTuSHy33vg/EZk5Al4Dh+A9ZEFrkEzdIskLM0hG1wiY7jtgO92GP6MDZbfldoCtPuE1c6t4odVo88lufGYqtBEw2h/rTYj+sq6ZCp4FENsrStJL+nUboKbUcRreiKJ2HgOuzWqLiR+SleMpl4SEx6Y9FYkj7m4ri2tnr9ussrzdHNRzN3PIXxGj/aADo4hG2TvWn1Es/eHPHvPOOG9FUI41A7boWJ237CcNxYdOk+qtXNcXqSrdCKqtiTxYs52rFSJWHu0aH91zdvTGiSD0EfDSDzfWbpCxkEjPJ6EqE+bT5uq+mEryT+rNdlrLUjBfzECnZ5r5/dhuMVUIW1zg1a9DtZzDp70MnAetyJ/rL0iTLrftiv9XZG3nAg8Vd2KTAfgDGQ3dyvKZuTVVqX/EZ9a4amegy3mgQ9FIcvkNUSPVtGlBA+sl0U9ppw8Yp94EOWe0OrV+Mc1XmjUzJe40bDIPgqJu26lptSydxn1zHWSVeorJyI6PZoyEfivZbgIWtDc0EJOGphOu5QaYaCnC0GjGa0V/2tMzhuN9oQT7jZx5sHwnXpdPnlEAm5e/dDCfMUFa6E5vA6rk//lMZkIAQetsPx+gdI3P1dzau1akL/nhvs5rxjO7Cxd2TbGQToj67MTjTTR5JBVutoSSKXn3x2sqDXzBPKFE5NH3XCdKBSjeuiVSB2G63oCebFxz0QAnutR5Vdk0qU1uvdq1SZ+boEnRWE7HUFoor41mPtHoQ+Qh6NG076YVz58ugO96XYceIk77NKoRsFNH/yib1CsL3/ZDZ9wm+D+mM0hM1MZRs1hu9p6oO2B7UiVucMTpfOksG5DsP6+E85bESSnk8qc847TUZg/MBebxRocYrZ1mEnLVhEep4srUTGuEqlS02zTXrW2k4glufnFC6H7ISR2mWEfFKNWuEFmbEfvZ9xtWqyd4EGX0QXN+3YYlDyAS3QF3Tnp2YU83QTzGZcydiZzsR3tp4e5HqaQmgjBc7wVrj122A9yTxTjfxi2N3zFNTly3/ngVZqXQ4g+zMzboKZCVzWqUeC77keSu4s9QzxXFI1E4kkW+Zz6/5XJqg65LDdfVGp2jeUziIn1I95Ko13P/ckzX2Vw3iM3/GKNjnwOiVs8/TwQjkmer3CfZKrSqzJoTsjIiK6e9qp++AblzKk1kG39MMBxNwoXr8mGeiwYGK/WHS6HT7t4ocUrRR/64T1X3mqwivmfcC9fb+axH57LRtgv2WGSBan+NcVcxPCgDwnuzbxYm+XyMNS3pZGeUU44WmgPi+8gEkpemED4XmG/iFrw//6kntXUFbGWyx0nOt/woMVwAE07TVfElIWtjFjLIHjDUZwfKw7jKTfzP0izTHKUjbwr54bDyPoDcZaey7LJkKt4v/aoi43Jtd0LU6vM3RZmPGJn7qte5ug2MvO7Xhatnl9dWJdcebaWmc752WTYxXjVi/Wc9zJ/ZEpO55lj8UG5VkLhvuKUyjLm0iwacDFL8Zn84M8yHTYVD31ZGA3nx+Tz0yx4Sld013W7WPCHKRYU09GEW5uNjciphuWIqTHaijnwZTyLM+8JvZyHLA4t059wsVE55WjuSZT5PyzMU+byfm+EjSYbmju05ixrKqNYyyA0whxHpczEweXmDkRZ+ukkG/3CXpz6ZfzQz+JcX7LJIHMV7teametbuXb8XJy55JxkaE3MEZiU0wun2Oh5szrFTx46rmMjD6XcuB+CVwvrHKh6GXxYWI9+jqUfjjKvMv9ZPJe/LyR1ubjeAj/a+PPCkyyrhIfruHyW4bxY+0B9z9SfeVop17H9Zma/ES9NPRM8m2T+c2LtjMJ9Oma5NML6j6l+dgfG2OTTNItH/Ky/GNaCn/j/n5SnDfHfIJv8KcjsUn+Np0ZYXKSB5cqqJlxGD/zM1V1KC4reHiqlH9NrZfF70MHGlMfx9DlUCqv2kI15IzxsV0rrm/R/W2MtADHdrM3F4qqH57GwnEUe5C3OXa+Q3RJZ0d4Kgv+I9Srsil913Q7mvjHCRoYcrIfLSshcyKImK87/5LRDsf7MEaPyH++QjZnbergsCnpQgOdnZXmc9pCD+Xne7lLyJQfzcn2ckqqR/rqwHocIj3t+vi0R6df7ZrmO8/vbynSlrVyPCmvcbG1dWSoviA/+UoKTudWFlp4Q7H/OwsstUKV2tKvGVLIiYqtfflPhHm5B57l9XWtNd7GdrPhtraafzH++6jfNnqYa/hF9ZyZEjkXgPrxA053Y1lRYrAvKYHPh8/kwPj6O69evS5cNQNSkRC1ew+VWHd28tqHWutdp2lpNpN5yxPTTur4o+FXGf56HSbOnUT9XpQ3FSTyvKtybRVZS18vloaSpWv7iJD5thXOPH6NvLtjR2JicV8A777wDg8EAbiRIl+Wj5iGShtJ8VRwvKf+LYeCFdjgPuhFPOKCX715ITtXPyM/y+2v4cf67VpktqitLhcYc1ENENI+khROIUMCye3bV3yxJRPhaZnDzn6/6raZ/nobhSyy0prpEzLFfVAbEPJQ5yFxutaK7oFdrqAuLI/0n9EO61KQqDTRuGAiq0oZAeV7VMzaLrKSul79JSVO1Xp2PIfy1fn6X3DwalPMmQc1D5NFQmq+K4xXkf4V3LySn6mfUMgwEi71rxewQXSHjYIeQ+z6AwJ0YkpkkAh85oXm/Z+G+W4IgiuSnwwjcCiMxnUHksgOj5rMwizE/BFHFdtEVMg7KSD1Wh7hEHm23yXoJDB+1wmppx4GWA3DkHOg7pgwTIghiUTIIX+yEtacTrboWdIRb4Txl3DQ1vC3J0xTi4nsiiVRxQOF2YPvoCo05UBC7igURLRvVr9nbBN3vrTC/tj2yANFy4L+fRn6vHpZuM3QNNRtuPTbFmANi2yFqg/7bSeQ0LTCd6IGhoalsa89qjjlYL/I/clne57IsZLei+2jPAXTyQlQrnbYym1VXlgoZB8S2gowDYiexFY0DYmtA3QoEQRAEQVSwopaDmZkZfPfdd/KKIDaev/zlL/jrX/+K7u5u6UIQ25dgMIhf/epXaGtTljskiLr85je/wW9/W2M74jqsyDj48ccf8fHHH8srgth4nj17pmza88tf/lK6EMT2RVTQfv7zn+PFF1+ULgRRm6NHj+L06dPyanFozAGxraAxB8ROgsYcEGsFjTkgCIIgCKICMg4KTIdx9vgAYovsOLdZSd3qRe/NpLIEKUEQBEGshE1hHGQmkqjay2p9EVvBnvajfagfxur5/7MpJO5HEOFH7NHG+VKs3Z2rOpK3fYhIY0Z3wgvb07Ow3UqpDpuIxuM3h9SPC+2iRmxKZpKIyTQSmaD4IzYBuRSST0kTV8KGGgeZcR/6TC1oMQzX2Tt+PcghfMGKyXc96NknnRTySN7sxcsvvoxWUwc6+NGub0aLyYnIeq/oNRNGH393c3PlYXuoQ2vRmNHA+LEbrVet8ExIpw2m8fjlRsFdD7peacbLJ/0o3zCb2MyIbX070XEhgjldK1oNOux+4ICupQPDm0QHiR0GNwrCl7vwcvPLsN6mnGQlbIxxMJtE+KsQ4lleKNwXO7mvjNyjCJLLLLDz91ywJezo665cmytz24bOOzp4k2lks1lMxUZgb+Pu9wfQ8YZP7vu/PqS+GUb8SD/cQ+6ywwvXGVPV/uAG2C4cQN9H6+u/eSwlfp/G4LsVRWomjdRj6UZsCTK37TB/oIFN7L2/T2wao4PxPR983RGcPTKAhLyPINaDzHc+BB6kkPtHamPzv+2CmK2wccg9vWFno3I/7qWTZv5uMEugzr7jCzLFRo6AmW9U78EdZ+6j3E9P5GWBlJ9ZFP8amfcH6bbWzHEZtfUwf0peL8bcGOvXall/ZB02/F6UJcTvEynbg24u/eUzMjLCent75RWxdqRZ8GTtuJ26YV5hmiYa5e2332aff/65vCIE6YCF6x+Y4cpKchJiZw9IfBxB4K4F1sNVmxA9iiN1jNeKqnfS2mdE1zFxkkf+ueJShxxit0JILjK4Mf8ohMD4wv0pubs+OHN5xO+HkJhuoA9N0w7TyQwG7kap75dYB4JIPJKnCnmkkmHgoIY2JiKILcyONg5S9wOIHGyHvtoIeNUG76la+2/vBpT9ylsW2e9cg6bZIEzHPUjUMRDy4wPoPBrE3ILPScA35OPGSgie011o1e3GCy0d6LuzUKOZBgd+3wN8FaNmXWIN0cLUbeefGTiPWRGYls6PfPBcNsIuuhoq+7wIgthC7GDjIIdkIgIY9Wh88+I00j/xbPGkDZ37pVNNNNC/6UPkWBzmGgaCYhicnETPnWHYXlsoBzXAfjeLqcQo/EN2mMU7MxF4LC+j/UKEh6A2Wt0BaPl9k9SHT6whTUfdCF0ycp0MwKprx9nLTnR9kID5QRjeo7QlOEFsZXawcZBFWhSeLc1Vg/rqkx8Pwz9hRt8H5ga2FlUNhPDhSIWB0LhhoKJpaoLuoBk9570Y/SmLyRs2xZiJXbbCdb9Ox4FWh3ZEkFpkLGD+nhMdf+hYxuFBjPosCK7jxo8jiF8R6SGG4QsDiO4ywtRGTQYEsdXZwcZBBpl7gGV/ozWcFEJXvGi54oL9YKO9qRoYzgVVA+HwAMJ3l2YYzKcJ+lMjGPvSws8z8NyJ1B5XsEvt700+Wdg60Bx2YezbsWUcDhipQ5kQ5JKIxADrJQdM3GLOfNOLA/qzCK/3dF+CIFaVLWMc1K/l8hr0AyA6aK3xGz+ODyOx4ODBxkjdGkBwvx/ecwal4G0c1UDwH/Kj0zwK083lGgYldN12OMTJg2TtNQG0LTggTwlizRCLhx0xI37MC/fHboz9MIb+Q9xCeDyMzqMeGvNCEFuYLWMc1K/l+uF8HWj/yF/jN358bYdBGUS4fERXQF/MAvegaQnjE0rkxz0YuG1A/4fN8A766g5SbBjNAbSKHYlbmup2iczJb4JYG/KIDFrgzFthK8z22WuC688huMTuweN98H2zYSubEQSxQnZwtwKv//NKTnQ6La9rIwwDa8AA91XzMg2DUleCa1B2MSwwi6Ex5jDH813Dazo0S5cKnqaUFgXd3oVbKPITPpw9XqO1ZZGj60wAyVVojSG2MknEbopuqxY071VdFPYY4biktGsh+piWoiGIrcoONg5aoD8MZLLZuusB5B/54Pxaxwv1+YZB6lbfokvEzh98WDkGYdmbPD2OIHTPiK7j7bVbDvJzyHHLp7l54Q4QzUErXF8EEfx6aYeP1xj1K2yNIbY6TdAZ+ddEGtmqBKR5UTVZW5pW1n1GEMTGsUmMgzRyK21qXzJa6AwGnrml+NtrMB2A7ZAHqV1phK954LlcOpxnOtHxlR6mg/LeGtSflSANhONRWBY0EPJIfNrFa+q9GLhbXgNLIXDJA83VYTh+V7vwz6eSiKALhgWnWwo0aOIZ+NKPpY5GXEL8TuTrGmvEZkIH04kenoo8CNyt7D5I/RDlyasH1kPLaWsjiNUhMUs5yYqQKyWuM1k2GRljwUEz0yrL64IZ3xtho5E4Sy951d8VLJ8cc/H311jm9UmQ9WhVf9U+tKzn64XeN8lGTtjZyA8LrR87x+JXbczyxaS8rob/PmQqykfX7WDuoX5mf9POvJGFwxof1DKcCnIpbxRLiN+5NItHRtnIe8aibM2DQTYWmVyW/2n55PVkjk3esDG9VscsQyLOeJxznTYf4br/kNZOXg9o+eQSc0/ibCw8wuxtMp/WmpkrNMbGkqSLy+EF8cEFuYXJIHC8BcFjaQRP8KJoSSTgMbQidSkL79FN2gQ6m0Ou2L8vavqL1drVMCUvZjFybOc16/p8PoyPj+P69evShVhznueRK9bSGtFRYrV45513YDAYwI0E6UIQq8M2GHPQBJ3BhNZfL6cgNMDyvhnDd+qvNrjh7Flic/5EBH64YDtC/b3EOrGrvHuKDAOC2A5sA+NAA+OHY+j/7+VlSroTLriSbvi2xf7zGQQG3Wi/ZKdFigiCIIhls4NnK0g0Bjg+60TwI9+W3wM8940Lzn1+uDdrFwlBEASxJSDjgKP5XT/C51Lo+2gTdy8sgpgd0XW7HWNDJlCjAUEQBLESyDiQNB12wf9WM7LrPqVydcjv7UHwy55lLdREEARBEOWQcVCGZp8Buj3yYovRtF9XdyllgiAIglgKZBwQBEEQBFHBNljngCBK/Otf/8K///1vvPTSS9KFILYvf//737F792784he/kC4EsTqQcUAQBEEQRAXUrUAQBEEQRAVkHBAEQRAEUQEZBwRBEARBVEDGAUEQBEEQFZBxQBAEQRBEBWQcEARBEARRARkHBEEQBEFUQMYBQRAEQRAVkHFAEARBEEQFZBwQBEEQBFEBGQcEQRAEQVRAxgFBEARBEBWQcUAQBEEQRAVkHBAEQRAEUQEZBwRBEARBlAH8P88DhnJVCTRuAAAAAElFTkSuQmCC;" vertex="1" parent="1">
          <mxGeometry x="67" y="750" width="706" height="119.71" as="geometry" />
        </mxCell>
      </root>
    </mxGraphModel>
  </diagram>
</mxfile>
